<svg width="595" height="843" viewBox="0 0 595 843" fill="none" xmlns="http://www.w3.org/2000/svg">
<g clip-path="url(#clip0_521_3516)">
<path d="M0 0H595V20H0V0Z" fill="#E97222"/>
<path d="M522 0H550V80C550 88.8366 542.837 96 534 96H522V0Z" fill="#003333"/>
<path d="M430.263 77.068L428.724 82H427.878L426.69 78.085L425.502 82H424.656L423.108 77.068H423.945L425.079 81.208L426.303 77.068H427.14L428.337 81.217L429.453 77.068H430.263ZM437.646 77.068L436.107 82H435.261L434.073 78.085L432.885 82H432.039L430.491 77.068H431.328L432.462 81.208L433.686 77.068H434.523L435.72 81.217L436.836 77.068H437.646ZM445.029 77.068L443.49 82H442.644L441.456 78.085L440.268 82H439.422L437.874 77.068H438.711L439.845 81.208L441.069 77.068H441.906L443.103 81.217L444.219 77.068H445.029ZM446.102 82.054C445.946 82.054 445.814 82 445.706 81.892C445.598 81.784 445.544 81.652 445.544 81.496C445.544 81.34 445.598 81.208 445.706 81.1C445.814 80.992 445.946 80.938 446.102 80.938C446.252 80.938 446.378 80.992 446.48 81.1C446.588 81.208 446.642 81.34 446.642 81.496C446.642 81.652 446.588 81.784 446.48 81.892C446.378 82 446.252 82.054 446.102 82.054ZM447.425 79.525C447.425 79.015 447.527 78.571 447.731 78.193C447.935 77.809 448.217 77.512 448.577 77.302C448.943 77.092 449.36 76.987 449.828 76.987C450.434 76.987 450.932 77.134 451.322 77.428C451.718 77.722 451.979 78.13 452.105 78.652H451.223C451.139 78.352 450.974 78.115 450.728 77.941C450.488 77.767 450.188 77.68 449.828 77.68C449.36 77.68 448.982 77.842 448.694 78.166C448.406 78.484 448.262 78.937 448.262 79.525C448.262 80.119 448.406 80.578 448.694 80.902C448.982 81.226 449.36 81.388 449.828 81.388C450.188 81.388 450.488 81.304 450.728 81.136C450.968 80.968 451.133 80.728 451.223 80.416H452.105C451.973 80.92 451.709 81.325 451.313 81.631C450.917 81.931 450.422 82.081 449.828 82.081C449.36 82.081 448.943 81.976 448.577 81.766C448.217 81.556 447.935 81.259 447.731 80.875C447.527 80.491 447.425 80.041 447.425 79.525ZM457.698 79.345C457.698 79.501 457.689 79.666 457.671 79.84H453.729C453.759 80.326 453.924 80.707 454.224 80.983C454.53 81.253 454.899 81.388 455.331 81.388C455.685 81.388 455.979 81.307 456.213 81.145C456.453 80.977 456.621 80.755 456.717 80.479H457.599C457.467 80.953 457.203 81.34 456.807 81.64C456.411 81.934 455.919 82.081 455.331 82.081C454.863 82.081 454.443 81.976 454.071 81.766C453.705 81.556 453.417 81.259 453.207 80.875C452.997 80.485 452.892 80.035 452.892 79.525C452.892 79.015 452.994 78.568 453.198 78.184C453.402 77.8 453.687 77.506 454.053 77.302C454.425 77.092 454.851 76.987 455.331 76.987C455.799 76.987 456.213 77.089 456.573 77.293C456.933 77.497 457.209 77.779 457.401 78.139C457.599 78.493 457.698 78.895 457.698 79.345ZM456.852 79.174C456.852 78.862 456.783 78.595 456.645 78.373C456.507 78.145 456.318 77.974 456.078 77.86C455.844 77.74 455.583 77.68 455.295 77.68C454.881 77.68 454.527 77.812 454.233 78.076C453.945 78.34 453.78 78.706 453.738 79.174H456.852ZM459.598 77.977C459.76 77.695 460 77.461 460.318 77.275C460.642 77.083 461.017 76.987 461.443 76.987C461.881 76.987 462.277 77.092 462.631 77.302C462.991 77.512 463.273 77.809 463.477 78.193C463.681 78.571 463.783 79.012 463.783 79.516C463.783 80.014 463.681 80.458 463.477 80.848C463.273 81.238 462.991 81.541 462.631 81.757C462.277 81.973 461.881 82.081 461.443 82.081C461.023 82.081 460.651 81.988 460.327 81.802C460.009 81.61 459.766 81.373 459.598 81.091V84.34H458.779V77.068H459.598V77.977ZM462.946 79.516C462.946 79.144 462.871 78.82 462.721 78.544C462.571 78.268 462.367 78.058 462.109 77.914C461.857 77.77 461.578 77.698 461.272 77.698C460.972 77.698 460.693 77.773 460.435 77.923C460.183 78.067 459.979 78.28 459.823 78.562C459.673 78.838 459.598 79.159 459.598 79.525C459.598 79.897 459.673 80.224 459.823 80.506C459.979 80.782 460.183 80.995 460.435 81.145C460.693 81.289 460.972 81.361 461.272 81.361C461.578 81.361 461.857 81.289 462.109 81.145C462.367 80.995 462.571 80.782 462.721 80.506C462.871 80.224 462.946 79.894 462.946 79.516ZM464.555 79.516C464.555 79.012 464.657 78.571 464.861 78.193C465.065 77.809 465.344 77.512 465.698 77.302C466.058 77.092 466.457 76.987 466.895 76.987C467.327 76.987 467.702 77.08 468.02 77.266C468.338 77.452 468.575 77.686 468.731 77.968V77.068H469.559V82H468.731V81.082C468.569 81.37 468.326 81.61 468.002 81.802C467.684 81.988 467.312 82.081 466.886 82.081C466.448 82.081 466.052 81.973 465.698 81.757C465.344 81.541 465.065 81.238 464.861 80.848C464.657 80.458 464.555 80.014 464.555 79.516ZM468.731 79.525C468.731 79.153 468.656 78.829 468.506 78.553C468.356 78.277 468.152 78.067 467.894 77.923C467.642 77.773 467.363 77.698 467.057 77.698C466.751 77.698 466.472 77.77 466.22 77.914C465.968 78.058 465.767 78.268 465.617 78.544C465.467 78.82 465.392 79.144 465.392 79.516C465.392 79.894 465.467 80.224 465.617 80.506C465.767 80.782 465.968 80.995 466.22 81.145C466.472 81.289 466.751 81.361 467.057 81.361C467.363 81.361 467.642 81.289 467.894 81.145C468.152 80.995 468.356 80.782 468.506 80.506C468.656 80.224 468.731 79.897 468.731 79.525ZM471.762 77.869C471.906 77.587 472.11 77.368 472.374 77.212C472.644 77.056 472.971 76.978 473.355 76.978V77.824H473.139C472.221 77.824 471.762 78.322 471.762 79.318V82H470.943V77.068H471.762V77.869ZM475.299 77.743V80.65C475.299 80.89 475.35 81.061 475.452 81.163C475.554 81.259 475.731 81.307 475.983 81.307H476.586V82H475.848C475.392 82 475.05 81.895 474.822 81.685C474.594 81.475 474.48 81.13 474.48 80.65V77.743H473.841V77.068H474.48V75.826H475.299V77.068H476.586V77.743H475.299ZM477.84 82.054C477.684 82.054 477.552 82 477.444 81.892C477.336 81.784 477.282 81.652 477.282 81.496C477.282 81.34 477.336 81.208 477.444 81.1C477.552 80.992 477.684 80.938 477.84 80.938C477.99 80.938 478.116 80.992 478.218 81.1C478.326 81.208 478.38 81.34 478.38 81.496C478.38 81.652 478.326 81.784 478.218 81.892C478.116 82 477.99 82.054 477.84 82.054ZM479.162 79.525C479.162 79.015 479.264 78.571 479.468 78.193C479.672 77.809 479.954 77.512 480.314 77.302C480.68 77.092 481.097 76.987 481.565 76.987C482.171 76.987 482.669 77.134 483.059 77.428C483.455 77.722 483.716 78.13 483.842 78.652H482.96C482.876 78.352 482.711 78.115 482.465 77.941C482.225 77.767 481.925 77.68 481.565 77.68C481.097 77.68 480.719 77.842 480.431 78.166C480.143 78.484 479.999 78.937 479.999 79.525C479.999 80.119 480.143 80.578 480.431 80.902C480.719 81.226 481.097 81.388 481.565 81.388C481.925 81.388 482.225 81.304 482.465 81.136C482.705 80.968 482.87 80.728 482.96 80.416H483.842C483.71 80.92 483.446 81.325 483.05 81.631C482.654 81.931 482.159 82.081 481.565 82.081C481.097 82.081 480.68 81.976 480.314 81.766C479.954 81.556 479.672 81.259 479.468 80.875C479.264 80.491 479.162 80.041 479.162 79.525ZM487.086 82.081C486.624 82.081 486.204 81.976 485.826 81.766C485.454 81.556 485.16 81.259 484.944 80.875C484.734 80.485 484.629 80.035 484.629 79.525C484.629 79.021 484.737 78.577 484.953 78.193C485.175 77.803 485.475 77.506 485.853 77.302C486.231 77.092 486.654 76.987 487.122 76.987C487.59 76.987 488.013 77.092 488.391 77.302C488.769 77.506 489.066 77.8 489.282 78.184C489.504 78.568 489.615 79.015 489.615 79.525C489.615 80.035 489.501 80.485 489.273 80.875C489.051 81.259 488.748 81.556 488.364 81.766C487.98 81.976 487.554 82.081 487.086 82.081ZM487.086 81.361C487.38 81.361 487.656 81.292 487.914 81.154C488.172 81.016 488.379 80.809 488.535 80.533C488.697 80.257 488.778 79.921 488.778 79.525C488.778 79.129 488.7 78.793 488.544 78.517C488.388 78.241 488.184 78.037 487.932 77.905C487.68 77.767 487.407 77.698 487.113 77.698C486.813 77.698 486.537 77.767 486.285 77.905C486.039 78.037 485.841 78.241 485.691 78.517C485.541 78.793 485.466 79.129 485.466 79.525C485.466 79.927 485.538 80.266 485.682 80.542C485.832 80.818 486.03 81.025 486.276 81.163C486.522 81.295 486.792 81.361 487.086 81.361ZM496.623 76.978C497.007 76.978 497.349 77.059 497.649 77.221C497.949 77.377 498.186 77.614 498.36 77.932C498.534 78.25 498.621 78.637 498.621 79.093V82H497.811V79.21C497.811 78.718 497.688 78.343 497.442 78.085C497.202 77.821 496.875 77.689 496.461 77.689C496.035 77.689 495.696 77.827 495.444 78.103C495.192 78.373 495.066 78.766 495.066 79.282V82H494.256V79.21C494.256 78.718 494.133 78.343 493.887 78.085C493.647 77.821 493.32 77.689 492.906 77.689C492.48 77.689 492.141 77.827 491.889 78.103C491.637 78.373 491.511 78.766 491.511 79.282V82H490.692V77.068H491.511V77.779C491.673 77.521 491.889 77.323 492.159 77.185C492.435 77.047 492.738 76.978 493.068 76.978C493.482 76.978 493.848 77.071 494.166 77.257C494.484 77.443 494.721 77.716 494.877 78.076C495.015 77.728 495.243 77.458 495.561 77.266C495.879 77.074 496.233 76.978 496.623 76.978ZM500.225 82.054C500.069 82.054 499.937 82 499.829 81.892C499.721 81.784 499.667 81.652 499.667 81.496C499.667 81.34 499.721 81.208 499.829 81.1C499.937 80.992 500.069 80.938 500.225 80.938C500.375 80.938 500.501 80.992 500.603 81.1C500.711 81.208 500.765 81.34 500.765 81.496C500.765 81.652 500.711 81.784 500.603 81.892C500.501 82 500.375 82.054 500.225 82.054ZM502.673 77.986C502.841 77.692 503.087 77.452 503.411 77.266C503.735 77.08 504.104 76.987 504.518 76.987C504.962 76.987 505.361 77.092 505.715 77.302C506.069 77.512 506.348 77.809 506.552 78.193C506.756 78.571 506.858 79.012 506.858 79.516C506.858 80.014 506.756 80.458 506.552 80.848C506.348 81.238 506.066 81.541 505.706 81.757C505.352 81.973 504.956 82.081 504.518 82.081C504.092 82.081 503.717 81.988 503.393 81.802C503.075 81.616 502.835 81.379 502.673 81.091V82H501.854V75.34H502.673V77.986ZM506.021 79.516C506.021 79.144 505.946 78.82 505.796 78.544C505.646 78.268 505.442 78.058 505.184 77.914C504.932 77.77 504.653 77.698 504.347 77.698C504.047 77.698 503.768 77.773 503.51 77.923C503.258 78.067 503.054 78.28 502.898 78.562C502.748 78.838 502.673 79.159 502.673 79.525C502.673 79.897 502.748 80.224 502.898 80.506C503.054 80.782 503.258 80.995 503.51 81.145C503.768 81.289 504.047 81.361 504.347 81.361C504.653 81.361 504.932 81.289 505.184 81.145C505.442 80.995 505.646 80.782 505.796 80.506C505.946 80.224 506.021 79.894 506.021 79.516ZM508.755 77.869C508.899 77.587 509.103 77.368 509.367 77.212C509.637 77.056 509.964 76.978 510.348 76.978V77.824H510.132C509.214 77.824 508.755 78.322 508.755 79.318V82H507.936V77.068H508.755V77.869Z" fill="#003333"/>
<path d="M531.244 75.8008C531.434 75.8008 531.618 75.8283 531.79 75.8824C532.445 75.1488 533.17 74.4815 533.956 73.8903C533.875 73.5525 533.891 73.1988 534.001 72.8696C533.115 72.2345 532.156 71.7078 531.145 71.3006C530.192 71.8901 529.361 72.6568 528.696 73.5592C529.188 74.4319 529.774 75.2449 530.44 75.9848C530.682 75.8672 530.955 75.8008 531.244 75.8008ZM529.387 77.6572C529.387 77.3964 529.442 77.1478 529.537 76.924C528.94 76.2678 528.402 75.5602 527.93 74.8095C527.317 76.025 526.999 77.3672 527 78.7282C526.998 80.2997 527.423 81.8422 528.228 83.1915C528.504 81.6484 529.023 80.1589 529.765 78.7785C529.519 78.4564 529.386 78.0624 529.387 77.6572V77.6572ZM535.761 71.6022C536.251 71.6022 536.695 71.7929 537.028 72.104C538.008 71.6812 539.03 71.3657 540.078 71.163C538.755 70.3994 537.254 69.9982 535.727 70C534.678 69.9994 533.638 70.1883 532.657 70.5578C533.413 70.9309 534.135 71.3673 534.817 71.8621C535.094 71.6971 535.416 71.6022 535.761 71.6022ZM538.536 80.3475C538.651 80.1077 538.815 79.8954 539.019 79.7252C538.476 78.0572 537.616 76.5101 536.485 75.169C536.192 75.2928 535.873 75.3394 535.557 75.3044C535.241 75.2693 534.94 75.1538 534.681 74.9689C534.009 75.4799 533.385 76.0525 532.819 76.6792C532.961 76.9051 533.053 77.1594 533.087 77.4244C533.121 77.6894 533.096 77.9586 533.015 78.2131C534.675 79.3238 536.561 80.0527 538.536 80.3475V80.3475ZM540.945 82.8547C541.014 83.8294 540.988 84.8086 540.868 85.7783C542.366 84.6854 543.478 83.1442 544.043 81.3777C543.362 81.5426 542.671 81.6583 541.974 81.724C541.893 81.9747 541.759 82.2052 541.581 82.4002C541.404 82.5951 541.187 82.7501 540.945 82.8547V82.8547ZM538.102 81.5959C535.992 81.2443 533.982 80.4405 532.211 79.2395C531.808 79.4876 531.325 79.5718 530.862 79.4748C530.009 81.0884 529.493 82.8582 529.345 84.677C530.181 85.5763 531.198 86.2891 532.328 86.7687C533.761 84.5638 535.754 82.7788 538.102 81.5959V81.5959ZM541.585 72.2587C540.216 72.3926 538.875 72.7342 537.608 73.2718C537.643 73.6161 537.58 73.9632 537.427 74.2735C538.683 75.7472 539.64 77.4522 540.243 79.2927C540.602 79.2991 540.952 79.4096 541.25 79.6108C541.548 79.812 541.782 80.0952 541.922 80.4262C542.762 80.3409 543.58 80.1796 544.367 79.9481C544.569 78.5366 544.42 77.0972 543.935 75.7564C543.45 74.4157 542.643 73.2146 541.585 72.2587V72.2587ZM539.036 82.5872C536.849 83.6116 534.975 85.2019 533.608 87.1937C534.301 87.3672 535.012 87.4548 535.727 87.4545C536.999 87.4557 538.256 87.1775 539.409 86.6397C539.589 85.7594 539.684 84.8496 539.684 83.9181C539.684 83.5813 539.669 83.2474 539.643 82.9173C539.422 82.847 539.216 82.7349 539.036 82.5872Z" fill="#E97222"/>
<path d="M396.693 36.76H394.261L393.813 38H393.045L395.061 32.456H395.901L397.909 38H397.141L396.693 36.76ZM396.485 36.168L395.477 33.352L394.469 36.168H396.485ZM400.42 37.328L401.78 33.616H402.556L400.836 38H399.988L398.268 33.616H399.052L400.42 37.328ZM403.504 38.048C403.366 38.048 403.248 38 403.152 37.904C403.056 37.808 403.008 37.6907 403.008 37.552C403.008 37.4133 403.056 37.296 403.152 37.2C403.248 37.104 403.366 37.056 403.504 37.056C403.638 37.056 403.75 37.104 403.84 37.2C403.936 37.296 403.984 37.4133 403.984 37.552C403.984 37.6907 403.936 37.808 403.84 37.904C403.75 38 403.638 38.048 403.504 38.048ZM410.813 34.056C410.813 34.52 410.653 34.9067 410.333 35.216C410.018 35.52 409.535 35.672 408.885 35.672H407.813V38H407.085V32.424H408.885C409.514 32.424 409.991 32.576 410.317 32.88C410.647 33.184 410.813 33.576 410.813 34.056ZM408.885 35.072C409.29 35.072 409.589 34.984 409.781 34.808C409.973 34.632 410.069 34.3813 410.069 34.056C410.069 33.368 409.674 33.024 408.885 33.024H407.813V35.072H408.885ZM415.718 35.64C415.718 35.7787 415.71 35.9253 415.694 36.08H412.19C412.216 36.512 412.363 36.8507 412.63 37.096C412.902 37.336 413.23 37.456 413.614 37.456C413.928 37.456 414.19 37.384 414.398 37.24C414.611 37.0907 414.76 36.8933 414.846 36.648H415.63C415.512 37.0693 415.278 37.4133 414.926 37.68C414.574 37.9413 414.136 38.072 413.614 38.072C413.198 38.072 412.824 37.9787 412.494 37.792C412.168 37.6053 411.912 37.3413 411.726 37C411.539 36.6533 411.446 36.2533 411.446 35.8C411.446 35.3467 411.536 34.9493 411.718 34.608C411.899 34.2667 412.152 34.0053 412.478 33.824C412.808 33.6373 413.187 33.544 413.614 33.544C414.03 33.544 414.398 33.6347 414.718 33.816C415.038 33.9973 415.283 34.248 415.454 34.568C415.63 34.8827 415.718 35.24 415.718 35.64ZM414.966 35.488C414.966 35.2107 414.904 34.9733 414.782 34.776C414.659 34.5733 414.491 34.4213 414.278 34.32C414.07 34.2133 413.838 34.16 413.582 34.16C413.214 34.16 412.899 34.2773 412.638 34.512C412.382 34.7467 412.235 35.072 412.198 35.488H414.966ZM418.231 38.072C417.895 38.072 417.593 38.016 417.327 37.904C417.06 37.7867 416.849 37.6267 416.695 37.424C416.54 37.216 416.455 36.9787 416.439 36.712H417.191C417.212 36.9307 417.313 37.1093 417.495 37.248C417.681 37.3867 417.924 37.456 418.223 37.456C418.5 37.456 418.719 37.3947 418.879 37.272C419.039 37.1493 419.119 36.9947 419.119 36.808C419.119 36.616 419.033 36.4747 418.863 36.384C418.692 36.288 418.428 36.1947 418.071 36.104C417.745 36.0187 417.479 35.9333 417.271 35.848C417.068 35.7573 416.892 35.6267 416.743 35.456C416.599 35.28 416.527 35.0507 416.527 34.768C416.527 34.544 416.593 34.3387 416.727 34.152C416.86 33.9653 417.049 33.8187 417.295 33.712C417.54 33.6 417.82 33.544 418.135 33.544C418.62 33.544 419.012 33.6667 419.311 33.912C419.609 34.1573 419.769 34.4933 419.791 34.92H419.063C419.047 34.6907 418.953 34.5067 418.783 34.368C418.617 34.2293 418.393 34.16 418.111 34.16C417.849 34.16 417.641 34.216 417.487 34.328C417.332 34.44 417.255 34.5867 417.255 34.768C417.255 34.912 417.3 35.032 417.391 35.128C417.487 35.2187 417.604 35.2933 417.743 35.352C417.887 35.4053 418.084 35.4667 418.335 35.536C418.649 35.6213 418.905 35.7067 419.103 35.792C419.3 35.872 419.468 35.9947 419.607 36.16C419.751 36.3253 419.825 36.5413 419.831 36.808C419.831 37.048 419.764 37.264 419.631 37.456C419.497 37.648 419.308 37.8 419.063 37.912C418.823 38.0187 418.545 38.072 418.231 38.072ZM422.41 38.072C422.074 38.072 421.773 38.016 421.506 37.904C421.24 37.7867 421.029 37.6267 420.874 37.424C420.72 37.216 420.634 36.9787 420.618 36.712H421.37C421.392 36.9307 421.493 37.1093 421.674 37.248C421.861 37.3867 422.104 37.456 422.402 37.456C422.68 37.456 422.898 37.3947 423.058 37.272C423.218 37.1493 423.298 36.9947 423.298 36.808C423.298 36.616 423.213 36.4747 423.042 36.384C422.872 36.288 422.608 36.1947 422.25 36.104C421.925 36.0187 421.658 35.9333 421.45 35.848C421.248 35.7573 421.072 35.6267 420.922 35.456C420.778 35.28 420.706 35.0507 420.706 34.768C420.706 34.544 420.773 34.3387 420.906 34.152C421.04 33.9653 421.229 33.8187 421.474 33.712C421.72 33.6 422 33.544 422.314 33.544C422.8 33.544 423.192 33.6667 423.49 33.912C423.789 34.1573 423.949 34.4933 423.97 34.92H423.242C423.226 34.6907 423.133 34.5067 422.962 34.368C422.797 34.2293 422.573 34.16 422.29 34.16C422.029 34.16 421.821 34.216 421.666 34.328C421.512 34.44 421.434 34.5867 421.434 34.768C421.434 34.912 421.48 35.032 421.57 35.128C421.666 35.2187 421.784 35.2933 421.922 35.352C422.066 35.4053 422.264 35.4667 422.514 35.536C422.829 35.6213 423.085 35.7067 423.282 35.792C423.48 35.872 423.648 35.9947 423.786 36.16C423.93 36.3253 424.005 36.5413 424.01 36.808C424.01 37.048 423.944 37.264 423.81 37.456C423.677 37.648 423.488 37.8 423.242 37.912C423.002 38.0187 422.725 38.072 422.41 38.072ZM426.95 38.072C426.539 38.072 426.166 37.9787 425.83 37.792C425.499 37.6053 425.238 37.3413 425.046 37C424.859 36.6533 424.766 36.2533 424.766 35.8C424.766 35.352 424.862 34.9573 425.054 34.616C425.251 34.2693 425.518 34.0053 425.854 33.824C426.19 33.6373 426.566 33.544 426.982 33.544C427.398 33.544 427.774 33.6373 428.11 33.824C428.446 34.0053 428.71 34.2667 428.902 34.608C429.099 34.9493 429.198 35.3467 429.198 35.8C429.198 36.2533 429.097 36.6533 428.894 37C428.697 37.3413 428.427 37.6053 428.086 37.792C427.745 37.9787 427.366 38.072 426.95 38.072ZM426.95 37.432C427.211 37.432 427.457 37.3707 427.686 37.248C427.915 37.1253 428.099 36.9413 428.238 36.696C428.382 36.4507 428.454 36.152 428.454 35.8C428.454 35.448 428.385 35.1493 428.246 34.904C428.107 34.6587 427.926 34.4773 427.702 34.36C427.478 34.2373 427.235 34.176 426.974 34.176C426.707 34.176 426.462 34.2373 426.238 34.36C426.019 34.4773 425.843 34.6587 425.71 34.904C425.577 35.1493 425.51 35.448 425.51 35.8C425.51 36.1573 425.574 36.4587 425.702 36.704C425.835 36.9493 426.011 37.1333 426.23 37.256C426.449 37.3733 426.689 37.432 426.95 37.432ZM429.883 35.792C429.883 35.344 429.974 34.952 430.155 34.616C430.336 34.2747 430.584 34.0107 430.899 33.824C431.219 33.6373 431.574 33.544 431.963 33.544C432.347 33.544 432.68 33.6267 432.963 33.792C433.246 33.9573 433.456 34.1653 433.595 34.416V33.616H434.331V38H433.595V37.184C433.451 37.44 433.235 37.6533 432.947 37.824C432.664 37.9893 432.334 38.072 431.955 38.072C431.566 38.072 431.214 37.976 430.899 37.784C430.584 37.592 430.336 37.3227 430.155 36.976C429.974 36.6293 429.883 36.2347 429.883 35.792ZM433.595 35.8C433.595 35.4693 433.528 35.1813 433.395 34.936C433.262 34.6907 433.08 34.504 432.851 34.376C432.627 34.2427 432.379 34.176 432.107 34.176C431.835 34.176 431.587 34.24 431.363 34.368C431.139 34.496 430.96 34.6827 430.827 34.928C430.694 35.1733 430.627 35.4613 430.627 35.792C430.627 36.128 430.694 36.4213 430.827 36.672C430.96 36.9173 431.139 37.1067 431.363 37.24C431.587 37.368 431.835 37.432 432.107 37.432C432.379 37.432 432.627 37.368 432.851 37.24C433.08 37.1067 433.262 36.9173 433.395 36.672C433.528 36.4213 433.595 36.1307 433.595 35.8ZM440.99 36.76H438.558L438.11 38H437.342L439.358 32.456H440.198L442.206 38H441.438L440.99 36.76ZM440.782 36.168L439.774 33.352L438.766 36.168H440.782ZM445.221 33.536C445.754 33.536 446.186 33.6987 446.517 34.024C446.847 34.344 447.013 34.808 447.013 35.416V38H446.293V35.52C446.293 35.0827 446.183 34.7493 445.965 34.52C445.746 34.2853 445.447 34.168 445.069 34.168C444.685 34.168 444.378 34.288 444.149 34.528C443.925 34.768 443.813 35.1173 443.813 35.576V38H443.085V33.616H443.813V34.24C443.957 34.016 444.151 33.8427 444.397 33.72C444.647 33.5973 444.922 33.536 445.221 33.536ZM449.09 34.216V36.8C449.09 37.0133 449.135 37.1653 449.226 37.256C449.317 37.3413 449.474 37.384 449.698 37.384H450.234V38H449.578C449.173 38 448.869 37.9067 448.666 37.72C448.463 37.5333 448.362 37.2267 448.362 36.8V34.216H447.794V33.616H448.362V32.512H449.09V33.616H450.234V34.216H449.09ZM450.844 35.792C450.844 35.344 450.935 34.952 451.116 34.616C451.297 34.2747 451.545 34.0107 451.86 33.824C452.18 33.6373 452.535 33.544 452.924 33.544C453.308 33.544 453.641 33.6267 453.924 33.792C454.207 33.9573 454.417 34.1653 454.556 34.416V33.616H455.292V38H454.556V37.184C454.412 37.44 454.196 37.6533 453.908 37.824C453.625 37.9893 453.295 38.072 452.916 38.072C452.527 38.072 452.175 37.976 451.86 37.784C451.545 37.592 451.297 37.3227 451.116 36.976C450.935 36.6293 450.844 36.2347 450.844 35.792ZM454.556 35.8C454.556 35.4693 454.489 35.1813 454.356 34.936C454.223 34.6907 454.041 34.504 453.812 34.376C453.588 34.2427 453.34 34.176 453.068 34.176C452.796 34.176 452.548 34.24 452.324 34.368C452.1 34.496 451.921 34.6827 451.788 34.928C451.655 35.1733 451.588 35.4613 451.588 35.792C451.588 36.128 451.655 36.4213 451.788 36.672C451.921 36.9173 452.1 37.1067 452.324 37.24C452.548 37.368 452.796 37.432 453.068 37.432C453.34 37.432 453.588 37.368 453.812 37.24C454.041 37.1067 454.223 36.9173 454.356 36.672C454.489 36.4213 454.556 36.1307 454.556 35.8ZM457.274 36.992L456.378 39.144H455.89L456.474 36.992H457.274ZM460.033 37.416C460.71 36.872 461.241 36.4267 461.625 36.08C462.009 35.728 462.332 35.3627 462.593 34.984C462.86 34.6 462.993 34.224 462.993 33.856C462.993 33.5093 462.908 33.2373 462.737 33.04C462.572 32.8373 462.302 32.736 461.929 32.736C461.566 32.736 461.284 32.8507 461.081 33.08C460.884 33.304 460.777 33.6053 460.761 33.984H460.057C460.078 33.3867 460.26 32.9253 460.601 32.6C460.942 32.2747 461.382 32.112 461.921 32.112C462.47 32.112 462.905 32.264 463.225 32.568C463.55 32.872 463.713 33.2907 463.713 33.824C463.713 34.2667 463.58 34.6987 463.313 35.12C463.052 35.536 462.753 35.904 462.417 36.224C462.081 36.5387 461.652 36.9067 461.129 37.328H463.881V37.936H460.033V37.416ZM468.283 32.784L466.059 38H465.323L467.579 32.856H464.491V32.232H468.283V32.784ZM468.914 36.712V36.16L471.722 32.272H472.594V36.08H473.394V36.712H472.594V38H471.874V36.712H468.914ZM471.906 33.032L469.754 36.08H471.906V33.032ZM474.993 36.992L474.097 39.144H473.609L474.193 36.992H474.993ZM477.752 37.416C478.429 36.872 478.96 36.4267 479.344 36.08C479.728 35.728 480.05 35.3627 480.312 34.984C480.578 34.6 480.712 34.224 480.712 33.856C480.712 33.5093 480.626 33.2373 480.456 33.04C480.29 32.8373 480.021 32.736 479.648 32.736C479.285 32.736 479.002 32.8507 478.8 33.08C478.602 33.304 478.496 33.6053 478.48 33.984H477.776C477.797 33.3867 477.978 32.9253 478.32 32.6C478.661 32.2747 479.101 32.112 479.64 32.112C480.189 32.112 480.624 32.264 480.944 32.568C481.269 32.872 481.432 33.2907 481.432 33.824C481.432 34.2667 481.298 34.6987 481.032 35.12C480.77 35.536 480.472 35.904 480.136 36.224C479.8 36.5387 479.37 36.9067 478.848 37.328H481.6V37.936H477.752V37.416ZM482.209 33.76C482.209 33.4827 482.268 33.2347 482.385 33.016C482.503 32.7973 482.663 32.6293 482.865 32.512C483.068 32.3893 483.295 32.328 483.545 32.328C483.796 32.328 484.009 32.3787 484.185 32.48C484.367 32.576 484.503 32.704 484.593 32.864V32.376H485.169V35.176H484.593V34.696C484.508 34.8507 484.375 34.9787 484.193 35.08C484.017 35.176 483.807 35.224 483.561 35.224C483.305 35.224 483.073 35.1627 482.865 35.04C482.663 34.912 482.503 34.7387 482.385 34.52C482.268 34.296 482.209 34.0427 482.209 33.76ZM482.809 33.768C482.809 34.072 482.895 34.3147 483.065 34.496C483.236 34.6773 483.447 34.768 483.697 34.768C483.953 34.768 484.167 34.68 484.337 34.504C484.508 34.3227 484.593 34.08 484.593 33.776C484.593 33.472 484.508 33.232 484.337 33.056C484.167 32.8747 483.953 32.784 483.697 32.784C483.447 32.784 483.236 32.872 483.065 33.048C482.895 33.224 482.809 33.464 482.809 33.768ZM488.024 35.792C488.024 35.344 488.114 34.952 488.296 34.616C488.477 34.2747 488.725 34.0107 489.04 33.824C489.36 33.6373 489.714 33.544 490.104 33.544C490.488 33.544 490.821 33.6267 491.104 33.792C491.386 33.9573 491.597 34.1653 491.736 34.416V33.616H492.472V38H491.736V37.184C491.592 37.44 491.376 37.6533 491.088 37.824C490.805 37.9893 490.474 38.072 490.096 38.072C489.706 38.072 489.354 37.976 489.04 37.784C488.725 37.592 488.477 37.3227 488.296 36.976C488.114 36.6293 488.024 36.2347 488.024 35.792ZM491.736 35.8C491.736 35.4693 491.669 35.1813 491.536 34.936C491.402 34.6907 491.221 34.504 490.992 34.376C490.768 34.2427 490.52 34.176 490.248 34.176C489.976 34.176 489.728 34.24 489.504 34.368C489.28 34.496 489.101 34.6827 488.968 34.928C488.834 35.1733 488.768 35.4613 488.768 35.792C488.768 36.128 488.834 36.4213 488.968 36.672C489.101 36.9173 489.28 37.1067 489.504 37.24C489.728 37.368 489.976 37.432 490.248 37.432C490.52 37.432 490.768 37.368 490.992 37.24C491.221 37.1067 491.402 36.9173 491.536 36.672C491.669 36.4213 491.736 36.1307 491.736 35.8ZM495.838 33.536C496.371 33.536 496.803 33.6987 497.134 34.024C497.465 34.344 497.63 34.808 497.63 35.416V38H496.91V35.52C496.91 35.0827 496.801 34.7493 496.582 34.52C496.363 34.2853 496.065 34.168 495.686 34.168C495.302 34.168 494.995 34.288 494.766 34.528C494.542 34.768 494.43 35.1173 494.43 35.576V38H493.702V33.616H494.43V34.24C494.574 34.016 494.769 33.8427 495.014 33.72C495.265 33.5973 495.539 33.536 495.838 33.536ZM498.547 35.792C498.547 35.344 498.638 34.952 498.819 34.616C499 34.2747 499.248 34.0107 499.563 33.824C499.883 33.6373 500.24 33.544 500.635 33.544C500.976 33.544 501.294 33.624 501.587 33.784C501.88 33.9387 502.104 34.144 502.259 34.4V32.08H502.995V38H502.259V37.176C502.115 37.4373 501.902 37.6533 501.619 37.824C501.336 37.9893 501.006 38.072 500.627 38.072C500.238 38.072 499.883 37.976 499.563 37.784C499.248 37.592 499 37.3227 498.819 36.976C498.638 36.6293 498.547 36.2347 498.547 35.792ZM502.259 35.8C502.259 35.4693 502.192 35.1813 502.059 34.936C501.926 34.6907 501.744 34.504 501.515 34.376C501.291 34.2427 501.043 34.176 500.771 34.176C500.499 34.176 500.251 34.24 500.027 34.368C499.803 34.496 499.624 34.6827 499.491 34.928C499.358 35.1733 499.291 35.4613 499.291 35.792C499.291 36.128 499.358 36.4213 499.491 36.672C499.624 36.9173 499.803 37.1067 500.027 37.24C500.251 37.368 500.499 37.432 500.771 37.432C501.043 37.432 501.291 37.368 501.515 37.24C501.744 37.1067 501.926 36.9173 502.059 36.672C502.192 36.4213 502.259 36.1307 502.259 35.8ZM503.953 35.792C503.953 35.344 504.044 34.952 504.225 34.616C504.407 34.2747 504.655 34.0107 504.969 33.824C505.289 33.6373 505.644 33.544 506.033 33.544C506.417 33.544 506.751 33.6267 507.033 33.792C507.316 33.9573 507.527 34.1653 507.665 34.416V33.616H508.401V38H507.665V37.184C507.521 37.44 507.305 37.6533 507.017 37.824C506.735 37.9893 506.404 38.072 506.025 38.072C505.636 38.072 505.284 37.976 504.969 37.784C504.655 37.592 504.407 37.3227 504.225 36.976C504.044 36.6293 503.953 36.2347 503.953 35.792ZM507.665 35.8C507.665 35.4693 507.599 35.1813 507.465 34.936C507.332 34.6907 507.151 34.504 506.921 34.376C506.697 34.2427 506.449 34.176 506.177 34.176C505.905 34.176 505.657 34.24 505.433 34.368C505.209 34.496 505.031 34.6827 504.897 34.928C504.764 35.1733 504.697 35.4613 504.697 35.792C504.697 36.128 504.764 36.4213 504.897 36.672C505.031 36.9173 505.209 37.1067 505.433 37.24C505.657 37.368 505.905 37.432 506.177 37.432C506.449 37.432 506.697 37.368 506.921 37.24C507.151 37.1067 507.332 36.9173 507.465 36.672C507.599 36.4213 507.665 36.1307 507.665 35.8ZM510.36 34.328C510.488 34.0773 510.669 33.8827 510.904 33.744C511.144 33.6053 511.434 33.536 511.776 33.536V34.288H511.584C510.768 34.288 510.36 34.7307 510.36 35.616V38H509.632V33.616H510.36V34.328ZM354.485 45.016V46.88H356.517V47.48H354.485V49.4H356.757V50H353.757V44.416H356.757V45.016H354.485ZM359.41 50.072C359.074 50.072 358.773 50.016 358.506 49.904C358.24 49.7867 358.029 49.6267 357.874 49.424C357.72 49.216 357.634 48.9787 357.618 48.712H358.37C358.392 48.9307 358.493 49.1093 358.674 49.248C358.861 49.3867 359.104 49.456 359.402 49.456C359.68 49.456 359.898 49.3947 360.058 49.272C360.218 49.1493 360.298 48.9947 360.298 48.808C360.298 48.616 360.213 48.4747 360.042 48.384C359.872 48.288 359.608 48.1947 359.25 48.104C358.925 48.0187 358.658 47.9333 358.45 47.848C358.248 47.7573 358.072 47.6267 357.922 47.456C357.778 47.28 357.706 47.0507 357.706 46.768C357.706 46.544 357.773 46.3387 357.906 46.152C358.04 45.9653 358.229 45.8187 358.474 45.712C358.72 45.6 359 45.544 359.314 45.544C359.8 45.544 360.192 45.6667 360.49 45.912C360.789 46.1573 360.949 46.4933 360.97 46.92H360.242C360.226 46.6907 360.133 46.5067 359.962 46.368C359.797 46.2293 359.573 46.16 359.29 46.16C359.029 46.16 358.821 46.216 358.666 46.328C358.512 46.44 358.434 46.5867 358.434 46.768C358.434 46.912 358.48 47.032 358.57 47.128C358.666 47.2187 358.784 47.2933 358.922 47.352C359.066 47.4053 359.264 47.4667 359.514 47.536C359.829 47.6213 360.085 47.7067 360.282 47.792C360.48 47.872 360.648 47.9947 360.786 48.16C360.93 48.3253 361.005 48.5413 361.01 48.808C361.01 49.048 360.944 49.264 360.81 49.456C360.677 49.648 360.488 49.8 360.242 49.912C360.002 50.0187 359.725 50.072 359.41 50.072ZM362.766 46.424C362.91 46.1733 363.123 45.9653 363.406 45.8C363.694 45.6293 364.027 45.544 364.406 45.544C364.795 45.544 365.147 45.6373 365.462 45.824C365.782 46.0107 366.033 46.2747 366.214 46.616C366.395 46.952 366.486 47.344 366.486 47.792C366.486 48.2347 366.395 48.6293 366.214 48.976C366.033 49.3227 365.782 49.592 365.462 49.784C365.147 49.976 364.795 50.072 364.406 50.072C364.033 50.072 363.702 49.9893 363.414 49.824C363.131 49.6533 362.915 49.4427 362.766 49.192V52.08H362.038V45.616H362.766V46.424ZM365.742 47.792C365.742 47.4613 365.675 47.1733 365.542 46.928C365.409 46.6827 365.227 46.496 364.998 46.368C364.774 46.24 364.526 46.176 364.254 46.176C363.987 46.176 363.739 46.2427 363.51 46.376C363.286 46.504 363.105 46.6933 362.966 46.944C362.833 47.1893 362.766 47.4747 362.766 47.8C362.766 48.1307 362.833 48.4213 362.966 48.672C363.105 48.9173 363.286 49.1067 363.51 49.24C363.739 49.368 363.987 49.432 364.254 49.432C364.526 49.432 364.774 49.368 364.998 49.24C365.227 49.1067 365.409 48.9173 365.542 48.672C365.675 48.4213 365.742 48.128 365.742 47.792ZM367.172 47.792C367.172 47.344 367.263 46.952 367.444 46.616C367.625 46.2747 367.873 46.0107 368.188 45.824C368.508 45.6373 368.863 45.544 369.252 45.544C369.636 45.544 369.969 45.6267 370.252 45.792C370.535 45.9573 370.745 46.1653 370.884 46.416V45.616H371.62V50H370.884V49.184C370.74 49.44 370.524 49.6533 370.236 49.824C369.953 49.9893 369.623 50.072 369.244 50.072C368.855 50.072 368.503 49.976 368.188 49.784C367.873 49.592 367.625 49.3227 367.444 48.976C367.263 48.6293 367.172 48.2347 367.172 47.792ZM370.884 47.8C370.884 47.4693 370.817 47.1813 370.684 46.936C370.551 46.6907 370.369 46.504 370.14 46.376C369.916 46.2427 369.668 46.176 369.396 46.176C369.124 46.176 368.876 46.24 368.652 46.368C368.428 46.496 368.249 46.6827 368.116 46.928C367.983 47.1733 367.916 47.4613 367.916 47.792C367.916 48.128 367.983 48.4213 368.116 48.672C368.249 48.9173 368.428 49.1067 368.652 49.24C368.876 49.368 369.124 49.432 369.396 49.432C369.668 49.432 369.916 49.368 370.14 49.24C370.369 49.1067 370.551 48.9173 370.684 48.672C370.817 48.4213 370.884 48.1307 370.884 47.8ZM374.714 49.456C375.034 49.456 375.301 49.3813 375.514 49.232C375.728 49.0827 375.874 48.8693 375.954 48.592H376.738C376.632 49.008 376.421 49.3493 376.106 49.616C375.797 49.8773 375.408 50.0267 374.938 50.064V50.464C375.253 50.4587 375.504 50.5253 375.69 50.664C375.877 50.8027 375.97 51 375.97 51.256C375.97 51.5067 375.88 51.7067 375.698 51.856C375.517 52.0053 375.282 52.08 374.994 52.08H374.074V51.608H374.85C375.026 51.608 375.154 51.5813 375.234 51.528C375.32 51.4747 375.362 51.384 375.362 51.256C375.362 51.1333 375.32 51.0453 375.234 50.992C375.154 50.9387 375.026 50.912 374.85 50.912H374.45V50.056C374.082 50.0187 373.757 49.904 373.474 49.712C373.192 49.5147 372.97 49.2533 372.81 48.928C372.656 48.5973 372.578 48.2213 372.578 47.8C372.578 47.3467 372.669 46.952 372.85 46.616C373.032 46.2747 373.282 46.0107 373.602 45.824C373.928 45.6373 374.298 45.544 374.714 45.544C375.253 45.544 375.696 45.6747 376.042 45.936C376.394 46.1973 376.626 46.56 376.738 47.024H375.954C375.88 46.7573 375.733 46.5467 375.514 46.392C375.301 46.2373 375.034 46.16 374.714 46.16C374.298 46.16 373.962 46.304 373.706 46.592C373.45 46.8747 373.322 47.2773 373.322 47.8C373.322 48.328 373.45 48.736 373.706 49.024C373.962 49.312 374.298 49.456 374.714 49.456ZM379.622 50.072C379.211 50.072 378.838 49.9787 378.502 49.792C378.171 49.6053 377.91 49.3413 377.718 49C377.531 48.6533 377.438 48.2533 377.438 47.8C377.438 47.352 377.534 46.9573 377.726 46.616C377.923 46.2693 378.19 46.0053 378.526 45.824C378.862 45.6373 379.238 45.544 379.654 45.544C380.07 45.544 380.446 45.6373 380.782 45.824C381.118 46.0053 381.382 46.2667 381.574 46.608C381.771 46.9493 381.87 47.3467 381.87 47.8C381.87 48.2533 381.768 48.6533 381.566 49C381.368 49.3413 381.099 49.6053 380.758 49.792C380.416 49.9787 380.038 50.072 379.622 50.072ZM379.622 49.432C379.883 49.432 380.128 49.3707 380.358 49.248C380.587 49.1253 380.771 48.9413 380.91 48.696C381.054 48.4507 381.126 48.152 381.126 47.8C381.126 47.448 381.056 47.1493 380.918 46.904C380.779 46.6587 380.598 46.4773 380.374 46.36C380.15 46.2373 379.907 46.176 379.646 46.176C379.379 46.176 379.134 46.2373 378.91 46.36C378.691 46.4773 378.515 46.6587 378.382 46.904C378.248 47.1493 378.182 47.448 378.182 47.8C378.182 48.1573 378.246 48.4587 378.374 48.704C378.507 48.9493 378.683 49.1333 378.902 49.256C379.12 49.3733 379.36 49.432 379.622 49.432ZM385.688 44.424V50H384.96V44.424H385.688ZM389.065 45.536C389.598 45.536 390.03 45.6987 390.361 46.024C390.691 46.344 390.857 46.808 390.857 47.416V50H390.137V47.52C390.137 47.0827 390.027 46.7493 389.809 46.52C389.59 46.2853 389.291 46.168 388.913 46.168C388.529 46.168 388.222 46.288 387.993 46.528C387.769 46.768 387.657 47.1173 387.657 47.576V50H386.929V45.616H387.657V46.24C387.801 46.016 387.995 45.8427 388.241 45.72C388.491 45.5973 388.766 45.536 389.065 45.536ZM393.958 50.072C393.547 50.072 393.174 49.9787 392.838 49.792C392.507 49.6053 392.246 49.3413 392.054 49C391.867 48.6533 391.774 48.2533 391.774 47.8C391.774 47.352 391.87 46.9573 392.062 46.616C392.259 46.2693 392.526 46.0053 392.862 45.824C393.198 45.6373 393.574 45.544 393.99 45.544C394.406 45.544 394.782 45.6373 395.118 45.824C395.454 46.0053 395.718 46.2667 395.91 46.608C396.107 46.9493 396.206 47.3467 396.206 47.8C396.206 48.2533 396.104 48.6533 395.902 49C395.704 49.3413 395.435 49.6053 395.094 49.792C394.752 49.9787 394.374 50.072 393.958 50.072ZM393.958 49.432C394.219 49.432 394.464 49.3707 394.694 49.248C394.923 49.1253 395.107 48.9413 395.246 48.696C395.39 48.4507 395.462 48.152 395.462 47.8C395.462 47.448 395.392 47.1493 395.254 46.904C395.115 46.6587 394.934 46.4773 394.71 46.36C394.486 46.2373 394.243 46.176 393.982 46.176C393.715 46.176 393.47 46.2373 393.246 46.36C393.027 46.4773 392.851 46.6587 392.718 46.904C392.584 47.1493 392.518 47.448 392.518 47.8C392.518 48.1573 392.582 48.4587 392.71 48.704C392.843 48.9493 393.019 49.1333 393.238 49.256C393.456 49.3733 393.696 49.432 393.958 49.432ZM398.795 49.328L400.155 45.616H400.931L399.211 50H398.363L396.643 45.616H397.427L398.795 49.328ZM401.375 47.792C401.375 47.344 401.466 46.952 401.647 46.616C401.829 46.2747 402.077 46.0107 402.391 45.824C402.711 45.6373 403.066 45.544 403.455 45.544C403.839 45.544 404.173 45.6267 404.455 45.792C404.738 45.9573 404.949 46.1653 405.087 46.416V45.616H405.823V50H405.087V49.184C404.943 49.44 404.727 49.6533 404.439 49.824C404.157 49.9893 403.826 50.072 403.447 50.072C403.058 50.072 402.706 49.976 402.391 49.784C402.077 49.592 401.829 49.3227 401.647 48.976C401.466 48.6293 401.375 48.2347 401.375 47.792ZM405.087 47.8C405.087 47.4693 405.021 47.1813 404.887 46.936C404.754 46.6907 404.573 46.504 404.343 46.376C404.119 46.2427 403.871 46.176 403.599 46.176C403.327 46.176 403.079 46.24 402.855 46.368C402.631 46.496 402.453 46.6827 402.319 46.928C402.186 47.1733 402.119 47.4613 402.119 47.792C402.119 48.128 402.186 48.4213 402.319 48.672C402.453 48.9173 402.631 49.1067 402.855 49.24C403.079 49.368 403.327 49.432 403.599 49.432C403.871 49.432 404.119 49.368 404.343 49.24C404.573 49.1067 404.754 48.9173 404.887 48.672C405.021 48.4213 405.087 48.1307 405.087 47.8ZM408.918 49.456C409.238 49.456 409.504 49.3813 409.718 49.232C409.931 49.0827 410.078 48.8693 410.158 48.592H410.942C410.835 49.008 410.624 49.3493 410.31 49.616C410 49.8773 409.611 50.0267 409.142 50.064V50.464C409.456 50.4587 409.707 50.5253 409.894 50.664C410.08 50.8027 410.174 51 410.174 51.256C410.174 51.5067 410.083 51.7067 409.902 51.856C409.72 52.0053 409.486 52.08 409.198 52.08H408.278V51.608H409.054C409.23 51.608 409.358 51.5813 409.438 51.528C409.523 51.4747 409.566 51.384 409.566 51.256C409.566 51.1333 409.523 51.0453 409.438 50.992C409.358 50.9387 409.23 50.912 409.054 50.912H408.654V50.056C408.286 50.0187 407.96 49.904 407.678 49.712C407.395 49.5147 407.174 49.2533 407.014 48.928C406.859 48.5973 406.782 48.2213 406.782 47.8C406.782 47.3467 406.872 46.952 407.054 46.616C407.235 46.2747 407.486 46.0107 407.806 45.824C408.131 45.6373 408.502 45.544 408.918 45.544C409.456 45.544 409.899 45.6747 410.246 45.936C410.598 46.1973 410.83 46.56 410.942 47.024H410.158C410.083 46.7573 409.936 46.5467 409.718 46.392C409.504 46.2373 409.238 46.16 408.918 46.16C408.502 46.16 408.166 46.304 407.91 46.592C407.654 46.8747 407.526 47.2773 407.526 47.8C407.526 48.328 407.654 48.736 407.91 49.024C408.166 49.312 408.502 49.456 408.918 49.456ZM411.641 47.792C411.641 47.344 411.732 46.952 411.913 46.616C412.094 46.2747 412.342 46.0107 412.657 45.824C412.977 45.6373 413.332 45.544 413.721 45.544C414.105 45.544 414.438 45.6267 414.721 45.792C415.004 45.9573 415.214 46.1653 415.353 46.416V45.616H416.089V50H415.353V49.184C415.209 49.44 414.993 49.6533 414.705 49.824C414.422 49.9893 414.092 50.072 413.713 50.072C413.324 50.072 412.972 49.976 412.657 49.784C412.342 49.592 412.094 49.3227 411.913 48.976C411.732 48.6293 411.641 48.2347 411.641 47.792ZM415.353 47.8C415.353 47.4693 415.286 47.1813 415.153 46.936C415.02 46.6907 414.838 46.504 414.609 46.376C414.385 46.2427 414.137 46.176 413.865 46.176C413.593 46.176 413.345 46.24 413.121 46.368C412.897 46.496 412.718 46.6827 412.585 46.928C412.452 47.1733 412.385 47.4613 412.385 47.792C412.385 48.128 412.452 48.4213 412.585 48.672C412.718 48.9173 412.897 49.1067 413.121 49.24C413.345 49.368 413.593 49.432 413.865 49.432C414.137 49.432 414.385 49.368 414.609 49.24C414.838 49.1067 415.02 48.9173 415.153 48.672C415.286 48.4213 415.353 48.1307 415.353 47.8ZM412.833 45.144C412.87 44.872 412.958 44.664 413.097 44.52C413.241 44.376 413.42 44.304 413.633 44.304C413.734 44.304 413.82 44.3227 413.889 44.36C413.964 44.392 414.052 44.44 414.153 44.504C414.228 44.5573 414.294 44.6 414.353 44.632C414.412 44.6587 414.476 44.672 414.545 44.672C414.636 44.672 414.713 44.6427 414.777 44.584C414.841 44.5253 414.881 44.44 414.897 44.328H415.313C415.281 44.5947 415.193 44.8 415.049 44.944C414.905 45.088 414.726 45.16 414.513 45.16C414.412 45.16 414.321 45.144 414.241 45.112C414.166 45.0747 414.081 45.0213 413.985 44.952C413.9 44.8987 413.83 44.8587 413.777 44.832C413.729 44.8053 413.67 44.792 413.601 44.792C413.51 44.792 413.433 44.8213 413.369 44.88C413.31 44.9387 413.273 45.0267 413.257 45.144H412.833ZM419.231 50.072C418.82 50.072 418.447 49.9787 418.111 49.792C417.78 49.6053 417.519 49.3413 417.327 49C417.14 48.6533 417.047 48.2533 417.047 47.8C417.047 47.352 417.143 46.9573 417.335 46.616C417.532 46.2693 417.799 46.0053 418.135 45.824C418.471 45.6373 418.847 45.544 419.263 45.544C419.679 45.544 420.055 45.6373 420.391 45.824C420.727 46.0053 420.991 46.2667 421.183 46.608C421.38 46.9493 421.479 47.3467 421.479 47.8C421.479 48.2533 421.378 48.6533 421.175 49C420.978 49.3413 420.708 49.6053 420.367 49.792C420.026 49.9787 419.647 50.072 419.231 50.072ZM419.231 49.432C419.492 49.432 419.738 49.3707 419.967 49.248C420.196 49.1253 420.38 48.9413 420.519 48.696C420.663 48.4507 420.735 48.152 420.735 47.8C420.735 47.448 420.666 47.1493 420.527 46.904C420.388 46.6587 420.207 46.4773 419.983 46.36C419.759 46.2373 419.516 46.176 419.255 46.176C418.988 46.176 418.743 46.2373 418.519 46.36C418.3 46.4773 418.124 46.6587 417.991 46.904C417.858 47.1493 417.791 47.448 417.791 47.8C417.791 48.1573 417.855 48.4587 417.983 48.704C418.116 48.9493 418.292 49.1333 418.511 49.256C418.73 49.3733 418.97 49.432 419.231 49.432ZM427.609 46.76V47.376H424.417V46.76H427.609ZM430.836 47.208C430.836 46.664 430.959 46.176 431.204 45.744C431.45 45.3067 431.783 44.9653 432.204 44.72C432.631 44.4747 433.103 44.352 433.62 44.352C434.228 44.352 434.759 44.4987 435.212 44.792C435.666 45.0853 435.996 45.5013 436.204 46.04H435.332C435.178 45.704 434.954 45.4453 434.66 45.264C434.372 45.0827 434.026 44.992 433.62 44.992C433.231 44.992 432.882 45.0827 432.572 45.264C432.263 45.4453 432.02 45.704 431.844 46.04C431.668 46.3707 431.58 46.76 431.58 47.208C431.58 47.6507 431.668 48.04 431.844 48.376C432.02 48.7067 432.263 48.9627 432.572 49.144C432.882 49.3253 433.231 49.416 433.62 49.416C434.026 49.416 434.372 49.328 434.66 49.152C434.954 48.9707 435.178 48.712 435.332 48.376H436.204C435.996 48.9093 435.666 49.3227 435.212 49.616C434.759 49.904 434.228 50.048 433.62 50.048C433.103 50.048 432.631 49.928 432.204 49.688C431.783 49.4427 431.45 49.104 431.204 48.672C430.959 48.24 430.836 47.752 430.836 47.208ZM441.288 47.64C441.288 47.7787 441.28 47.9253 441.264 48.08H437.76C437.787 48.512 437.933 48.8507 438.2 49.096C438.472 49.336 438.8 49.456 439.184 49.456C439.499 49.456 439.76 49.384 439.968 49.24C440.181 49.0907 440.331 48.8933 440.416 48.648H441.2C441.083 49.0693 440.848 49.4133 440.496 49.68C440.144 49.9413 439.707 50.072 439.184 50.072C438.768 50.072 438.395 49.9787 438.064 49.792C437.739 49.6053 437.483 49.3413 437.296 49C437.109 48.6533 437.016 48.2533 437.016 47.8C437.016 47.3467 437.107 46.9493 437.288 46.608C437.469 46.2667 437.723 46.0053 438.048 45.824C438.379 45.6373 438.757 45.544 439.184 45.544C439.6 45.544 439.968 45.6347 440.288 45.816C440.608 45.9973 440.853 46.248 441.024 46.568C441.2 46.8827 441.288 47.24 441.288 47.64ZM440.536 47.488C440.536 47.2107 440.475 46.9733 440.352 46.776C440.229 46.5733 440.061 46.4213 439.848 46.32C439.64 46.2133 439.408 46.16 439.152 46.16C438.784 46.16 438.469 46.2773 438.208 46.512C437.952 46.7467 437.805 47.072 437.768 47.488H440.536ZM444.385 45.536C444.918 45.536 445.35 45.6987 445.681 46.024C446.011 46.344 446.177 46.808 446.177 47.416V50H445.457V47.52C445.457 47.0827 445.347 46.7493 445.129 46.52C444.91 46.2853 444.611 46.168 444.233 46.168C443.849 46.168 443.542 46.288 443.313 46.528C443.089 46.768 442.977 47.1173 442.977 47.576V50H442.249V45.616H442.977V46.24C443.121 46.016 443.315 45.8427 443.561 45.72C443.811 45.5973 444.086 45.536 444.385 45.536ZM448.254 46.216V48.8C448.254 49.0133 448.299 49.1653 448.39 49.256C448.481 49.3413 448.638 49.384 448.862 49.384H449.398V50H448.742C448.337 50 448.033 49.9067 447.83 49.72C447.627 49.5333 447.526 49.2267 447.526 48.8V46.216H446.958V45.616H447.526V44.512H448.254V45.616H449.398V46.216H448.254ZM451.008 46.328C451.136 46.0773 451.317 45.8827 451.552 45.744C451.792 45.6053 452.083 45.536 452.424 45.536V46.288H452.232C451.416 46.288 451.008 46.7307 451.008 47.616V50H450.28V45.616H451.008V46.328ZM455.176 50.072C454.766 50.072 454.392 49.9787 454.056 49.792C453.726 49.6053 453.464 49.3413 453.272 49C453.086 48.6533 452.992 48.2533 452.992 47.8C452.992 47.352 453.088 46.9573 453.28 46.616C453.478 46.2693 453.744 46.0053 454.08 45.824C454.416 45.6373 454.792 45.544 455.208 45.544C455.624 45.544 456 45.6373 456.336 45.824C456.672 46.0053 456.936 46.2667 457.128 46.608C457.326 46.9493 457.424 47.3467 457.424 47.8C457.424 48.2533 457.323 48.6533 457.12 49C456.923 49.3413 456.654 49.6053 456.312 49.792C455.971 49.9787 455.592 50.072 455.176 50.072ZM455.176 49.432C455.438 49.432 455.683 49.3707 455.912 49.248C456.142 49.1253 456.326 48.9413 456.464 48.696C456.608 48.4507 456.68 48.152 456.68 47.8C456.68 47.448 456.611 47.1493 456.472 46.904C456.334 46.6587 456.152 46.4773 455.928 46.36C455.704 46.2373 455.462 46.176 455.2 46.176C454.934 46.176 454.688 46.2373 454.464 46.36C454.246 46.4773 454.07 46.6587 453.936 46.904C453.803 47.1493 453.736 47.448 453.736 47.8C453.736 48.1573 453.8 48.4587 453.928 48.704C454.062 48.9493 454.238 49.1333 454.456 49.256C454.675 49.3733 454.915 49.432 455.176 49.432ZM459.134 48.992L458.238 51.144H457.75L458.334 48.992H459.134ZM465.252 44.424V45.016H462.828V46.896H464.796V47.488H462.828V50H462.1V44.424H465.252ZM468.044 50.072C467.633 50.072 467.26 49.9787 466.924 49.792C466.593 49.6053 466.332 49.3413 466.14 49C465.953 48.6533 465.86 48.2533 465.86 47.8C465.86 47.352 465.956 46.9573 466.148 46.616C466.345 46.2693 466.612 46.0053 466.948 45.824C467.284 45.6373 467.66 45.544 468.076 45.544C468.492 45.544 468.868 45.6373 469.204 45.824C469.54 46.0053 469.804 46.2667 469.996 46.608C470.193 46.9493 470.292 47.3467 470.292 47.8C470.292 48.2533 470.19 48.6533 469.988 49C469.79 49.3413 469.521 49.6053 469.18 49.792C468.838 49.9787 468.46 50.072 468.044 50.072ZM468.044 49.432C468.305 49.432 468.55 49.3707 468.78 49.248C469.009 49.1253 469.193 48.9413 469.332 48.696C469.476 48.4507 469.548 48.152 469.548 47.8C469.548 47.448 469.478 47.1493 469.34 46.904C469.201 46.6587 469.02 46.4773 468.796 46.36C468.572 46.2373 468.329 46.176 468.068 46.176C467.801 46.176 467.556 46.2373 467.332 46.36C467.113 46.4773 466.937 46.6587 466.804 46.904C466.67 47.1493 466.604 47.448 466.604 47.8C466.604 48.1573 466.668 48.4587 466.796 48.704C466.929 48.9493 467.105 49.1333 467.324 49.256C467.542 49.3733 467.782 49.432 468.044 49.432ZM471.977 46.328C472.105 46.0773 472.286 45.8827 472.521 45.744C472.761 45.6053 473.051 45.536 473.393 45.536V46.288H473.201C472.385 46.288 471.977 46.7307 471.977 47.616V50H471.249V45.616H471.977V46.328ZM475.121 46.216V48.8C475.121 49.0133 475.167 49.1653 475.257 49.256C475.348 49.3413 475.505 49.384 475.729 49.384H476.265V50H475.609C475.204 50 474.9 49.9067 474.697 49.72C474.495 49.5333 474.393 49.2267 474.393 48.8V46.216H473.825V45.616H474.393V44.512H475.121V45.616H476.265V46.216H475.121ZM476.875 47.792C476.875 47.344 476.966 46.952 477.147 46.616C477.329 46.2747 477.577 46.0107 477.891 45.824C478.211 45.6373 478.566 45.544 478.955 45.544C479.339 45.544 479.673 45.6267 479.955 45.792C480.238 45.9573 480.449 46.1653 480.587 46.416V45.616H481.323V50H480.587V49.184C480.443 49.44 480.227 49.6533 479.939 49.824C479.657 49.9893 479.326 50.072 478.947 50.072C478.558 50.072 478.206 49.976 477.891 49.784C477.577 49.592 477.329 49.3227 477.147 48.976C476.966 48.6293 476.875 48.2347 476.875 47.792ZM480.587 47.8C480.587 47.4693 480.521 47.1813 480.387 46.936C480.254 46.6907 480.073 46.504 479.843 46.376C479.619 46.2427 479.371 46.176 479.099 46.176C478.827 46.176 478.579 46.24 478.355 46.368C478.131 46.496 477.953 46.6827 477.819 46.928C477.686 47.1733 477.619 47.4613 477.619 47.792C477.619 48.128 477.686 48.4213 477.819 48.672C477.953 48.9173 478.131 49.1067 478.355 49.24C478.579 49.368 478.827 49.432 479.099 49.432C479.371 49.432 479.619 49.368 479.843 49.24C480.073 49.1067 480.254 48.9173 480.387 48.672C480.521 48.4213 480.587 48.1307 480.587 47.8ZM483.282 44.08V50H482.554V44.08H483.282ZM488.522 47.64C488.522 47.7787 488.514 47.9253 488.498 48.08H484.994C485.021 48.512 485.168 48.8507 485.434 49.096C485.706 49.336 486.034 49.456 486.418 49.456C486.733 49.456 486.994 49.384 487.202 49.24C487.416 49.0907 487.565 48.8933 487.65 48.648H488.434C488.317 49.0693 488.082 49.4133 487.73 49.68C487.378 49.9413 486.941 50.072 486.418 50.072C486.002 50.072 485.629 49.9787 485.298 49.792C484.973 49.6053 484.717 49.3413 484.53 49C484.344 48.6533 484.25 48.2533 484.25 47.8C484.25 47.3467 484.341 46.9493 484.522 46.608C484.704 46.2667 484.957 46.0053 485.282 45.824C485.613 45.6373 485.992 45.544 486.418 45.544C486.834 45.544 487.202 45.6347 487.522 45.816C487.842 45.9973 488.088 46.248 488.258 46.568C488.434 46.8827 488.522 47.24 488.522 47.64ZM487.77 47.488C487.77 47.2107 487.709 46.9733 487.586 46.776C487.464 46.5733 487.296 46.4213 487.082 46.32C486.874 46.2133 486.642 46.16 486.386 46.16C486.018 46.16 485.704 46.2773 485.442 46.512C485.186 46.7467 485.04 47.072 485.002 47.488H487.77ZM490.027 49.4H492.179V50H489.195V49.4L491.323 46.208H489.211V45.616H492.163V46.208L490.027 49.4ZM492.852 47.792C492.852 47.344 492.942 46.952 493.124 46.616C493.305 46.2747 493.553 46.0107 493.868 45.824C494.188 45.6373 494.542 45.544 494.932 45.544C495.316 45.544 495.649 45.6267 495.932 45.792C496.214 45.9573 496.425 46.1653 496.564 46.416V45.616H497.3V50H496.564V49.184C496.42 49.44 496.204 49.6533 495.916 49.824C495.633 49.9893 495.302 50.072 494.924 50.072C494.534 50.072 494.182 49.976 493.868 49.784C493.553 49.592 493.305 49.3227 493.124 48.976C492.942 48.6293 492.852 48.2347 492.852 47.792ZM496.564 47.8C496.564 47.4693 496.497 47.1813 496.364 46.936C496.23 46.6907 496.049 46.504 495.82 46.376C495.596 46.2427 495.348 46.176 495.076 46.176C494.804 46.176 494.556 46.24 494.332 46.368C494.108 46.496 493.929 46.6827 493.796 46.928C493.662 47.1733 493.596 47.4613 493.596 47.792C493.596 48.128 493.662 48.4213 493.796 48.672C493.929 48.9173 494.108 49.1067 494.332 49.24C494.556 49.368 494.804 49.432 495.076 49.432C495.348 49.432 495.596 49.368 495.82 49.24C496.049 49.1067 496.23 48.9173 496.364 48.672C496.497 48.4213 496.564 48.1307 496.564 47.8ZM501.25 42.464L499.058 51.36H498.338L500.522 42.464H501.25ZM502.063 47.208C502.063 46.664 502.185 46.176 502.431 45.744C502.676 45.3067 503.009 44.9653 503.431 44.72C503.857 44.4747 504.329 44.352 504.847 44.352C505.455 44.352 505.985 44.4987 506.439 44.792C506.892 45.0853 507.223 45.5013 507.431 46.04H506.559C506.404 45.704 506.18 45.4453 505.887 45.264C505.599 45.0827 505.252 44.992 504.847 44.992C504.457 44.992 504.108 45.0827 503.799 45.264C503.489 45.4453 503.247 45.704 503.071 46.04C502.895 46.3707 502.807 46.76 502.807 47.208C502.807 47.6507 502.895 48.04 503.071 48.376C503.247 48.7067 503.489 48.9627 503.799 49.144C504.108 49.3253 504.457 49.416 504.847 49.416C505.252 49.416 505.599 49.328 505.887 49.152C506.18 48.9707 506.404 48.712 506.559 48.376H507.431C507.223 48.9093 506.892 49.3227 506.439 49.616C505.985 49.904 505.455 50.048 504.847 50.048C504.329 50.048 503.857 49.928 503.431 49.688C503.009 49.4427 502.676 49.104 502.431 48.672C502.185 48.24 502.063 47.752 502.063 47.208ZM509.242 45.016V46.88H511.274V47.48H509.242V49.4H511.514V50H508.514V44.416H511.514V45.016H509.242ZM447.946 59.208C447.946 58.664 448.068 58.176 448.314 57.744C448.559 57.3067 448.892 56.9653 449.314 56.72C449.74 56.4747 450.212 56.352 450.73 56.352C451.338 56.352 451.868 56.4987 452.322 56.792C452.775 57.0853 453.106 57.5013 453.314 58.04H452.442C452.287 57.704 452.063 57.4453 451.77 57.264C451.482 57.0827 451.135 56.992 450.73 56.992C450.34 56.992 449.991 57.0827 449.682 57.264C449.372 57.4453 449.13 57.704 448.954 58.04C448.778 58.3707 448.69 58.76 448.69 59.208C448.69 59.6507 448.778 60.04 448.954 60.376C449.13 60.7067 449.372 60.9627 449.682 61.144C449.991 61.3253 450.34 61.416 450.73 61.416C451.135 61.416 451.482 61.328 451.77 61.152C452.063 60.9707 452.287 60.712 452.442 60.376H453.314C453.106 60.9093 452.775 61.3227 452.322 61.616C451.868 61.904 451.338 62.048 450.73 62.048C450.212 62.048 449.74 61.928 449.314 61.688C448.892 61.4427 448.559 61.104 448.314 60.672C448.068 60.24 447.946 59.752 447.946 59.208ZM455.125 57.016V58.88H457.157V59.48H455.125V61.4H457.397V62H454.397V56.416H457.397V57.016H455.125ZM462.227 58.056C462.227 58.52 462.067 58.9067 461.747 59.216C461.432 59.52 460.949 59.672 460.299 59.672H459.227V62H458.499V56.424H460.299C460.928 56.424 461.405 56.576 461.731 56.88C462.061 57.184 462.227 57.576 462.227 58.056ZM460.299 59.072C460.704 59.072 461.003 58.984 461.195 58.808C461.387 58.632 461.483 58.3813 461.483 58.056C461.483 57.368 461.088 57.024 460.299 57.024H459.227V59.072H460.299ZM463.364 62.048C463.225 62.048 463.108 62 463.012 61.904C462.916 61.808 462.868 61.6907 462.868 61.552C462.868 61.4133 462.916 61.296 463.012 61.2C463.108 61.104 463.225 61.056 463.364 61.056C463.497 61.056 463.609 61.104 463.7 61.2C463.796 61.296 463.844 61.4133 463.844 61.552C463.844 61.6907 463.796 61.808 463.7 61.904C463.609 62 463.497 62.048 463.364 62.048ZM465.043 62.048C464.905 62.048 464.787 62 464.691 61.904C464.595 61.808 464.547 61.6907 464.547 61.552C464.547 61.4133 464.595 61.296 464.691 61.2C464.787 61.104 464.905 61.056 465.043 61.056C465.177 61.056 465.289 61.104 465.379 61.2C465.475 61.296 465.523 61.4133 465.523 61.552C465.523 61.6907 465.475 61.808 465.379 61.904C465.289 62 465.177 62.048 465.043 62.048ZM465.043 58.624C464.905 58.624 464.787 58.576 464.691 58.48C464.595 58.384 464.547 58.2667 464.547 58.128C464.547 57.9893 464.595 57.872 464.691 57.776C464.787 57.68 464.905 57.632 465.043 57.632C465.177 57.632 465.289 57.68 465.379 57.776C465.475 57.872 465.523 57.9893 465.523 58.128C465.523 58.2667 465.475 58.384 465.379 58.48C465.289 58.576 465.177 58.624 465.043 58.624ZM471.751 57.592C471.634 57 471.269 56.704 470.655 56.704C470.181 56.704 469.826 56.888 469.591 57.256C469.357 57.6187 469.242 58.2187 469.247 59.056C469.37 58.7787 469.573 58.5627 469.855 58.408C470.143 58.248 470.463 58.168 470.815 58.168C471.365 58.168 471.802 58.3387 472.127 58.68C472.458 59.0213 472.623 59.4933 472.623 60.096C472.623 60.4587 472.551 60.784 472.407 61.072C472.269 61.36 472.055 61.5893 471.767 61.76C471.485 61.9307 471.141 62.016 470.735 62.016C470.186 62.016 469.757 61.8933 469.447 61.648C469.138 61.4027 468.922 61.064 468.799 60.632C468.677 60.2 468.615 59.6667 468.615 59.032C468.615 57.0747 469.298 56.096 470.663 56.096C471.186 56.096 471.597 56.2373 471.895 56.52C472.194 56.8027 472.37 57.16 472.423 57.592H471.751ZM470.663 58.784C470.434 58.784 470.218 58.832 470.015 58.928C469.813 59.0187 469.647 59.16 469.519 59.352C469.397 59.5387 469.335 59.768 469.335 60.04C469.335 60.4453 469.453 60.776 469.687 61.032C469.922 61.2827 470.258 61.408 470.695 61.408C471.069 61.408 471.365 61.2933 471.583 61.064C471.807 60.8293 471.919 60.5147 471.919 60.12C471.919 59.704 471.813 59.3787 471.599 59.144C471.386 58.904 471.074 58.784 470.663 58.784ZM473.605 59.048C473.605 58.1307 473.755 57.416 474.053 56.904C474.352 56.3867 474.875 56.128 475.621 56.128C476.363 56.128 476.883 56.3867 477.181 56.904C477.48 57.416 477.629 58.1307 477.629 59.048C477.629 59.9813 477.48 60.7067 477.181 61.224C476.883 61.7413 476.363 62 475.621 62C474.875 62 474.352 61.7413 474.053 61.224C473.755 60.7067 473.605 59.9813 473.605 59.048ZM476.909 59.048C476.909 58.584 476.877 58.192 476.813 57.872C476.755 57.5467 476.629 57.2853 476.437 57.088C476.251 56.8907 475.979 56.792 475.621 56.792C475.259 56.792 474.981 56.8907 474.789 57.088C474.603 57.2853 474.477 57.5467 474.413 57.872C474.355 58.192 474.325 58.584 474.325 59.048C474.325 59.528 474.355 59.9307 474.413 60.256C474.477 60.5813 474.603 60.8427 474.789 61.04C474.981 61.2373 475.259 61.336 475.621 61.336C475.979 61.336 476.251 61.2373 476.437 61.04C476.629 60.8427 476.755 60.5813 476.813 60.256C476.877 59.9307 476.909 59.528 476.909 59.048ZM478.981 62.048C478.842 62.048 478.725 62 478.629 61.904C478.533 61.808 478.485 61.6907 478.485 61.552C478.485 61.4133 478.533 61.296 478.629 61.2C478.725 61.104 478.842 61.056 478.981 61.056C479.114 61.056 479.226 61.104 479.317 61.2C479.413 61.296 479.461 61.4133 479.461 61.552C479.461 61.6907 479.413 61.808 479.317 61.904C479.226 62 479.114 62.048 478.981 62.048ZM480.309 59.048C480.309 58.1307 480.458 57.416 480.757 56.904C481.055 56.3867 481.578 56.128 482.325 56.128C483.066 56.128 483.586 56.3867 483.885 56.904C484.183 57.416 484.332 58.1307 484.332 59.048C484.332 59.9813 484.183 60.7067 483.885 61.224C483.586 61.7413 483.066 62 482.325 62C481.578 62 481.055 61.7413 480.757 61.224C480.458 60.7067 480.309 59.9813 480.309 59.048ZM483.613 59.048C483.613 58.584 483.581 58.192 483.517 57.872C483.458 57.5467 483.333 57.2853 483.141 57.088C482.954 56.8907 482.682 56.792 482.325 56.792C481.962 56.792 481.685 56.8907 481.493 57.088C481.306 57.2853 481.181 57.5467 481.117 57.872C481.058 58.192 481.029 58.584 481.029 59.048C481.029 59.528 481.058 59.9307 481.117 60.256C481.181 60.5813 481.306 60.8427 481.493 61.04C481.685 61.2373 481.962 61.336 482.325 61.336C482.682 61.336 482.954 61.2373 483.141 61.04C483.333 60.8427 483.458 60.5813 483.517 60.256C483.581 59.9307 483.613 59.528 483.613 59.048ZM488.556 57.592C488.439 57 488.073 56.704 487.46 56.704C486.985 56.704 486.631 56.888 486.396 57.256C486.161 57.6187 486.047 58.2187 486.052 59.056C486.175 58.7787 486.377 58.5627 486.66 58.408C486.948 58.248 487.268 58.168 487.62 58.168C488.169 58.168 488.607 58.3387 488.932 58.68C489.263 59.0213 489.428 59.4933 489.428 60.096C489.428 60.4587 489.356 60.784 489.212 61.072C489.073 61.36 488.86 61.5893 488.572 61.76C488.289 61.9307 487.945 62.016 487.54 62.016C486.991 62.016 486.561 61.8933 486.252 61.648C485.943 61.4027 485.727 61.064 485.604 60.632C485.481 60.2 485.42 59.6667 485.42 59.032C485.42 57.0747 486.103 56.096 487.468 56.096C487.991 56.096 488.401 56.2373 488.7 56.52C488.999 56.8027 489.175 57.16 489.228 57.592H488.556ZM487.468 58.784C487.239 58.784 487.023 58.832 486.82 58.928C486.617 59.0187 486.452 59.16 486.324 59.352C486.201 59.5387 486.14 59.768 486.14 60.04C486.14 60.4453 486.257 60.776 486.492 61.032C486.727 61.2827 487.063 61.408 487.5 61.408C487.873 61.408 488.169 61.2933 488.388 61.064C488.612 60.8293 488.724 60.5147 488.724 60.12C488.724 59.704 488.617 59.3787 488.404 59.144C488.191 58.904 487.879 58.784 487.468 58.784ZM490.41 59.048C490.41 58.1307 490.559 57.416 490.858 56.904C491.157 56.3867 491.679 56.128 492.426 56.128C493.167 56.128 493.687 56.3867 493.986 56.904C494.285 57.416 494.434 58.1307 494.434 59.048C494.434 59.9813 494.285 60.7067 493.986 61.224C493.687 61.7413 493.167 62 492.426 62C491.679 62 491.157 61.7413 490.858 61.224C490.559 60.7067 490.41 59.9813 490.41 59.048ZM493.714 59.048C493.714 58.584 493.682 58.192 493.618 57.872C493.559 57.5467 493.434 57.2853 493.242 57.088C493.055 56.8907 492.783 56.792 492.426 56.792C492.063 56.792 491.786 56.8907 491.594 57.088C491.407 57.2853 491.282 57.5467 491.218 57.872C491.159 58.192 491.13 58.584 491.13 59.048C491.13 59.528 491.159 59.9307 491.218 60.256C491.282 60.5813 491.407 60.8427 491.594 61.04C491.786 61.2373 492.063 61.336 492.426 61.336C492.783 61.336 493.055 61.2373 493.242 61.04C493.434 60.8427 493.559 60.5813 493.618 60.256C493.682 59.9307 493.714 59.528 493.714 59.048ZM498.594 58.76V59.376H495.402V58.76H498.594ZM499.648 56.88V56.216H501.152V62H500.416V56.88H499.648ZM503.458 58.992C503.16 58.8747 502.93 58.704 502.77 58.48C502.61 58.256 502.53 57.984 502.53 57.664C502.53 57.376 502.602 57.1173 502.746 56.888C502.89 56.6533 503.104 56.4693 503.386 56.336C503.674 56.1973 504.021 56.128 504.426 56.128C504.832 56.128 505.176 56.1973 505.458 56.336C505.746 56.4693 505.962 56.6533 506.106 56.888C506.256 57.1173 506.33 57.376 506.33 57.664C506.33 57.9733 506.248 58.2453 506.082 58.48C505.917 58.7093 505.69 58.88 505.402 58.992C505.733 59.0933 505.994 59.272 506.186 59.528C506.384 59.7787 506.482 60.0827 506.482 60.44C506.482 60.7867 506.397 61.0907 506.226 61.352C506.056 61.608 505.813 61.808 505.498 61.952C505.189 62.0907 504.832 62.16 504.426 62.16C504.021 62.16 503.664 62.0907 503.354 61.952C503.05 61.808 502.813 61.608 502.642 61.352C502.472 61.0907 502.386 60.7867 502.386 60.44C502.386 60.0827 502.482 59.776 502.674 59.52C502.866 59.264 503.128 59.088 503.458 58.992ZM505.626 57.752C505.626 57.4267 505.52 57.176 505.306 57C505.093 56.824 504.8 56.736 504.426 56.736C504.058 56.736 503.768 56.824 503.554 57C503.341 57.176 503.234 57.4293 503.234 57.76C503.234 58.0587 503.344 58.2987 503.562 58.48C503.786 58.6613 504.074 58.752 504.426 58.752C504.784 58.752 505.072 58.6613 505.29 58.48C505.514 58.2933 505.626 58.0507 505.626 57.752ZM504.426 59.312C504.032 59.312 503.709 59.4053 503.458 59.592C503.208 59.7733 503.082 60.048 503.082 60.416C503.082 60.7573 503.202 61.032 503.442 61.24C503.688 61.448 504.016 61.552 504.426 61.552C504.837 61.552 505.162 61.448 505.402 61.24C505.642 61.032 505.762 60.7573 505.762 60.416C505.762 60.0587 505.64 59.7867 505.394 59.6C505.149 59.408 504.826 59.312 504.426 59.312ZM508.505 58.992C508.206 58.8747 507.977 58.704 507.817 58.48C507.657 58.256 507.577 57.984 507.577 57.664C507.577 57.376 507.649 57.1173 507.793 56.888C507.937 56.6533 508.15 56.4693 508.433 56.336C508.721 56.1973 509.068 56.128 509.473 56.128C509.878 56.128 510.222 56.1973 510.505 56.336C510.793 56.4693 511.009 56.6533 511.153 56.888C511.302 57.1173 511.377 57.376 511.377 57.664C511.377 57.9733 511.294 58.2453 511.129 58.48C510.964 58.7093 510.737 58.88 510.449 58.992C510.78 59.0933 511.041 59.272 511.233 59.528C511.43 59.7787 511.529 60.0827 511.529 60.44C511.529 60.7867 511.444 61.0907 511.273 61.352C511.102 61.608 510.86 61.808 510.545 61.952C510.236 62.0907 509.878 62.16 509.473 62.16C509.068 62.16 508.71 62.0907 508.401 61.952C508.097 61.808 507.86 61.608 507.689 61.352C507.518 61.0907 507.433 60.7867 507.433 60.44C507.433 60.0827 507.529 59.776 507.721 59.52C507.913 59.264 508.174 59.088 508.505 58.992ZM510.673 57.752C510.673 57.4267 510.566 57.176 510.353 57C510.14 56.824 509.846 56.736 509.473 56.736C509.105 56.736 508.814 56.824 508.601 57C508.388 57.176 508.281 57.4293 508.281 57.76C508.281 58.0587 508.39 58.2987 508.609 58.48C508.833 58.6613 509.121 58.752 509.473 58.752C509.83 58.752 510.118 58.6613 510.337 58.48C510.561 58.2933 510.673 58.0507 510.673 57.752ZM509.473 59.312C509.078 59.312 508.756 59.4053 508.505 59.592C508.254 59.7733 508.129 60.048 508.129 60.416C508.129 60.7573 508.249 61.032 508.489 61.24C508.734 61.448 509.062 61.552 509.473 61.552C509.884 61.552 510.209 61.448 510.449 61.24C510.689 61.032 510.809 60.7573 510.809 60.416C510.809 60.0587 510.686 59.7867 510.441 59.6C510.196 59.408 509.873 59.312 509.473 59.312Z" fill="#003333"/>
<path d="M536.107 36.5C533.894 36.5025 531.772 37.3828 530.207 38.9478C528.642 40.5128 527.762 42.6346 527.759 44.8478C527.759 51.9909 535.348 57.3885 535.671 57.6162C535.8 57.7023 535.952 57.7482 536.107 57.7482C536.262 57.7482 536.414 57.7023 536.543 57.6162C536.866 57.3885 544.455 51.9909 544.455 44.8478C544.452 42.6346 543.572 40.5128 542.007 38.9478C540.442 37.3828 538.32 36.5025 536.107 36.5V36.5ZM536.107 41.8123C536.707 41.8123 537.294 41.9903 537.794 42.3238C538.293 42.6574 538.682 43.1315 538.912 43.6862C539.141 44.2408 539.201 44.8512 539.084 45.44C538.967 46.0289 538.678 46.5698 538.254 46.9943C537.829 47.4188 537.288 47.7079 536.699 47.8251C536.11 47.9422 535.5 47.8821 534.945 47.6523C534.391 47.4226 533.917 47.0335 533.583 46.5343C533.25 46.0351 533.072 45.4482 533.072 44.8478C533.072 44.0427 533.391 43.2706 533.961 42.7014C534.53 42.1321 535.302 41.8123 536.107 41.8123V41.8123Z" fill="#E97222"/>
<path d="M51.2193 64.9828C51.2193 65.6498 51.1476 66.2998 51.0114 66.9257C50.7304 68.2272 50.171 69.4249 49.3991 70.4577V70.459L47.4268 72.4085C47.4255 72.4085 47.4255 72.4091 47.4248 72.4091C47.411 72.4202 47.3959 72.4307 47.382 72.4404L47.3873 72.447L46.3232 73.4987L45.9981 73.8188L41.8844 77.8854L40.8249 78.9312L36.4993 83.2064L32.6377 79.4091L37.1311 74.967L38.1906 73.9199L38.5414 73.573L42.6287 69.5344L42.7419 69.4223L43.6928 68.4821L48.2573 63.9708L50.5948 61.6608C50.9989 62.6909 51.2193 63.8111 51.2193 64.9828Z" fill="#E97222"/>
<path d="M40.6118 55.764L40.5032 55.8716L36.0474 60.2753L34.8496 58.9908L24.061 47.4111V38L40.6118 55.764Z" fill="#003333"/>
<path d="M60.5137 45.9702C60.5137 48.3148 59.6299 50.4553 58.1729 52.0821L58.1723 52.0827L57.3668 52.8788L57.3642 52.8815L52.8984 57.2949L49.9028 60.2544L47.2442 62.882L42.6797 67.3932L42.3303 67.7381L41.6156 68.4449L37.1768 72.8316L37.1255 72.8825L36.118 73.8788L35.6981 74.2928C35.6356 74.3384 35.5796 74.3926 35.5336 74.4558L31.5778 78.3659L25.7012 72.5858L30.4973 67.8464L31.5568 66.7992L32.6453 65.7234L35.9942 62.4125L37.0584 61.3608L41.6241 56.8496L42.6883 55.7972L45.3739 53.1442L58.4678 40.2031C59.7484 41.7816 60.5137 43.7879 60.5137 45.9702Z" fill="#003333"/>
<path d="M34.9832 61.3276L32.726 63.5588L30.5445 65.713L24.061 58.7548V49.6045L33.9514 60.2205L34.9832 61.3276Z" fill="#003333"/>
<path d="M29.4863 66.7601L24.6434 71.5459L24.061 70.9728V60.9384L29.4863 66.7601Z" fill="#003333"/>
<path d="M60.8381 66.4126C60.8381 69.2489 56.6132 72.938 56.6132 72.938L54.3132 75.2109L52.0481 77.4492L50.984 78.5009L46.5465 82.8876L45.487 83.9348L41.3733 88L37.5591 84.2497L41.7682 80.0899C41.78 80.0788 41.7925 80.0664 41.8037 80.0546L41.8393 80.0194L42.8988 78.9723L47.3013 74.6214C47.3421 74.643 47.3836 74.6632 47.4257 74.6827L47.3369 74.5875L48.401 73.5352L52.9655 69.0239L59.8306 62.2391C60.4755 63.4916 60.8381 64.9104 60.8381 66.4126Z" fill="#003333"/>
<path d="M69.1648 58.1745C69.8775 56.9369 70.8514 55.972 72.0853 55.2808C73.3192 54.5897 74.7032 54.2441 76.2365 54.2441C78.0305 54.2441 79.602 54.6999 80.951 55.6114C82.3001 56.5229 83.2431 57.7839 83.7795 59.3937H80.0764C79.7086 58.6341 79.1913 58.0649 78.524 57.6848C77.8574 57.3053 77.0868 57.1149 76.2128 57.1149C75.2777 57.1149 74.4459 57.3314 73.7174 57.7643C72.9889 58.1973 72.4216 58.8089 72.0156 59.5984C71.6089 60.3887 71.4062 61.3152 71.4062 62.3786C71.4062 63.427 71.6089 64.3496 72.0156 65.147C72.4216 65.9445 72.9889 66.56 73.7174 66.9929C74.4452 67.4258 75.277 67.6423 76.2128 67.6423C77.0868 67.6423 77.8574 67.4486 78.524 67.0613C79.1913 66.6741 79.7086 66.1009 80.0764 65.3407H83.7795C83.2425 66.9662 82.3034 68.231 80.9622 69.1347C79.6204 70.0384 78.0449 70.4903 76.2359 70.4903C74.7025 70.4903 73.3186 70.1447 72.0847 69.4536C70.8501 68.7624 69.8768 67.8014 69.1641 66.571C68.4514 65.3407 68.0947 63.9434 68.0947 62.3786C68.0954 60.8144 68.4514 59.4133 69.1648 58.1745Z" fill="#003333"/>
<path d="M97.6777 64.9991H88.3632C88.4396 65.9106 88.762 66.6246 89.3293 67.1409C89.8966 67.6573 90.5941 67.9155 91.422 67.9155C92.6177 67.9155 93.4686 67.407 93.9747 66.3892H97.4474C97.0795 67.6045 96.3741 68.6034 95.3317 69.3858C94.2886 70.1682 93.0086 70.5594 91.4911 70.5594C90.2644 70.5594 89.1641 70.2901 88.1908 69.7503C87.2169 69.2111 86.4581 68.4482 85.9138 67.4604C85.3696 66.4733 85.0972 65.3342 85.0972 64.0426C85.0972 62.7366 85.365 61.5897 85.902 60.6019C86.4383 59.6148 87.1899 58.8552 88.1559 58.3232C89.122 57.7918 90.2335 57.5258 91.4904 57.5258C92.7013 57.5258 93.7865 57.784 94.7447 58.3003C95.7028 58.8167 96.4465 59.5502 96.9756 60.4989C97.5047 61.4482 97.7692 62.5384 97.7692 63.7687C97.7699 64.2245 97.7389 64.6346 97.6777 64.9991ZM94.4347 62.8572C94.4196 62.037 94.1201 61.3798 93.5377 60.8862C92.9547 60.3926 92.242 60.1455 91.399 60.1455C90.6014 60.1455 89.9308 60.3848 89.3865 60.8634C88.8423 61.342 88.5087 62.0064 88.3863 62.8572H94.4347Z" fill="#003333"/>
<path d="M99.7628 60.6012C100.276 59.6141 100.974 58.8545 101.856 58.3224C102.737 57.791 103.722 57.525 104.811 57.525C105.761 57.525 106.593 57.7154 107.306 58.0949C108.019 58.475 108.59 58.9536 109.019 59.5306V57.7304H112.262V70.354H109.019V68.5081C108.605 69.1008 108.034 69.5905 107.306 69.9778C106.578 70.3651 105.738 70.5587 104.788 70.5587C103.715 70.5587 102.737 70.2855 101.856 69.7385C100.974 69.1914 100.276 68.4208 99.7628 67.4258C99.2488 66.4308 98.9922 65.2879 98.9922 63.9962C98.9928 62.7202 99.2488 61.589 99.7628 60.6012ZM108.56 62.048C108.253 61.4938 107.839 61.068 107.318 60.772C106.797 60.476 106.237 60.328 105.639 60.328C105.041 60.328 104.49 60.4728 103.984 60.7609C103.478 61.0498 103.068 61.471 102.753 62.0258C102.439 62.5807 102.282 63.2373 102.282 63.9969C102.282 64.7565 102.439 65.4209 102.753 65.9907C103.067 66.5606 103.481 66.9974 103.995 67.3006C104.508 67.6044 105.056 67.7564 105.639 67.7564C106.238 67.7564 106.797 67.6084 107.318 67.3123C107.839 67.0163 108.253 66.5912 108.56 66.0364C108.867 65.4822 109.02 64.8171 109.02 64.0425C109.02 63.2673 108.866 62.6029 108.56 62.048Z" fill="#003333"/>
<path d="M119.779 58.1177C120.445 57.7382 121.208 57.5479 122.067 57.5479V60.8972H121.216C120.204 60.8972 119.441 61.1326 118.928 61.6034C118.414 62.0741 118.157 62.8943 118.157 64.064V70.3533H114.937V57.7304H118.157V59.6897C118.571 59.0214 119.111 58.4978 119.779 58.1177Z" fill="#003333"/>
<path d="M123.649 60.6012C124.162 59.6141 124.859 58.8545 125.741 58.3224C126.622 57.791 127.608 57.525 128.697 57.525C129.647 57.525 130.479 57.7154 131.192 58.0949C131.905 58.475 132.476 58.9536 132.906 59.5306V57.7304H136.149V70.354H132.906V68.5081C132.492 69.1008 131.921 69.5905 131.192 69.9778C130.464 70.3651 129.625 70.5587 128.674 70.5587C127.6 70.5587 126.623 70.2855 125.741 69.7385C124.859 69.1914 124.162 68.4208 123.649 67.4258C123.135 66.4308 122.878 65.2879 122.878 63.9962C122.878 62.7202 123.135 61.589 123.649 60.6012ZM132.445 62.048C132.138 61.4938 131.724 61.068 131.203 60.772C130.682 60.476 130.122 60.328 129.525 60.328C128.926 60.328 128.375 60.4728 127.869 60.7609C127.363 61.0498 126.953 61.471 126.638 62.0258C126.324 62.5807 126.167 63.2373 126.167 63.9969C126.167 64.7565 126.324 65.4209 126.638 65.9907C126.952 66.5606 127.366 66.9974 127.88 67.3006C128.393 67.6044 128.942 67.7564 129.525 67.7564C130.123 67.7564 130.682 67.6084 131.203 67.3123C131.725 67.0163 132.138 66.5912 132.445 66.0364C132.752 65.4822 132.905 64.8171 132.905 64.0425C132.905 63.2673 132.752 62.6029 132.445 62.048Z" fill="#003333"/>
<path d="M149.751 61.7638C149.344 62.5084 148.708 63.1083 147.841 63.564C146.975 64.0198 145.882 64.2473 144.564 64.2473H141.873V67.1341C141.873 68.9124 140.432 70.3541 138.653 70.3541V70.3541V54.4496H144.564C145.805 54.4496 146.864 54.6628 147.737 55.0873C148.611 55.513 149.267 56.0979 149.704 56.8418C150.141 57.5864 150.359 58.4294 150.359 59.371C150.36 60.2218 150.157 61.0192 149.751 61.7638ZM146.404 61.0688C146.833 60.6665 147.048 60.1006 147.048 59.371C147.048 57.8218 146.175 57.0465 144.427 57.0465H141.874V61.6719H144.427C145.316 61.6725 145.975 61.4711 146.404 61.0688Z" fill="#E97222"/>
<path d="M151.903 60.6013C152.416 59.6142 153.114 58.8546 153.996 58.3226C154.877 57.7912 155.862 57.5251 156.951 57.5251C157.901 57.5251 158.733 57.7155 159.447 58.095C160.159 58.4751 160.73 58.9537 161.16 59.5307V57.7305H164.403V70.3541H161.16V68.5082C160.746 69.1009 160.175 69.5906 159.447 69.9779C158.718 70.3652 157.879 70.5588 156.928 70.5588C155.855 70.5588 154.877 70.2856 153.996 69.7386C153.114 69.1916 152.416 68.4209 151.903 67.4259C151.389 66.4309 151.132 65.288 151.132 63.9963C151.132 62.7204 151.389 61.5891 151.903 60.6013ZM160.7 62.0481C160.393 61.4939 159.979 61.0682 159.458 60.7722C158.937 60.4761 158.376 60.3281 157.779 60.3281C157.181 60.3281 156.629 60.4729 156.123 60.7611C155.617 61.0499 155.207 61.4711 154.893 62.026C154.578 62.5808 154.421 63.2374 154.421 63.997C154.421 64.7566 154.579 65.421 154.893 65.9908C155.207 66.5607 155.62 66.9975 156.134 67.3007C156.648 67.6046 157.196 67.7565 157.779 67.7565C158.377 67.7565 158.937 67.6085 159.458 67.3125C159.979 67.0165 160.393 66.5913 160.7 66.0365C161.006 65.4823 161.16 64.8172 161.16 64.0426C161.16 63.2674 161.006 62.603 160.7 62.0481Z" fill="#E97222"/>
<path d="M171.918 58.1178C172.585 57.7384 173.347 57.548 174.206 57.548V60.8973H173.355C172.343 60.8973 171.58 61.1327 171.067 61.6035C170.553 62.0742 170.296 62.8945 170.296 64.0642V70.3534H167.077V57.7305H170.296V59.6898C170.711 59.0215 171.251 58.498 171.918 58.1178Z" fill="#E97222"/>
<path d="M91.9607 79.0325C91.7238 79.1166 91.2566 79.2548 90.7044 79.2548C90.0858 79.2548 89.5758 79.0983 89.1751 78.7195C88.823 78.3831 88.6045 77.8419 88.6045 77.2101C88.6104 76.0013 89.4482 75.1178 90.8196 75.1178C91.2928 75.1178 91.6633 75.2202 91.839 75.3043L91.7113 75.7313C91.4928 75.6348 91.2197 75.5573 90.8071 75.5573C89.8121 75.5573 89.1625 76.1708 89.1625 77.1866C89.1625 78.2148 89.7877 78.8219 90.7406 78.8219C91.0868 78.8219 91.323 78.7736 91.4448 78.7136V77.5055H90.6136V77.0843H91.9607V79.0325Z" fill="#E97222"/>
<path d="M90.7045 79.3845C90.0208 79.3845 89.491 79.198 89.085 78.8133C88.6961 78.4417 88.4736 77.8575 88.4736 77.2107C88.4802 75.8812 89.4232 74.9886 90.8197 74.9886C91.306 74.9886 91.6949 75.0917 91.8963 75.1882L91.9964 75.2364L91.795 75.9106L91.6588 75.8506C91.4863 75.775 91.2336 75.6876 90.8079 75.6876C89.874 75.6876 89.2943 76.262 89.2943 77.1872C89.2943 78.13 89.8352 78.6927 90.7414 78.6927C91.0441 78.6927 91.2218 78.6556 91.3146 78.6262V77.6352H90.4834V76.9545H92.0924V79.1237L92.0056 79.1543C91.7094 79.2593 91.2448 79.3845 90.7045 79.3845ZM90.8197 75.2481C89.5595 75.2481 88.7415 76.0188 88.7355 77.2113C88.7355 77.7877 88.929 78.3041 89.266 78.6262C89.6207 78.962 90.0912 79.125 90.7045 79.125C91.1573 79.125 91.5541 79.0305 91.8299 78.9398V77.214H90.7447V77.3757H91.5758V78.7944L91.5034 78.8303C91.3449 78.9092 91.0737 78.9522 90.7407 78.9522C89.7029 78.9522 89.0317 78.2591 89.0317 77.1872C89.0317 76.1186 89.7286 75.4281 90.8072 75.4281C91.1816 75.4281 91.4436 75.492 91.6265 75.5585L91.6798 75.3805C91.4916 75.312 91.1869 75.2481 90.8197 75.2481Z" fill="#E97222"/>
<path d="M95.9786 77.3131H94.3886V78.7736H96.1608V79.2131H93.8608V75.1602H96.07V75.599H94.3886V76.8802H95.9786V77.3131Z" fill="#E97222"/>
<path d="M96.2914 79.3427H93.7295V75.031H96.2006V75.7293H94.5198V76.7504H96.1098V77.4428H94.5198V78.6444H96.2921V79.3427H96.2914ZM93.9914 79.0832H96.0295V78.9039H94.2573V77.1833H95.8472V77.0099H94.2573V75.4698H95.938V75.2905H93.9907V79.0832H93.9914Z" fill="#E97222"/>
<path d="M97.8666 78.5754C98.1036 78.7195 98.4491 78.8401 98.8136 78.8401C99.3539 78.8401 99.6691 78.5578 99.6691 78.1483C99.6691 77.7695 99.4507 77.553 98.8985 77.3424C98.2312 77.1077 97.8186 76.7654 97.8186 76.1942C97.8186 75.5631 98.3464 75.0936 99.1414 75.0936C99.5599 75.0936 99.8633 75.1901 100.046 75.2918L99.9001 75.7189C99.7665 75.6465 99.4934 75.5266 99.1236 75.5266C98.5655 75.5266 98.353 75.8571 98.353 76.1336C98.353 76.5124 98.6017 76.6989 99.1664 76.9153C99.858 77.1801 100.21 77.5106 100.21 78.1059C100.21 78.7312 99.7428 79.2724 98.7781 79.2724C98.3839 79.2724 97.9529 79.1583 97.7344 79.0135L97.8666 78.5754Z" fill="#E97222"/>
<path d="M98.7766 79.4028C98.3693 79.4028 97.9099 79.2873 97.6605 79.1224L97.5796 79.0689L97.7902 78.3765L97.935 78.4652C98.187 78.6184 98.5154 78.7103 98.8128 78.7103C99.2597 78.7103 99.5374 78.4952 99.5374 78.1483C99.5374 77.8803 99.4249 77.6828 98.8503 77.4637C98.0679 77.1892 97.6862 76.7732 97.6862 76.1942C97.6862 75.4698 98.2844 74.9639 99.1399 74.9639C99.6493 74.9639 99.9658 75.0988 100.109 75.179L100.203 75.2318L99.9724 75.9067L99.8355 75.833C99.6868 75.7521 99.442 75.6563 99.1215 75.6563C98.649 75.6563 98.4818 75.9138 98.4818 76.1336C98.4818 76.425 98.6523 76.5795 99.211 76.7941C100.001 77.0959 100.338 77.4884 100.338 78.1053C100.34 78.7514 99.8566 79.4028 98.7766 79.4028ZM97.8882 78.9535C98.1093 79.0644 98.4693 79.1433 98.7766 79.1433C99.567 79.1433 100.078 78.7364 100.078 78.1066C100.078 77.6012 99.8085 77.3013 99.1175 77.0373C98.5496 76.8195 98.2206 76.6017 98.2206 76.1349C98.2206 75.7795 98.5029 75.3981 99.1221 75.3981C99.411 75.3981 99.6486 75.4653 99.8223 75.5396L99.8842 75.359C99.7381 75.2957 99.4953 75.2247 99.1406 75.2247C98.439 75.2247 97.9488 75.6237 97.9488 76.1955C97.9488 76.6637 98.2548 76.9805 98.9418 77.2218C99.4578 77.4187 99.8 77.6508 99.8 78.1496C99.8 78.6484 99.4123 78.9705 98.8135 78.9705C98.52 78.9705 98.212 78.8974 97.9455 78.767L97.8882 78.9535Z" fill="#E97222"/>
<path d="M102.801 75.6055H101.556V75.1602H104.585V75.6055H103.334V79.2131H102.801V75.6055Z" fill="#E97222"/>
<path d="M103.465 79.3427H102.67V75.7352H101.426V75.031H104.716V75.7352H103.465V79.3427ZM102.931 79.0832H103.204V75.4757H104.454V75.2899H101.688V75.4757H102.931V79.0832V79.0832Z" fill="#E97222"/>
<path d="M106.339 77.9383L105.913 79.213H105.367L106.757 75.1608H107.394L108.79 79.213H108.225L107.788 77.9383H106.339ZM107.68 77.5295L107.279 76.3631C107.188 76.0984 107.127 75.8578 107.066 75.6237H107.055C106.994 75.8643 106.927 76.1107 106.848 76.3572L106.447 77.5295H107.68Z" fill="#E97222"/>
<path d="M108.974 79.3427H108.133L107.696 78.0681H106.433L106.009 79.3427H105.185L106.664 75.031H107.488L108.974 79.3427ZM108.32 79.0832H108.608L107.301 75.2905H106.852L105.552 79.0832H105.82L106.245 77.8086H107.883L108.32 79.0832ZM107.863 77.6593H106.266L106.725 76.3155C106.791 76.1075 106.857 75.8767 106.928 75.5917L106.953 75.4933H107.169L107.206 75.6348C107.262 75.8525 107.321 76.0775 107.404 76.3207L107.863 77.6593ZM106.631 77.3998H107.498L107.156 76.4048C107.12 76.3018 107.09 76.2027 107.062 76.1062C107.033 76.2085 107.003 76.3044 106.974 76.3963L106.631 77.3998Z" fill="#E97222"/>
<path d="M113.889 77.1442C113.889 78.5388 113.033 79.2789 111.99 79.2789C110.91 79.2789 110.151 78.4489 110.151 77.2224C110.151 75.9354 110.958 75.0936 112.05 75.0936C113.167 75.0943 113.889 75.9419 113.889 77.1442ZM110.715 77.2107C110.715 78.0766 111.188 78.8525 112.02 78.8525C112.858 78.8525 113.331 78.089 113.331 77.169C113.331 76.3631 112.906 75.5213 112.026 75.5213C111.152 75.5207 110.715 76.3207 110.715 77.2107Z" fill="#E97222"/>
<path d="M111.99 79.4087C110.83 79.4087 110.02 78.5096 110.02 77.2225C110.02 75.8931 110.855 74.9646 112.05 74.9646C113.228 74.9646 114.02 75.8409 114.02 77.1443C114.02 78.7084 113 79.4087 111.99 79.4087ZM112.05 75.2241C111.009 75.2241 110.282 76.0463 110.282 77.2225C110.282 78.3746 110.968 79.1492 111.99 79.1492C113.064 79.1492 113.758 78.3622 113.758 77.1443C113.758 75.9961 113.072 75.2241 112.05 75.2241ZM112.02 78.9816C111.078 78.9816 110.584 78.0903 110.584 77.2108C110.584 76.3051 111.03 75.3917 112.026 75.3917C112.968 75.3917 113.461 76.2856 113.461 77.169C113.461 78.2364 112.869 78.9816 112.02 78.9816ZM112.026 75.6505C111.21 75.6505 110.846 76.4342 110.846 77.2101C110.846 77.9384 111.213 78.7221 112.02 78.7221C112.835 78.7221 113.2 77.9417 113.2 77.1684C113.2 76.4375 112.832 75.6505 112.026 75.6505Z" fill="#E97222"/>
<path d="M118.046 75.2142C118.368 75.166 118.751 75.1301 119.169 75.1301C119.928 75.1301 120.468 75.3042 120.826 75.6354C121.19 75.966 121.403 76.4355 121.403 77.0907C121.403 77.7519 121.196 78.293 120.814 78.666C120.431 79.0448 119.8 79.2495 119.005 79.2495C118.629 79.2495 118.314 79.2313 118.046 79.2013V75.2142ZM118.574 78.7977C118.708 78.8218 118.902 78.8277 119.108 78.8277C120.236 78.8277 120.85 78.2024 120.85 77.1083C120.856 76.1525 120.31 75.5448 119.193 75.5448C118.92 75.5448 118.714 75.5689 118.574 75.5989V78.7977H118.574Z" fill="#E97222"/>
<path d="M119.005 79.3786C118.647 79.3786 118.32 79.3623 118.032 79.3297L117.915 79.3167V75.1027L118.026 75.0858C118.406 75.0291 118.79 75.0004 119.169 75.0004C119.95 75.0004 120.522 75.1771 120.915 75.5402C121.325 75.9125 121.533 76.4341 121.533 77.0901C121.533 77.7805 121.315 78.3576 120.905 78.7579C120.496 79.1634 119.839 79.3786 119.005 79.3786ZM118.178 79.0839C118.427 79.1074 118.705 79.1191 119.005 79.1191C119.768 79.1191 120.361 78.9307 120.721 78.574C121.081 78.2226 121.271 77.7101 121.271 77.0901C121.271 76.5019 121.097 76.0573 120.738 75.7306C120.394 75.4137 119.881 75.2599 119.169 75.2599C118.841 75.2599 118.508 75.282 118.178 75.327V79.0839ZM119.109 78.9574C118.847 78.9574 118.675 78.9476 118.551 78.9255L118.444 78.9059V75.4946L118.547 75.4724C118.669 75.4463 118.879 75.415 119.194 75.415C119.778 75.415 120.231 75.5722 120.542 75.8819C120.838 76.1766 120.986 76.5893 120.982 77.109C120.981 78.2839 120.299 78.9574 119.109 78.9574ZM118.705 78.6842C118.835 78.6966 118.991 78.6979 119.109 78.6979C120.162 78.6979 120.72 78.1483 120.72 77.1077C120.722 76.6584 120.6 76.3076 120.356 76.0638C120.097 75.8049 119.706 75.6739 119.194 75.6739C118.979 75.6739 118.819 75.6889 118.706 75.7065V78.6842H118.705Z" fill="#E97222"/>
<path d="M125.298 77.3131H123.708V78.7736H125.481V79.2131H123.181V75.1602H125.39V75.599H123.708V76.8802H125.298V77.3131Z" fill="#E97222"/>
<path d="M125.612 79.3427H123.05V75.031H125.521V75.7293H123.84V76.7504H125.43V77.4428H123.84V78.6444H125.612V79.3427H125.612ZM123.312 79.0832H125.35V78.9039H123.578V77.1833H125.168V77.0099H123.578V75.4698H125.258V75.2905H123.311V79.0832H123.312Z" fill="#E97222"/>
<path d="M130.3 77.9383L129.875 79.213H129.329L130.718 75.1608H131.356L132.751 79.213H132.187L131.75 77.9383H130.3ZM131.641 77.5295L131.24 76.3631C131.15 76.0984 131.088 75.8578 131.028 75.6237H131.016C130.955 75.8643 130.888 76.1107 130.809 76.3572L130.409 77.5295H131.641Z" fill="#E97222"/>
<path d="M132.935 79.3427H132.094L131.657 78.0681H130.395L129.97 79.3427H129.146L130.625 75.031H131.45L132.935 79.3427ZM132.281 79.0832H132.569L131.262 75.2905H130.813L129.512 79.0832H129.78L130.205 77.8086H131.843L132.281 79.0832ZM131.824 77.6593H130.227L130.686 76.3155C130.752 76.1075 130.817 75.8767 130.889 75.5917L130.914 75.4933H131.13L131.167 75.6348C131.223 75.8525 131.281 76.0775 131.365 76.3207L131.824 77.6593ZM130.592 77.3998H131.458L131.117 76.4048C131.081 76.3018 131.05 76.2027 131.023 76.1062C130.994 76.2085 130.964 76.3044 130.935 76.3963L130.592 77.3998Z" fill="#E97222"/>
<path d="M134.755 75.6055H133.511V75.1602H136.539V75.6055H135.289V79.2131H134.755V75.6055Z" fill="#E97222"/>
<path d="M135.42 79.3427H134.624V75.7352H133.38V75.031H136.67V75.7352H135.42V79.3427ZM134.886 79.0832H135.157V75.4757H136.408V75.2899H133.641V75.4757H134.886V79.0832V79.0832Z" fill="#E97222"/>
<path d="M138.615 75.1602H138.087V79.2124H138.615V75.1602Z" fill="#E97222"/>
<path d="M138.746 79.3427H137.956V75.031H138.746V79.3427ZM138.217 79.0832H138.484V75.2899H138.217V79.0832Z" fill="#E97222"/>
<path d="M141.528 79.213L140.193 75.1608H140.763L141.4 77.1572C141.576 77.7043 141.728 78.1972 141.837 78.6725H141.849C141.964 78.2037 142.134 77.6925 142.317 77.1637L143.008 75.1614H143.573L142.111 79.2137H141.528V79.213Z" fill="#E97222"/>
<path d="M142.203 79.3427H141.433L140.012 75.031H140.859L141.525 77.1181C141.651 77.5093 141.759 77.8562 141.848 78.1809C141.954 77.821 142.079 77.4532 142.192 77.1213L142.914 75.0317H143.758L142.203 79.3427ZM141.623 79.0832H142.019L143.388 75.2899H143.103L142.441 77.2042C142.279 77.6749 142.096 78.218 141.977 78.7018L141.953 78.8009H141.734L141.711 78.6999C141.607 78.248 141.462 77.7714 141.276 77.195L140.668 75.2892H140.373L141.623 79.0832Z" fill="#E97222"/>
<path d="M148.605 77.1442C148.605 78.5388 147.749 79.2789 146.705 79.2789C145.625 79.2789 144.867 78.4489 144.867 77.2224C144.867 75.9354 145.673 75.0936 146.766 75.0936C147.882 75.0943 148.605 75.9419 148.605 77.1442ZM145.431 77.2107C145.431 78.0766 145.904 78.8525 146.736 78.8525C147.573 78.8525 148.047 78.089 148.047 77.169C148.047 76.3631 147.621 75.5213 146.742 75.5213C145.868 75.5207 145.431 76.3207 145.431 77.2107Z" fill="#E97222"/>
<path d="M146.705 79.4087C145.546 79.4087 144.736 78.5096 144.736 77.2225C144.736 75.8931 145.571 74.9646 146.766 74.9646C147.944 74.9646 148.736 75.8409 148.736 77.1443C148.736 78.7084 147.716 79.4087 146.705 79.4087ZM146.766 75.2241C145.725 75.2241 144.998 76.0463 144.998 77.2225C144.998 78.3746 145.684 79.1492 146.705 79.1492C147.779 79.1492 148.474 78.3622 148.474 77.1443C148.474 75.9961 147.787 75.2241 146.766 75.2241ZM146.736 78.9816C145.793 78.9816 145.3 78.0903 145.3 77.2108C145.3 76.3051 145.745 75.3917 146.742 75.3917C147.684 75.3917 148.178 76.2856 148.178 77.169C148.177 78.2364 147.585 78.9816 146.736 78.9816ZM146.742 75.6505C145.926 75.6505 145.562 76.4342 145.562 77.2101C145.562 77.9384 145.929 78.7221 146.736 78.7221C147.551 78.7221 147.916 77.9417 147.916 77.1684C147.916 76.4375 147.548 75.6505 146.742 75.6505Z" fill="#E97222"/>
<path d="M150.31 78.5754C150.547 78.7195 150.893 78.8401 151.256 78.8401C151.797 78.8401 152.112 78.5578 152.112 78.1483C152.112 77.7695 151.894 77.553 151.341 77.3424C150.674 77.1077 150.261 76.7654 150.261 76.1942C150.261 75.5631 150.789 75.0936 151.584 75.0936C152.003 75.0936 152.306 75.1901 152.488 75.2918L152.343 75.7189C152.209 75.6465 151.936 75.5266 151.566 75.5266C151.008 75.5266 150.796 75.8571 150.796 76.1336C150.796 76.5124 151.045 76.6989 151.609 76.9153C152.301 77.1801 152.653 77.5106 152.653 78.1059C152.653 78.7312 152.186 79.2724 151.221 79.2724C150.827 79.2724 150.396 79.1583 150.177 79.0135L150.31 78.5754Z" fill="#E97222"/>
<path d="M151.221 79.4028C150.813 79.4028 150.354 79.2873 150.104 79.1224L150.023 79.0689L150.234 78.3765L150.378 78.4652C150.63 78.6184 150.959 78.7103 151.256 78.7103C151.703 78.7103 151.981 78.4952 151.981 78.1483C151.981 77.8803 151.868 77.6828 151.294 77.4637C150.511 77.1892 150.13 76.7732 150.13 76.1942C150.13 75.4698 150.727 74.9639 151.583 74.9639C152.093 74.9639 152.409 75.0988 152.552 75.179L152.646 75.2318L152.416 75.9067L152.279 75.833C152.13 75.7521 151.885 75.6563 151.565 75.6563C151.092 75.6563 150.925 75.9138 150.925 76.1336C150.925 76.425 151.096 76.5795 151.655 76.7941C152.445 77.0959 152.782 77.4884 152.782 78.1053C152.784 78.7514 152.301 79.4028 151.221 79.4028ZM150.332 78.9535C150.553 79.0644 150.913 79.1433 151.221 79.1433C152.011 79.1433 152.522 78.7364 152.522 78.1066C152.522 77.6012 152.253 77.3013 151.562 77.0373C150.994 76.8195 150.665 76.6017 150.665 76.1349C150.665 75.7795 150.947 75.3981 151.566 75.3981C151.855 75.3981 152.093 75.4653 152.266 75.5396L152.328 75.359C152.182 75.2957 151.939 75.2247 151.585 75.2247C150.882 75.2247 150.393 75.6237 150.393 76.1955C150.393 76.6637 150.699 76.9805 151.386 77.2218C151.902 77.4187 152.244 77.6508 152.244 78.1496C152.244 78.6484 151.856 78.9705 151.258 78.9705C150.964 78.9705 150.656 78.8974 150.39 78.767L150.332 78.9535Z" fill="#E97222"/>
<path d="M105.991 74.5225C105.973 74.0896 106.21 73.8685 106.512 73.8685C106.695 73.8685 106.835 73.9246 107.128 74.0635C107.351 74.1678 107.513 74.2454 107.675 74.2454C107.832 74.2454 107.906 74.1196 107.911 73.8816H108.173C108.195 74.3667 107.942 74.5355 107.671 74.5355C107.496 74.5355 107.338 74.4834 107.037 74.3452C106.832 74.2454 106.67 74.1548 106.512 74.1548C106.355 74.1548 106.259 74.263 106.25 74.5231H105.991V74.5225Z" fill="#E97222"/>
<path d="M107.67 74.6653C107.46 74.6653 107.273 74.5968 106.981 74.4625L106.902 74.424C106.743 74.3458 106.618 74.2845 106.511 74.2845C106.471 74.2845 106.388 74.2845 106.38 74.527L106.376 74.6522H105.865L105.86 74.5277C105.849 74.2741 105.917 74.0654 106.055 73.9233C106.171 73.804 106.332 73.7388 106.511 73.7388C106.723 73.7388 106.879 73.802 107.185 73.9461L107.204 73.9552C107.403 74.0478 107.547 74.115 107.674 74.115C107.705 74.115 107.775 74.115 107.78 73.8783L107.782 73.7512H108.298L108.303 73.875C108.315 74.1417 108.253 74.3477 108.118 74.4873C108.007 74.604 107.851 74.6653 107.67 74.6653ZM106.511 74.025C106.68 74.025 106.837 74.1026 107.018 74.1919L107.093 74.2291C107.389 74.3647 107.524 74.4064 107.67 74.4064C107.745 74.4064 107.851 74.3895 107.929 74.3093C107.992 74.2434 108.03 74.1424 108.04 74.012H108.031C107.985 74.3249 107.793 74.3758 107.674 74.3758C107.487 74.3758 107.313 74.2943 107.092 74.1913L107.071 74.1815C106.777 74.042 106.661 73.9989 106.511 73.9989C106.402 73.9989 106.31 74.0348 106.244 74.1039C106.177 74.1724 106.137 74.2708 106.124 74.394H106.129C106.182 74.0759 106.386 74.025 106.511 74.025Z" fill="#E97222"/>
<rect y="793" width="595" height="53" fill="#E97222"/>
<path d="M0.000183105 796.882L426.077 796.882C434.489 796.882 442.422 800.804 447.53 807.488L486.894 859L0.000183105 859V796.882Z" fill="white"/>
<path d="M0.000762939 814.353H379.209L420.173 854.147H0.000762939V814.353Z" fill="#003333"/>
<g opacity="0.2">
<path d="M-0.000152588 806.588H352.531L390.613 845.675H-0.000152588V806.588Z" fill="#003333"/>
</g>
<g opacity="0.2">
<path d="M706.856 492.272L706.855 492.274C703.596 507.529 697.11 521.57 688.154 533.688L665.192 556.614L665.178 556.625C665.09 556.696 665.02 556.746 664.931 556.809C664.869 556.853 664.798 556.904 664.705 556.973L663.873 557.591L664.025 557.781L652.188 569.598L652.187 569.599L648.382 573.387L648.38 573.389L600.173 621.537L600.173 621.537L587.755 633.919L587.755 633.92L537.767 683.836L493.931 640.285L545.882 588.404L545.882 588.403L558.3 576.01L558.3 576.01L562.415 571.902L610.314 524.083L610.315 524.082L611.636 522.76L611.637 522.759L622.786 511.626L676.276 458.211L702.573 431.949C706.917 443.628 709.275 456.269 709.275 469.476C709.275 477.302 708.439 484.927 706.856 492.272Z" fill="#E97222" stroke="#E97222" stroke-width="2"/>
<path d="M584.575 360.296L583.985 360.886L583.984 360.887L532.5 412.296L519.168 397.851L519.168 397.851L393 261.037V152.559L584.575 360.296Z" fill="white" stroke="#E97222" stroke-width="2"/>
<path d="M642.467 330.011L795.131 177.582C809.585 195.966 818.193 219.16 818.193 244.363C818.193 271.856 807.939 296.963 791.027 316.043L781.598 325.46L781.597 325.461L781.567 325.492L781.565 325.493L729.234 377.743L694.13 412.781L694.13 412.782L662.975 443.892L609.486 497.307L609.485 497.307L605.392 501.388L605.392 501.389L597.014 509.754L545 561.686L544.999 561.687L544.4 562.287L544.399 562.288L532.598 574.079L532.597 574.08L527.729 578.932C526.964 579.501 526.27 580.184 525.693 580.969L480.094 626.504L412.636 559.49L468.129 504.08L468.129 504.08L480.547 491.687L480.547 491.686L493.3 478.953L492.613 478.266L493.3 478.953L532.551 439.754L545.022 427.302L598.523 373.887L598.523 373.887L610.994 361.425L610.994 361.424L642.467 330.011L642.467 330.011Z" fill="white" stroke="#E97222" stroke-width="2"/>
<path d="M507.175 413.768L518.613 426.173L492.843 451.906L492.842 451.906L468.01 476.681L393 395.348V289.959L507.175 413.768Z" fill="white" stroke="#E97222" stroke-width="2"/>
<path d="M393 424.147L454.191 490.493L398.826 545.772L393 539.981V424.147Z" fill="white" stroke="#E97222" stroke-width="2"/>
<path d="M772.825 562.914L772.802 562.934L772.78 562.956L745.826 589.874L745.825 589.874L719.274 616.371L719.274 616.372L706.803 628.823L706.803 628.823L654.799 680.761L654.799 680.761L642.381 693.154L642.381 693.154L594.878 740.589L551.599 697.596L600.204 649.064C600.364 648.915 600.514 648.759 600.638 648.629C600.641 648.627 600.643 648.624 600.645 648.622L601.044 648.223L601.046 648.222L613.463 635.829L613.463 635.829L664.548 584.825C664.824 584.964 665.104 585.101 665.391 585.234L666.546 583.648L666.157 583.228L677.948 571.445L677.949 571.445L731.449 518.025L810.924 438.676C818.018 453.066 822 469.273 822 486.403C822 494.568 818.985 503.427 814.379 512.176C809.779 520.914 803.634 529.464 797.47 536.993C791.308 544.519 785.143 551.002 780.518 555.606C778.206 557.907 776.28 559.736 774.933 560.989C774.26 561.616 773.731 562.099 773.372 562.424C773.192 562.586 773.055 562.709 772.963 562.792L772.859 562.884L772.833 562.907L772.827 562.913L772.825 562.914C772.825 562.914 772.825 562.914 773.487 563.664L772.825 562.914Z" fill="white" stroke="#E97222" stroke-width="2"/>
</g>
</g>
<defs>
<clipPath id="clip0_521_3516">
<rect width="595" height="843" fill="white"/>
</clipPath>
</defs>
</svg>
