<svg width="190" height="190" viewBox="0 0 190 190" fill="none" xmlns="http://www.w3.org/2000/svg">
<path d="M113.187 77.3782C113.187 78.7239 113.044 80.035 112.77 81.2983C112.208 83.9239 111.088 86.3407 109.542 88.4243V88.4254L105.594 92.3586C105.591 92.3586 105.591 92.361 105.59 92.361C105.561 92.3837 105.531 92.404 105.504 92.4243L105.515 92.4374L103.384 94.5592L102.733 95.2052L94.4977 103.409L92.3763 105.52L83.7163 114.147L75.9854 106.485L84.9814 97.5228L87.1028 95.4106L87.8059 94.7108L95.9889 86.5616L96.2149 86.3359L98.1186 84.4386L107.257 75.3364L111.936 70.6749C112.746 72.7537 113.187 75.0141 113.187 77.3782Z" fill="#E97222"/>
<path d="M91.9507 58.7775L91.7342 58.9948L82.8123 67.8796L80.4147 65.2886L58.8159 41.9237V22.9362L91.9507 58.7775Z" fill="#003333"/>
<path d="M131.795 39.0175C131.795 43.7482 130.025 48.0671 127.109 51.3495L127.106 51.3518L125.493 52.9578L125.487 52.9638L116.547 61.8689L110.55 67.8403L105.228 73.1418L96.0894 82.2439L95.391 82.94L93.9596 84.3657L85.0735 93.2159L84.9707 93.3186L82.9546 95.3281L82.1139 96.164C81.9884 96.2559 81.8771 96.3658 81.7851 96.4923L73.8652 104.381L62.0996 92.7192L71.7008 83.1562L73.8222 81.0439L76.0009 78.8743L82.7058 72.1937L84.8368 70.0719L93.9764 60.9698L96.1073 58.8468L101.484 53.4927L127.698 27.3816C130.262 30.5661 131.795 34.6139 131.795 39.0175Z" fill="#003333"/>
<path d="M80.6813 70.0038L76.1636 74.5041L71.7953 78.8528L58.8159 64.8121V46.35L78.6174 67.7698L80.6813 70.0038Z" fill="#003333"/>
<path d="M69.6763 80.9651L59.9818 90.6212L58.8159 89.4642V69.2181L69.6763 80.9651Z" fill="#003333"/>
<path d="M132.446 80.263C132.446 85.986 123.988 93.4296 123.988 93.4296L119.383 98.0159L114.847 102.532L112.716 104.654L103.833 113.504L101.711 115.616L93.4756 123.819L85.8403 116.252L94.266 107.86C94.2899 107.837 94.315 107.813 94.3366 107.788L94.4071 107.717L96.5285 105.605L105.343 96.8254C105.425 96.8684 105.508 96.909 105.592 96.9484L105.415 96.7562L107.545 94.6332L116.684 85.5311L130.429 71.8427C131.719 74.3704 132.446 77.2325 132.446 80.263Z" fill="#003333"/>
<path d="M33.2771 135.14C34.1298 133.649 35.2933 132.486 36.7701 131.652C38.2457 130.82 39.9007 130.403 41.7339 130.403C43.8792 130.403 45.7578 130.953 47.3722 132.051C48.9853 133.15 50.113 134.67 50.7551 136.61H46.327C45.887 135.694 45.2687 135.008 44.4711 134.55C43.6735 134.093 42.7516 133.864 41.7076 133.864C40.5895 133.864 39.5946 134.124 38.7241 134.646C37.8535 135.168 37.1743 135.904 36.6888 136.856C36.2021 137.808 35.9605 138.925 35.9605 140.206C35.9605 141.47 36.2033 142.581 36.6888 143.543C37.1743 144.504 37.8535 145.245 38.7241 145.767C39.5946 146.289 40.5895 146.549 41.7076 146.549C42.7527 146.549 43.6735 146.316 44.4711 145.849C45.2687 145.383 45.887 144.692 46.327 143.777H50.7551C50.113 145.736 48.9901 147.26 47.3865 148.349C45.7817 149.438 43.8983 149.982 41.7351 149.982C39.9019 149.982 38.2469 149.565 36.7713 148.733C35.2957 147.901 34.1309 146.743 33.2783 145.26C32.4257 143.777 32 142.093 32 140.206C31.9976 138.321 32.4245 136.632 33.2771 135.14Z" fill="#003333"/>
<path d="M67.3732 143.365H56.2354C56.3275 144.463 56.7125 145.324 57.3905 145.946C58.0686 146.568 58.9032 146.88 59.8934 146.88C61.3236 146.88 62.3412 146.266 62.9463 145.04H67.0993C66.6593 146.505 65.8162 147.709 64.569 148.651C63.3218 149.594 61.7911 150.064 59.9759 150.064C58.5086 150.064 57.1932 149.74 56.0297 149.09C54.865 148.441 53.9574 147.52 53.3068 146.331C52.6563 145.141 52.3311 143.768 52.3311 142.211C52.3311 140.638 52.6515 139.255 53.2937 138.064C53.9346 136.875 54.8339 135.959 55.989 135.318C57.1442 134.678 58.4727 134.357 59.9771 134.357C61.4252 134.357 62.7227 134.669 63.8682 135.291C65.0138 135.913 65.9035 136.796 66.5361 137.94C67.1687 139.084 67.4844 140.398 67.4844 141.881C67.4832 142.431 67.4461 142.925 67.3732 143.365ZM63.4952 140.783C63.4772 139.795 63.1185 139.003 62.4225 138.408C61.7253 137.814 60.8727 137.516 59.8647 137.516C58.9116 137.516 58.1092 137.805 57.4587 138.381C56.807 138.958 56.4088 139.759 56.2629 140.783H63.4952V140.783Z" fill="#003333"/>
<path d="M69.8666 138.064C70.4812 136.875 71.3147 135.959 72.3694 135.318C73.4229 134.678 74.602 134.357 75.903 134.357C77.0402 134.357 78.034 134.586 78.8866 135.044C79.7392 135.501 80.422 136.078 80.935 136.774V134.604H84.813V149.817H80.935V147.593C80.4399 148.307 79.7571 148.897 78.8866 149.364C78.016 149.83 77.0115 150.063 75.8755 150.063C74.5924 150.063 73.4229 149.734 72.3694 149.075C71.3147 148.416 70.4812 147.487 69.8666 146.288C69.2519 145.089 68.9458 143.711 68.9458 142.155C68.9458 140.618 69.2531 139.255 69.8666 138.064ZM80.3861 139.808C80.019 139.14 79.524 138.627 78.9009 138.27C78.2779 137.913 77.6083 137.735 76.8932 137.735C76.1781 137.735 75.518 137.909 74.9129 138.257C74.3078 138.604 73.8175 139.113 73.4421 139.78C73.0654 140.449 72.8788 141.241 72.8788 142.155C72.8788 143.071 73.0666 143.871 73.4421 144.558C73.8175 145.244 74.3126 145.771 74.9273 146.136C75.5407 146.503 76.196 146.685 76.8932 146.685C77.6083 146.685 78.2767 146.507 78.9009 146.15C79.524 145.793 80.019 145.281 80.3861 144.613C80.752 143.945 80.9362 143.144 80.9362 142.21C80.9362 141.278 80.7532 140.476 80.3861 139.808Z" fill="#003333"/>
<path d="M93.8021 135.071C94.5997 134.614 95.5109 134.384 96.5381 134.384V138.421H95.5205C94.3103 138.421 93.3979 138.706 92.7845 139.273C92.1698 139.84 91.8637 140.829 91.8637 142.239V149.817H88.0132V134.604H91.8637V136.966C92.3576 136.16 93.0045 135.529 93.8021 135.071Z" fill="#003333"/>
<path d="M98.4296 138.064C99.0442 136.875 99.8777 135.959 100.932 135.318C101.986 134.678 103.164 134.357 104.466 134.357C105.603 134.357 106.597 134.586 107.45 135.044C108.302 135.501 108.985 136.078 109.498 136.774V134.604H113.376V149.817H109.498V147.593C109.003 148.307 108.32 148.897 107.45 149.364C106.579 149.83 105.575 150.063 104.439 150.063C103.155 150.063 101.986 149.734 100.932 149.075C99.8777 148.416 99.0442 147.487 98.4296 146.288C97.8149 145.089 97.5088 143.711 97.5088 142.155C97.5088 140.618 97.8149 139.255 98.4296 138.064ZM108.949 139.808C108.582 139.14 108.087 138.627 107.464 138.27C106.841 137.913 106.171 137.735 105.456 137.735C104.741 137.735 104.081 137.909 103.476 138.257C102.871 138.604 102.381 139.113 102.005 139.78C101.628 140.449 101.442 141.241 101.442 142.155C101.442 143.071 101.63 143.871 102.005 144.558C102.381 145.244 102.876 145.771 103.49 146.136C104.104 146.503 104.759 146.685 105.456 146.685C106.171 146.685 106.84 146.507 107.464 146.15C108.087 145.793 108.582 145.281 108.949 144.613C109.315 143.945 109.499 143.144 109.499 142.21C109.499 141.278 109.316 140.476 108.949 139.808Z" fill="#003333"/>
<path d="M129.755 139.442C129.27 140.339 128.508 141.063 127.472 141.612C126.437 142.161 125.13 142.436 123.554 142.436H120.336V145.945C120.336 148.072 118.612 149.796 116.485 149.796V149.796V130.628H123.554C125.039 130.628 126.304 130.885 127.349 131.397C128.394 131.91 129.178 132.615 129.7 133.512C130.223 134.409 130.485 135.424 130.485 136.56C130.484 137.584 130.241 138.546 129.755 139.442ZM125.754 138.604C126.267 138.119 126.524 137.438 126.524 136.559C126.524 134.691 125.479 133.758 123.389 133.758H120.336V139.332H123.389C124.452 139.332 125.24 139.09 125.754 138.604Z" fill="#E97222"/>
<path d="M132.328 138.042C132.943 136.852 133.777 135.937 134.831 135.295C135.885 134.655 137.063 134.334 138.365 134.334C139.501 134.334 140.496 134.563 141.348 135.021C142.201 135.478 142.884 136.055 143.397 136.751V134.581H147.275V149.795H143.397V147.57C142.902 148.284 142.219 148.874 141.348 149.341C140.478 149.808 139.473 150.041 138.337 150.041C137.054 150.041 135.885 149.711 134.831 149.052C133.777 148.393 132.943 147.464 132.328 146.265C131.714 145.066 131.408 143.688 131.408 142.132C131.408 140.596 131.714 139.232 132.328 138.042ZM142.848 139.785C142.481 139.118 141.986 138.604 141.363 138.247C140.74 137.89 140.07 137.712 139.355 137.712C138.64 137.712 137.98 137.886 137.375 138.234C136.77 138.581 136.279 139.09 135.904 139.758C135.528 140.426 135.341 141.218 135.341 142.132C135.341 143.048 135.528 143.848 135.904 144.535C136.279 145.221 136.775 145.748 137.389 146.113C138.003 146.48 138.658 146.663 139.355 146.663C140.07 146.663 140.739 146.485 141.363 146.128C141.986 145.771 142.481 145.258 142.848 144.59C143.214 143.922 143.398 143.121 143.398 142.187C143.398 141.255 143.215 140.454 142.848 139.785Z" fill="#E97222"/>
<path d="M156.264 135.048C157.062 134.591 157.973 134.362 159 134.362V138.399H157.982C156.772 138.399 155.86 138.683 155.246 139.25C154.632 139.817 154.326 140.806 154.326 142.216V149.795H150.475V134.581H154.326V136.943C154.819 136.137 155.466 135.507 156.264 135.048Z" fill="#E97222"/>
<path d="M61.3486 159.546C61.0652 159.648 60.5067 159.814 59.8467 159.814C59.1064 159.814 58.4966 159.625 58.0183 159.169C57.5973 158.763 57.3354 158.111 57.3354 157.35C57.3426 155.894 58.3447 154.829 59.9842 154.829C60.5498 154.829 60.9922 154.952 61.2039 155.053L61.052 155.568C60.7913 155.452 60.4649 155.358 59.971 155.358C58.7812 155.358 58.0039 156.097 58.0039 157.322C58.0039 158.561 58.7513 159.293 59.8909 159.293C60.3047 159.293 60.5881 159.236 60.7327 159.163V157.706H59.7378V157.199H61.3486V159.546Z" fill="#E97222"/>
<path d="M59.8466 159.971C59.0286 159.971 58.396 159.746 57.9094 159.284C57.4442 158.836 57.1787 158.131 57.1787 157.352C57.1871 155.749 58.3135 154.673 59.9841 154.673C60.5664 154.673 61.0304 154.798 61.2708 154.913L61.3904 154.971L61.15 155.784L60.9874 155.711C60.7805 155.619 60.4792 155.514 59.9697 155.514C58.8529 155.514 58.1593 156.206 58.1593 157.322C58.1593 158.458 58.8062 159.137 59.8896 159.137C60.2519 159.137 60.4636 159.091 60.5748 159.057V157.863H59.5811V157.042H61.5052V159.656L61.4011 159.693C61.0484 159.821 60.4923 159.971 59.8466 159.971ZM59.9841 154.986C58.4774 154.986 57.4992 155.915 57.492 157.353C57.492 158.048 57.7228 158.67 58.127 159.059C58.5515 159.464 59.1135 159.66 59.8466 159.66C60.3871 159.66 60.8618 159.545 61.1919 159.436V157.356H59.8944V157.551H60.8881V159.261L60.802 159.304C60.6119 159.398 60.2878 159.451 59.8908 159.451C58.6496 159.451 57.8472 158.616 57.8472 157.323C57.8472 156.035 58.6806 155.202 59.9709 155.202C60.4182 155.202 60.7315 155.28 60.9515 155.359L61.0149 155.144C60.7877 155.063 60.423 154.986 59.9841 154.986Z" fill="#E97222"/>
<path d="M66.1533 157.475H64.252V159.236H66.371V159.765H63.6206V154.88H66.2622V155.409H64.252V156.953H66.1533V157.475Z" fill="#E97222"/>
<path d="M66.528 159.92H63.4644V154.724H66.4192V155.565H64.409V156.796H66.3104V157.631H64.409V159.079H66.528V159.92V159.92ZM63.7777 159.608H66.2147V159.392H64.0957V157.319H65.9971V157.111H64.0957V155.254H66.1059V155.038H63.7777V159.608V159.608Z" fill="#E97222"/>
<path d="M68.4112 158.996C68.6946 159.17 69.1072 159.315 69.5437 159.315C70.1894 159.315 70.5673 158.974 70.5673 158.481C70.5673 158.025 70.3066 157.764 69.6453 157.51C68.8477 157.228 68.3538 156.814 68.3538 156.127C68.3538 155.366 68.9852 154.8 69.9359 154.8C70.4369 154.8 70.7992 154.916 71.0169 155.039L70.8423 155.553C70.6821 155.466 70.3556 155.322 69.9132 155.322C69.2459 155.322 68.9912 155.721 68.9912 156.054C68.9912 156.51 69.2889 156.734 69.9634 156.996C70.7909 157.315 71.2118 157.713 71.2118 158.431C71.2118 159.185 70.6534 159.836 69.4994 159.836C69.0283 159.836 68.5129 159.699 68.251 159.525L68.4112 158.996Z" fill="#E97222"/>
<path d="M69.4993 159.993C69.0126 159.993 68.4625 159.854 68.1647 159.655L68.0679 159.59L68.3202 158.756L68.4936 158.862C68.7949 159.047 69.1871 159.158 69.5435 159.158C70.078 159.158 70.4105 158.899 70.4105 158.481C70.4105 158.159 70.2765 157.92 69.5889 157.656C68.6538 157.325 68.197 156.824 68.197 156.127C68.197 155.254 68.9121 154.645 69.9357 154.645C70.5444 154.645 70.9235 154.807 71.0945 154.904L71.2069 154.967L70.9318 155.78L70.768 155.691C70.5898 155.594 70.2969 155.478 69.9142 155.478C69.3498 155.478 69.1489 155.789 69.1489 156.054C69.1489 156.405 69.3522 156.591 70.0218 156.85C70.9665 157.214 71.3707 157.687 71.3707 158.431C71.3683 159.208 70.7907 159.993 69.4993 159.993ZM68.4362 159.452C68.7005 159.586 69.1309 159.68 69.4993 159.68C70.4439 159.68 71.055 159.189 71.055 158.431C71.055 157.822 70.7333 157.46 69.907 157.143C69.2278 156.88 68.8344 156.619 68.8344 156.055C68.8344 155.627 69.1716 155.167 69.913 155.167C70.2586 155.167 70.542 155.248 70.7501 155.337L70.8242 155.12C70.6496 155.044 70.359 154.959 69.9345 154.959C69.0951 154.959 68.5091 155.44 68.5091 156.129C68.5091 156.694 68.875 157.075 69.6966 157.366C70.3136 157.602 70.7226 157.883 70.7226 158.485C70.7226 159.087 70.2598 159.475 69.5423 159.475C69.1907 159.475 68.8224 159.386 68.5043 159.23L68.4362 159.452Z" fill="#E97222"/>
<path d="M74.3113 155.416H72.8237V154.88H76.4447V155.416H74.9499V159.765H74.3113V155.416Z" fill="#E97222"/>
<path d="M75.1065 159.92H74.1546V155.573H72.667V154.724H76.6012V155.573H75.1065V159.92ZM74.4679 159.608H74.7931V155.261H76.2879V155.038H72.9791V155.261H74.4667V159.608H74.4679Z" fill="#E97222"/>
<path d="M78.542 158.228L78.0338 159.763H77.3809L79.043 154.88H79.8048L81.4741 159.763H80.7997L80.2771 158.228H78.542ZM80.1456 157.735L79.6661 156.329C79.5572 156.011 79.4843 155.72 79.4126 155.439H79.3982C79.3253 155.729 79.2463 156.026 79.1519 156.322L78.6723 157.735H80.1456Z" fill="#E97222"/>
<path d="M81.693 159.92H80.6874L80.1648 158.383H78.6557L78.1475 159.92H77.1621L78.9307 154.724H79.9173L81.693 159.92ZM80.911 159.608H81.2554L79.6936 155.038H79.1555L77.5998 159.608H77.9214L78.4297 158.073H80.3896L80.911 159.608ZM80.3645 157.891H78.4548L79.0037 156.272C79.0838 156.022 79.1615 155.743 79.2464 155.401L79.2763 155.282H79.5346L79.5777 155.453C79.6446 155.716 79.714 155.987 79.8144 156.281L80.3645 157.891ZM78.8912 157.579H79.9268L79.5179 156.38C79.476 156.256 79.4389 156.136 79.4055 156.019C79.3708 156.142 79.3361 156.258 79.3002 156.369L78.8912 157.579Z" fill="#E97222"/>
<path d="M87.5705 157.272C87.5705 158.953 86.5469 159.844 85.2997 159.844C84.0082 159.844 83.1006 158.843 83.1006 157.365C83.1006 155.814 84.0656 154.8 85.3714 154.8C86.7072 154.801 87.5705 155.822 87.5705 157.272ZM83.775 157.352C83.775 158.395 84.3406 159.33 85.3355 159.33C86.3376 159.33 86.9033 158.41 86.9033 157.302C86.9033 156.331 86.395 155.316 85.3427 155.316C84.2976 155.315 83.775 156.279 83.775 157.352Z" fill="#E97222"/>
<path d="M85.2996 160C83.9125 160 82.9438 158.917 82.9438 157.365C82.9438 155.762 83.9424 154.644 85.3714 154.644C86.78 154.644 87.7271 155.699 87.7271 157.27C87.7271 159.157 86.5074 160 85.2996 160ZM85.3714 154.956C84.1265 154.956 83.2571 155.947 83.2571 157.365C83.2571 158.753 84.0775 159.687 85.2996 159.687C86.5839 159.687 87.4138 158.739 87.4138 157.272C87.4138 155.887 86.5935 154.956 85.3714 154.956ZM85.3355 159.485C84.2078 159.485 83.6183 158.412 83.6183 157.35C83.6183 156.259 84.1516 155.158 85.3427 155.158C86.4691 155.158 87.0598 156.235 87.0598 157.3C87.0598 158.587 86.3507 159.485 85.3355 159.485ZM85.3427 155.471C84.3681 155.471 83.9316 156.415 83.9316 157.35C83.9316 158.228 84.3705 159.173 85.3355 159.173C86.3101 159.173 86.7465 158.232 86.7465 157.3C86.7465 156.419 86.3065 155.471 85.3427 155.471Z" fill="#E97222"/>
<path d="M92.5425 154.946C92.9275 154.887 93.3843 154.844 93.8854 154.844C94.793 154.844 95.4387 155.054 95.8668 155.453C96.3021 155.852 96.5556 156.417 96.5556 157.207C96.5556 158.004 96.3093 158.657 95.8513 159.106C95.3945 159.562 94.6387 159.809 93.6893 159.809C93.2396 159.809 92.8618 159.788 92.5425 159.751V154.946ZM93.1739 159.265C93.3329 159.293 93.5661 159.3 93.8124 159.3C95.1625 159.3 95.8955 158.547 95.8955 157.228C95.9027 156.075 95.2498 155.343 93.9141 155.343C93.5876 155.343 93.3413 155.372 93.1739 155.409V159.265Z" fill="#E97222"/>
<path d="M93.6897 159.964C93.2616 159.964 92.8693 159.944 92.5249 159.906L92.3862 159.89V154.812L92.519 154.792C92.9734 154.724 93.4326 154.689 93.8846 154.689C94.8197 154.689 95.5025 154.902 95.9725 155.34C96.4628 155.789 96.7115 156.417 96.7115 157.207C96.7115 158.039 96.452 158.734 95.9605 159.217C95.4714 159.705 94.6858 159.964 93.6897 159.964ZM92.6995 159.608C92.9973 159.637 93.3297 159.651 93.6897 159.651C94.6009 159.651 95.3112 159.425 95.7417 158.995C96.1722 158.571 96.3994 157.953 96.3994 157.207C96.3994 156.498 96.1901 155.962 95.7608 155.569C95.3506 155.187 94.7372 155.002 93.8858 155.002C93.4935 155.002 93.0953 155.029 92.6995 155.082V159.608ZM93.8128 159.457C93.4995 159.457 93.2939 159.445 93.1468 159.419L93.0188 159.395V155.284L93.142 155.257C93.2867 155.226 93.539 155.188 93.9157 155.188C94.614 155.188 95.1557 155.377 95.5264 155.75C95.8804 156.105 96.0574 156.603 96.0526 157.23C96.0514 158.645 95.2358 159.457 93.8128 159.457ZM93.3309 159.127C93.4852 159.142 93.6729 159.144 93.8128 159.144C95.0732 159.144 95.7393 158.481 95.7393 157.227C95.7429 156.687 95.5958 156.264 95.304 155.97C94.9931 155.659 94.5267 155.5 93.9145 155.5C93.6574 155.5 93.466 155.518 93.3309 155.539V159.127V159.127Z" fill="#E97222"/>
<path d="M101.215 157.475H99.3135V159.236H101.432V159.765H98.6821V154.88H101.324V155.409H99.3135V156.953H101.215V157.475Z" fill="#E97222"/>
<path d="M101.589 159.92H98.5254V154.724H101.48V155.565H99.4701V156.796H101.371V157.631H99.4701V159.079H101.589V159.92V159.92ZM98.8387 159.608H101.276V159.392H99.1568V157.319H101.058V157.111H99.1568V155.254H101.167V155.038H98.8387V159.608Z" fill="#E97222"/>
<path d="M107.195 158.228L106.687 159.763H106.034L107.696 154.88H108.458L110.127 159.763H109.453L108.93 158.228H107.195ZM108.798 157.735L108.319 156.329C108.21 156.011 108.137 155.72 108.065 155.439H108.051C107.978 155.729 107.899 156.026 107.805 156.322L107.325 157.735H108.798Z" fill="#E97222"/>
<path d="M110.346 159.92H109.34L108.818 158.383H107.309L106.8 159.92H105.815L107.584 154.724H108.57L110.346 159.92ZM109.565 159.608H109.909L108.348 155.038H107.81L106.254 159.608H106.575L107.084 158.073H109.044L109.565 159.608ZM109.017 157.891H107.108L107.656 156.272C107.737 156.022 107.813 155.743 107.899 155.401L107.929 155.282H108.187L108.232 155.453C108.299 155.716 108.368 155.987 108.468 156.279L109.017 157.891ZM107.544 157.579H108.58L108.171 156.38C108.129 156.256 108.092 156.136 108.058 156.019C108.024 156.142 107.989 156.258 107.953 156.369L107.544 157.579Z" fill="#E97222"/>
<path d="M112.522 155.416H111.035V154.88H114.656V155.416H113.161V159.765H112.522V155.416Z" fill="#E97222"/>
<path d="M113.317 159.92H112.366V155.573H110.878V154.724H114.812V155.573H113.317V159.92ZM112.679 159.608H113.004V155.261H114.499V155.038H111.191V155.261H112.679V159.608Z" fill="#E97222"/>
<path d="M117.138 154.88H116.507V159.763H117.138V154.88Z" fill="#E97222"/>
<path d="M117.295 159.921H116.35V154.725H117.295V159.921ZM116.663 159.608H116.981V155.038H116.663V159.608Z" fill="#E97222"/>
<path d="M120.621 159.765L119.025 154.881H119.708L120.469 157.287C120.68 157.946 120.862 158.541 120.992 159.113H121.006C121.144 158.548 121.347 157.932 121.565 157.294L122.392 154.881H123.067L121.318 159.765H120.621Z" fill="#E97222"/>
<path d="M121.429 159.92H120.508L118.809 154.724H119.821L120.618 157.238C120.769 157.71 120.896 158.128 121.004 158.519C121.131 158.086 121.28 157.643 121.417 157.242L122.28 154.722H123.289L121.429 159.92ZM120.736 159.608H121.209L122.846 155.038H122.505L121.714 157.345C121.521 157.912 121.302 158.566 121.16 159.15L121.131 159.269H120.869L120.841 159.148C120.717 158.603 120.544 158.029 120.322 157.334L119.595 155.036H119.244L120.736 159.608Z" fill="#E97222"/>
<path d="M129.084 157.272C129.084 158.953 128.061 159.844 126.813 159.844C125.522 159.844 124.614 158.843 124.614 157.365C124.614 155.814 125.579 154.8 126.886 154.8C128.221 154.801 129.084 155.822 129.084 157.272ZM125.289 157.352C125.289 158.395 125.854 159.33 126.849 159.33C127.851 159.33 128.417 158.41 128.417 157.302C128.417 156.331 127.909 155.316 126.856 155.316C125.811 155.315 125.289 156.279 125.289 157.352Z" fill="#E97222"/>
<path d="M126.813 160C125.426 160 124.458 158.917 124.458 157.365C124.458 155.762 125.456 154.644 126.885 154.644C128.294 154.644 129.241 155.699 129.241 157.27C129.241 159.157 128.021 160 126.813 160ZM126.885 154.956C125.64 154.956 124.771 155.947 124.771 157.365C124.771 158.753 125.591 159.687 126.813 159.687C128.098 159.687 128.927 158.739 128.927 157.272C128.927 155.887 128.107 154.956 126.885 154.956ZM126.849 159.485C125.723 159.485 125.132 158.412 125.132 157.35C125.132 156.259 125.665 155.158 126.856 155.158C127.984 155.158 128.574 156.235 128.574 157.3C128.574 158.587 127.864 159.485 126.849 159.485ZM126.856 155.471C125.882 155.471 125.445 156.415 125.445 157.35C125.445 158.228 125.884 159.173 126.849 159.173C127.824 159.173 128.26 158.232 128.26 157.3C128.26 156.419 127.82 155.471 126.856 155.471Z" fill="#E97222"/>
<path d="M131.124 158.996C131.408 159.17 131.821 159.315 132.257 159.315C132.902 159.315 133.28 158.974 133.28 158.481C133.28 158.025 133.019 157.764 132.358 157.51C131.561 157.228 131.067 156.814 131.067 156.127C131.067 155.366 131.698 154.8 132.649 154.8C133.15 154.8 133.512 154.916 133.73 155.039L133.555 155.553C133.396 155.466 133.069 155.322 132.626 155.322C131.959 155.322 131.704 155.721 131.704 156.054C131.704 156.51 132.002 156.734 132.676 156.996C133.504 157.315 133.925 157.713 133.925 158.431C133.925 159.185 133.366 159.836 132.212 159.836C131.741 159.836 131.226 159.699 130.964 159.525L131.124 158.996Z" fill="#E97222"/>
<path d="M132.213 159.993C131.726 159.993 131.176 159.854 130.878 159.655L130.781 159.59L131.034 158.756L131.207 158.862C131.508 159.047 131.901 159.158 132.257 159.158C132.791 159.158 133.124 158.899 133.124 158.481C133.124 158.159 132.99 157.92 132.302 157.656C131.367 157.325 130.91 156.824 130.91 156.127C130.91 155.254 131.625 154.645 132.649 154.645C133.258 154.645 133.637 154.807 133.808 154.904L133.92 154.967L133.645 155.78L133.481 155.691C133.303 155.594 133.01 155.478 132.628 155.478C132.063 155.478 131.862 155.789 131.862 156.054C131.862 156.405 132.067 156.591 132.735 156.85C133.68 157.214 134.084 157.687 134.084 158.431C134.082 159.208 133.504 159.993 132.213 159.993ZM131.15 159.452C131.414 159.586 131.844 159.68 132.213 159.68C133.157 159.68 133.768 159.189 133.768 158.431C133.768 157.822 133.447 157.46 132.62 157.143C131.941 156.88 131.548 156.619 131.548 156.055C131.548 155.627 131.885 155.167 132.626 155.167C132.972 155.167 133.255 155.248 133.463 155.337L133.536 155.12C133.362 155.044 133.071 154.959 132.647 154.959C131.807 154.959 131.221 155.44 131.221 156.129C131.221 156.694 131.587 157.075 132.409 157.366C133.026 157.602 133.435 157.883 133.435 158.485C133.435 159.087 132.972 159.475 132.254 159.475C131.903 159.475 131.535 159.386 131.217 159.23L131.15 159.452Z" fill="#E97222"/>
<path d="M80.0704 154.284C79.8193 154.284 79.5957 154.202 79.2465 154.041L79.152 153.994C78.9631 153.9 78.8124 153.826 78.6857 153.826C78.6378 153.826 78.5386 153.826 78.529 154.118L78.5242 154.27H77.9144L77.9084 154.119C77.8964 153.814 77.9766 153.562 78.1416 153.391C78.2791 153.248 78.4728 153.169 78.6869 153.169C78.9404 153.169 79.1269 153.245 79.4916 153.419L79.5156 153.429C79.7535 153.541 79.9257 153.621 80.0776 153.621C80.1135 153.621 80.1984 153.621 80.2032 153.336L80.2056 153.182H80.8226L80.8298 153.331C80.8441 153.653 80.77 153.901 80.6085 154.069C80.4722 154.21 80.2869 154.284 80.0704 154.284Z" fill="#E97222"/>
</svg>
