<svg width="197" height="65" viewBox="0 0 197 65" fill="none" xmlns="http://www.w3.org/2000/svg">
<path d="M45.3693 34.8241C45.3693 35.4378 45.3049 36.0358 45.1827 36.6117C44.9305 37.809 44.4286 38.9109 43.736 39.8611V39.8623L41.9662 41.6558L41.9645 41.6564C41.9521 41.6666 41.9385 41.6762 41.9261 41.6852L41.9308 41.6912L40.976 42.6588L40.6843 42.9533L32.161 51.5899L28.696 48.0964L37.6609 39.0117L37.7625 38.9085L44.8089 31.7679C45.1715 32.7157 45.3693 33.7462 45.3693 34.8241Z" fill="#E97222"/>
<path d="M35.8511 26.3429L35.7537 26.4419L31.7554 30.4932L21 18.6582V10L35.8511 26.3429Z" fill="#F6F6F6"/>
<path d="M53.7089 17.3325C53.7089 19.4896 52.9159 21.4589 51.6085 22.9555L51.6079 22.9561L32.7686 42.0451L32.7226 42.0919L31.8185 43.0085L31.4418 43.3894C31.3857 43.4314 31.3355 43.4812 31.2942 43.5393L27.7447 47.1366L22.4715 41.819L51.873 12.0269C53.0222 13.4791 53.7089 15.3248 53.7089 17.3325Z" fill="#F6F6F6"/>
<path d="M30.8005 31.4614L26.8176 35.496L21 29.0944V20.6761L30.8005 31.4614Z" fill="#F6F6F6"/>
<path d="M25.8681 36.4593L21.5226 40.8622L21 40.3349V31.1033L25.8681 36.4593Z" fill="#F6F6F6"/>
<path d="M54 36.1396C54 38.749 50.209 42.1429 50.209 42.1429L36.5342 56L33.1117 52.5497L36.8885 48.7226C36.8992 48.7124 36.9104 48.701 36.9204 48.6903L36.9523 48.6579L41.8534 43.6917C41.8901 43.7115 41.9273 43.7301 41.9651 43.7481L41.8853 43.6605L53.096 32.3C53.6746 33.4523 54 34.7576 54 36.1396Z" fill="#F6F6F6"/>
<path d="M63.6473 21.0308C64.5453 19.4468 65.7725 18.2116 67.3272 17.327C68.882 16.4423 70.6257 16 72.5577 16C74.8181 16 76.7982 16.5834 78.498 17.7501C80.1979 18.9168 81.3861 20.5309 82.0619 22.5915H77.396C76.9325 21.6192 76.2808 20.8906 75.44 20.404C74.6 19.9183 73.6291 19.6746 72.5279 19.6746C71.3496 19.6746 70.3015 19.9517 69.3836 20.5059C68.4657 21.06 67.751 21.8428 67.2394 22.8535C66.7269 23.865 66.4715 25.0509 66.4715 26.4121C66.4715 27.7541 66.7269 28.935 67.2394 29.9557C67.751 30.9764 68.4657 31.7642 69.3836 32.3184C70.3007 32.8725 71.3488 33.1496 72.5279 33.1496C73.6291 33.1496 74.6 32.9018 75.44 32.406C76.2808 31.9103 76.9325 31.1767 77.396 30.2036H82.0619C81.3852 32.2842 80.202 33.9032 78.5121 35.06C76.8214 36.2167 74.8363 36.795 72.5569 36.795C70.6249 36.795 68.8811 36.3527 67.3264 35.4681C65.7709 34.5834 64.5445 33.3533 63.6465 31.7784C62.7485 30.2036 62.2991 28.4151 62.2991 26.4121C62.2999 24.41 62.7485 22.6165 63.6473 21.0308Z" fill="#F6F6F6"/>
<path d="M99.5734 29.7663H87.8372C87.9334 30.9331 88.3397 31.8469 89.0544 32.5079C89.7692 33.1689 90.6481 33.4994 91.6912 33.4994C93.1979 33.4994 94.27 32.8484 94.9076 31.5456H99.2832C98.8197 33.1013 97.9308 34.3799 96.6174 35.3813C95.3032 36.3828 93.6904 36.8836 91.7783 36.8836C90.2327 36.8836 88.8463 36.5389 87.6199 35.8479C86.3927 35.1577 85.4367 34.1812 84.7509 32.9168C84.0652 31.6533 83.7219 30.1953 83.7219 28.542C83.7219 26.8704 84.0594 25.4024 84.736 24.138C85.4118 22.8744 86.3587 21.9022 87.576 21.2212C88.7932 20.541 90.1937 20.2005 91.7775 20.2005C93.3032 20.2005 94.6705 20.531 95.8778 21.1919C97.0851 21.8529 98.022 22.7918 98.6887 24.0061C99.3554 25.2213 99.6887 26.6167 99.6887 28.1915C99.6895 28.7749 99.6506 29.2998 99.5734 29.7663ZM95.4872 27.0248C95.4682 25.9749 95.0909 25.1336 94.3571 24.5019C93.6224 23.8701 92.7244 23.5538 91.6622 23.5538C90.6572 23.5538 89.8123 23.8601 89.1265 24.4726C88.4408 25.0852 88.0204 25.9357 87.8662 27.0248H95.4872Z" fill="#F6F6F6"/>
<path d="M102.201 24.1371C102.848 22.8736 103.727 21.9013 104.838 21.2203C105.949 20.5401 107.19 20.1996 108.562 20.1996C109.759 20.1996 110.807 20.4433 111.706 20.929C112.604 21.4156 113.324 22.0282 113.864 22.7668V20.4625H117.951V36.6207H113.864V34.258C113.343 35.0166 112.623 35.6434 111.706 36.1391C110.788 36.6349 109.73 36.8827 108.533 36.8827C107.18 36.8827 105.949 36.533 104.838 35.8328C103.727 35.1326 102.848 34.1462 102.201 32.8726C101.554 31.599 101.23 30.136 101.23 28.4827C101.231 26.8495 101.554 25.4015 102.201 24.1371ZM113.286 25.989C112.899 25.2797 112.378 24.7347 111.721 24.3558C111.064 23.9769 110.359 23.7874 109.606 23.7874C108.852 23.7874 108.157 23.9727 107.52 24.3416C106.882 24.7113 106.365 25.2505 105.969 25.9607C105.573 26.6709 105.375 27.5113 105.375 28.4836C105.375 29.4559 105.573 30.3063 105.969 31.0357C106.364 31.7651 106.886 32.3243 107.534 32.7124C108.18 33.1013 108.871 33.2957 109.606 33.2957C110.359 33.2957 111.064 33.1063 111.721 32.7274C112.378 32.3485 112.899 31.8043 113.286 31.0941C113.672 30.3847 113.865 29.5335 113.865 28.542C113.865 27.5497 113.671 26.6993 113.286 25.989Z" fill="#F6F6F6"/>
<path d="M127.421 20.9583C128.261 20.4725 129.222 20.2289 130.304 20.2289V24.5161H129.232C127.956 24.5161 126.995 24.8173 126.349 25.4199C125.701 26.0225 125.378 27.0723 125.378 28.5696V36.6198H121.321V20.4625H125.378V22.9704C125.899 22.115 126.58 21.4448 127.421 20.9583Z" fill="#F6F6F6"/>
<path d="M132.297 24.1371C132.944 22.8736 133.823 21.9013 134.934 21.2203C136.044 20.5401 137.286 20.1996 138.658 20.1996C139.855 20.1996 140.903 20.4433 141.802 20.929C142.7 21.4156 143.42 22.0282 143.961 22.7668V20.4625H148.048V36.6207H143.961V34.258C143.44 35.0166 142.72 35.6434 141.802 36.1391C140.884 36.6349 139.827 36.8827 138.629 36.8827C137.276 36.8827 136.045 36.533 134.934 35.8328C133.823 35.1326 132.944 34.1462 132.297 32.8726C131.65 31.599 131.326 30.136 131.326 28.4827C131.326 26.8495 131.65 25.4015 132.297 24.1371ZM143.381 25.989C142.995 25.2797 142.472 24.7347 141.816 24.3558C141.16 23.9769 140.454 23.7874 139.701 23.7874C138.947 23.7874 138.252 23.9727 137.615 24.3416C136.977 24.7113 136.461 25.2505 136.064 25.9607C135.668 26.6709 135.471 27.5113 135.471 28.4836C135.471 29.4559 135.668 30.3063 136.064 31.0357C136.46 31.7651 136.981 32.3243 137.629 32.7124C138.276 33.1013 138.966 33.2957 139.701 33.2957C140.455 33.2957 141.16 33.1063 141.816 32.7274C142.473 32.3485 142.995 31.8043 143.381 31.0941C143.767 30.3847 143.961 29.5335 143.961 28.542C143.961 27.5497 143.767 26.6993 143.381 25.989Z" fill="#F6F6F6"/>
<path d="M165.186 25.6252C164.673 26.5783 163.872 27.3461 162.78 27.9294C161.688 28.5128 160.312 28.8041 158.651 28.8041H155.261V32.5635C155.261 34.8042 153.444 36.6207 151.203 36.6207V16.2629H158.65C160.215 16.2629 161.548 16.5359 162.649 17.0792C163.751 17.6241 164.576 18.3727 165.127 19.325C165.678 20.2781 165.953 21.3572 165.953 22.5623C165.954 23.6514 165.697 24.6721 165.186 25.6252ZM160.969 24.7355C161.51 24.2206 161.781 23.4962 161.781 22.5623C161.781 20.5793 160.68 19.587 158.478 19.587H155.261V25.5075H158.478C159.598 25.5083 160.429 25.2505 160.969 24.7355Z" fill="#E97222"/>
<path d="M167.898 24.1371C168.545 22.8736 169.424 21.9013 170.535 21.2203C171.645 20.5401 172.886 20.1996 174.259 20.1996C175.456 20.1996 176.504 20.4433 177.403 20.929C178.301 21.4156 179.021 22.0282 179.562 22.7668V20.4625H183.648V36.6207H179.562V34.258C179.041 35.0166 178.321 35.6434 177.403 36.1391C176.485 36.6349 175.428 36.8827 174.23 36.8827C172.877 36.8827 171.646 36.533 170.535 35.8328C169.424 35.1326 168.545 34.1462 167.898 32.8726C167.25 31.599 166.927 30.136 166.927 28.4828C166.927 26.8495 167.25 25.4015 167.898 24.1371ZM178.982 25.989C178.595 25.2797 178.074 24.7347 177.417 24.3558C176.76 23.9769 176.055 23.7875 175.302 23.7875C174.548 23.7875 173.853 23.9727 173.216 24.3416C172.578 24.7113 172.061 25.2505 171.665 25.9607C171.269 26.6709 171.071 27.5113 171.071 28.4836C171.071 29.4559 171.27 30.3063 171.665 31.0357C172.061 31.7651 172.582 32.3243 173.23 32.7124C173.876 33.1013 174.567 33.2957 175.302 33.2957C176.056 33.2957 176.76 33.1063 177.417 32.7274C178.074 32.3485 178.595 31.8044 178.982 31.0941C179.368 30.3847 179.561 29.5335 179.561 28.542C179.561 27.5497 179.368 26.6993 178.982 25.989Z" fill="#E97222"/>
<path d="M193.117 20.9582C193.957 20.4725 194.918 20.2288 196 20.2288V24.516H194.928C193.653 24.516 192.692 24.8173 192.045 25.4199C191.397 26.0224 191.074 27.0723 191.074 28.5695V36.6198H187.017V20.4625H191.074V22.9704C191.596 22.115 192.277 21.4448 193.117 20.9582Z" fill="#E97222"/>
<path d="M62.378 46.9105C62.702 47.1265 63.341 47.3065 63.926 47.3065C65.357 47.3065 66.041 46.4875 66.041 45.5515C66.041 44.6605 65.528 44.1655 64.502 43.7695C63.665 43.4455 63.296 43.1665 63.296 42.5995C63.296 42.1855 63.611 41.6905 64.439 41.6905C64.988 41.6905 65.393 41.8615 65.582 41.9785L65.798 41.3395C65.537 41.1865 65.078 41.0425 64.466 41.0425C63.287 41.0425 62.504 41.7445 62.504 42.6895C62.504 43.5355 63.116 44.0575 64.106 44.4175C64.925 44.7235 65.249 45.0565 65.249 45.6145C65.249 46.2265 64.781 46.6495 63.98 46.6495C63.44 46.6495 62.936 46.4785 62.585 46.2535L62.378 46.9105ZM67.9775 47.2075V42.8515H67.1855V47.2075H67.9775ZM67.5815 41.1325C67.2845 41.1325 67.0865 41.3575 67.0865 41.6275C67.0865 41.8975 67.2755 42.1135 67.5635 42.1135C67.8785 42.1135 68.0675 41.8975 68.0675 41.6275C68.0675 41.3485 67.8695 41.1325 67.5815 41.1325ZM69.0879 47.0005C69.3939 47.1805 69.8349 47.3065 70.3119 47.3065C71.3289 47.3065 71.9319 46.7665 71.9319 45.9925C71.9319 45.3445 71.5359 44.9665 70.7889 44.6875C70.2219 44.4625 69.9699 44.3005 69.9699 43.9405C69.9699 43.6165 70.2219 43.3465 70.6899 43.3465C71.0949 43.3465 71.4099 43.4995 71.5809 43.6075L71.7699 43.0315C71.5359 42.8785 71.1489 42.7615 70.7079 42.7615C69.7809 42.7615 69.2049 43.3375 69.2049 44.0395C69.2049 44.5615 69.5739 44.9845 70.3659 45.2725C70.9419 45.4885 71.1669 45.6865 71.1669 46.0645C71.1669 46.4335 70.8969 46.7125 70.3299 46.7125C69.9339 46.7125 69.5199 46.5505 69.2769 46.4065L69.0879 47.0005ZM73.2232 42.0415V42.8515H72.5482V43.4545H73.2232V45.8305C73.2232 46.3435 73.3132 46.7305 73.5292 46.9735C73.7182 47.1805 74.0152 47.3065 74.3842 47.3065C74.6902 47.3065 74.9332 47.2525 75.0862 47.1985L75.0502 46.5955C74.9332 46.6315 74.8072 46.6495 74.5912 46.6495C74.1502 46.6495 73.9972 46.3435 73.9972 45.8035V43.4545H75.1312V42.8515H73.9972V41.8075L73.2232 42.0415ZM79.561 45.1735C79.579 45.0835 79.588 44.9665 79.588 44.8045C79.588 44.0035 79.219 42.7615 77.788 42.7615C76.519 42.7615 75.745 43.7875 75.745 45.1015C75.745 46.4155 76.546 47.3065 77.887 47.3065C78.58 47.3065 79.066 47.1535 79.345 47.0275L79.201 46.4605C78.913 46.5865 78.562 46.6855 77.995 46.6855C77.194 46.6855 76.519 46.2445 76.501 45.1735H79.561ZM76.51 44.6065C76.573 44.0575 76.915 43.3285 77.725 43.3285C78.616 43.3285 78.832 44.1115 78.823 44.6065H76.51ZM80.6588 47.2075H81.4328V44.5885C81.4328 44.4535 81.4508 44.3095 81.4958 44.2015C81.6218 43.8055 81.9908 43.4095 82.4768 43.4095C83.0798 43.4095 83.3858 43.9045 83.3858 44.5975V47.2075H84.1598V44.5165C84.1598 44.3725 84.1868 44.2375 84.2228 44.1205C84.3668 43.7425 84.7088 43.4095 85.1678 43.4095C85.7978 43.4095 86.1128 43.9045 86.1128 44.7505V47.2075H86.8868V44.6515C86.8868 43.1395 86.0318 42.7615 85.4468 42.7615C85.0328 42.7615 84.7538 42.8695 84.4928 43.0675C84.3128 43.2025 84.1328 43.3825 83.9978 43.6345H83.9798C83.7908 43.1215 83.3408 42.7615 82.7558 42.7615C82.0268 42.7615 81.6218 43.1485 81.3788 43.5625H81.3518L81.3158 42.8515H80.6228C80.6408 43.2115 80.6588 43.5715 80.6588 44.0305V47.2075ZM91.3146 44.5345C91.3146 43.6705 90.9906 42.7615 89.6586 42.7615C89.1096 42.7615 88.5786 42.9145 88.2186 43.1395L88.3986 43.6705C88.7046 43.4635 89.1276 43.3465 89.5416 43.3465C90.4326 43.3375 90.5316 43.9945 90.5316 44.3455V44.4355C88.8486 44.4265 87.9126 45.0025 87.9126 46.0555C87.9126 46.6855 88.3626 47.3065 89.2446 47.3065C89.8656 47.3065 90.3336 47.0005 90.5766 46.6585H90.6036L90.6666 47.2075H91.3776C91.3326 46.9105 91.3146 46.5415 91.3146 46.1635V44.5345ZM90.5496 45.7405C90.5496 45.8125 90.5406 45.9025 90.5136 45.9925C90.3876 46.3615 90.0186 46.7215 89.4426 46.7215C89.0466 46.7215 88.7046 46.4875 88.7046 45.9655C88.7046 45.1195 89.6856 44.9665 90.5496 44.9845V45.7405ZM97.6536 40.8175V43.4185H97.6356C97.4376 43.0765 96.9966 42.7615 96.3216 42.7615C95.2686 42.7615 94.3596 43.6435 94.3686 45.0925C94.3686 46.4155 95.1876 47.3065 96.2406 47.3065C96.9516 47.3065 97.4736 46.9375 97.7076 46.4515H97.7346L97.7706 47.2075H98.4726C98.4546 46.9105 98.4366 46.4695 98.4366 46.0825V40.8175H97.6536ZM97.6536 45.3805C97.6536 45.5065 97.6446 45.6145 97.6176 45.7225C97.4736 46.3075 96.9876 46.6675 96.4566 46.6675C95.6106 46.6675 95.1696 45.9385 95.1696 45.0565C95.1696 44.1025 95.6556 43.3825 96.4746 43.3825C97.0686 43.3825 97.5006 43.7965 97.6176 44.2915C97.6446 44.3905 97.6536 44.5255 97.6536 44.6245V45.3805ZM103.355 45.1735C103.373 45.0835 103.382 44.9665 103.382 44.8045C103.382 44.0035 103.013 42.7615 101.582 42.7615C100.313 42.7615 99.5387 43.7875 99.5387 45.1015C99.5387 46.4155 100.34 47.3065 101.681 47.3065C102.374 47.3065 102.86 47.1535 103.139 47.0275L102.995 46.4605C102.707 46.5865 102.356 46.6855 101.789 46.6855C100.988 46.6855 100.313 46.2445 100.295 45.1735H103.355ZM100.304 44.6065C100.367 44.0575 100.709 43.3285 101.519 43.3285C102.41 43.3285 102.626 44.1115 102.617 44.6065H100.304ZM111.103 44.0215H109.105V44.6515H110.329V46.4605C110.149 46.5505 109.798 46.6225 109.285 46.6225C107.863 46.6225 106.945 45.7135 106.945 44.1745C106.945 42.6535 107.908 41.7355 109.384 41.7355C109.996 41.7355 110.401 41.8435 110.725 41.9965L110.923 41.3575C110.662 41.2315 110.104 41.0785 109.402 41.0785C107.368 41.0785 106.117 42.4015 106.117 44.2105C106.117 45.1555 106.441 45.9655 106.963 46.4695C107.557 47.0365 108.313 47.2705 109.231 47.2705C110.05 47.2705 110.752 47.0725 111.103 46.9375V44.0215ZM115.903 45.1735C115.921 45.0835 115.93 44.9665 115.93 44.8045C115.93 44.0035 115.561 42.7615 114.13 42.7615C112.861 42.7615 112.087 43.7875 112.087 45.1015C112.087 46.4155 112.888 47.3065 114.229 47.3065C114.922 47.3065 115.408 47.1535 115.687 47.0275L115.543 46.4605C115.255 46.5865 114.904 46.6855 114.337 46.6855C113.536 46.6855 112.861 46.2445 112.843 45.1735H115.903ZM112.852 44.6065C112.915 44.0575 113.257 43.3285 114.067 43.3285C114.958 43.3285 115.174 44.1115 115.165 44.6065H112.852ZM116.704 47.0005C117.01 47.1805 117.451 47.3065 117.928 47.3065C118.945 47.3065 119.548 46.7665 119.548 45.9925C119.548 45.3445 119.152 44.9665 118.405 44.6875C117.838 44.4625 117.586 44.3005 117.586 43.9405C117.586 43.6165 117.838 43.3465 118.306 43.3465C118.711 43.3465 119.026 43.4995 119.197 43.6075L119.386 43.0315C119.152 42.8785 118.765 42.7615 118.324 42.7615C117.397 42.7615 116.821 43.3375 116.821 44.0395C116.821 44.5615 117.19 44.9845 117.982 45.2725C118.558 45.4885 118.783 45.6865 118.783 46.0645C118.783 46.4335 118.513 46.7125 117.946 46.7125C117.55 46.7125 117.136 46.5505 116.893 46.4065L116.704 47.0005ZM120.839 42.0415V42.8515H120.164V43.4545H120.839V45.8305C120.839 46.3435 120.929 46.7305 121.145 46.9735C121.334 47.1805 121.631 47.3065 122 47.3065C122.306 47.3065 122.549 47.2525 122.702 47.1985L122.666 46.5955C122.549 46.6315 122.423 46.6495 122.207 46.6495C121.766 46.6495 121.613 46.3435 121.613 45.8035V43.4545H122.747V42.8515H121.613V41.8075L120.839 42.0415ZM126.789 44.5345C126.789 43.6705 126.465 42.7615 125.133 42.7615C124.584 42.7615 124.053 42.9145 123.693 43.1395L123.873 43.6705C124.179 43.4635 124.602 43.3465 125.016 43.3465C125.907 43.3375 126.006 43.9945 126.006 44.3455V44.4355C124.323 44.4265 123.387 45.0025 123.387 46.0555C123.387 46.6855 123.837 47.3065 124.719 47.3065C125.34 47.3065 125.808 47.0005 126.051 46.6585H126.078L126.141 47.2075H126.852C126.807 46.9105 126.789 46.5415 126.789 46.1635V44.5345ZM126.024 45.7405C126.024 45.8125 126.015 45.9025 125.988 45.9925C125.862 46.3615 125.493 46.7215 124.917 46.7215C124.521 46.7215 124.179 46.4875 124.179 45.9655C124.179 45.1195 125.16 44.9665 126.024 44.9845V45.7405ZM124.539 42.1045C124.557 41.8525 124.629 41.6995 124.773 41.6995C124.881 41.6995 124.98 41.7535 125.16 41.8615C125.349 41.9605 125.52 42.0505 125.718 42.0505C126.141 42.0505 126.339 41.7355 126.33 41.1415H125.907C125.889 41.4385 125.799 41.5195 125.655 41.5195C125.547 41.5195 125.421 41.4475 125.277 41.3665C125.07 41.2585 124.917 41.1685 124.719 41.1685C124.332 41.1685 124.089 41.5195 124.107 42.1045H124.539ZM130.005 42.7615C128.808 42.7615 127.845 43.6165 127.845 45.0655C127.845 46.4425 128.763 47.3065 129.933 47.3065C130.977 47.3065 132.102 46.6045 132.102 44.9935C132.102 43.6705 131.256 42.7615 130.005 42.7615ZM129.987 43.3555C130.923 43.3555 131.292 44.2825 131.292 45.0205C131.292 46.0015 130.725 46.7125 129.969 46.7125C129.195 46.7125 128.655 45.9925 128.655 45.0385C128.655 44.2195 129.06 43.3555 129.987 43.3555ZM138.157 40.8175V43.4185H138.139C137.941 43.0765 137.5 42.7615 136.825 42.7615C135.772 42.7615 134.863 43.6435 134.872 45.0925C134.872 46.4155 135.691 47.3065 136.744 47.3065C137.455 47.3065 137.977 46.9375 138.211 46.4515H138.238L138.274 47.2075H138.976C138.958 46.9105 138.94 46.4695 138.94 46.0825V40.8175H138.157ZM138.157 45.3805C138.157 45.5065 138.148 45.6145 138.121 45.7225C137.977 46.3075 137.491 46.6675 136.96 46.6675C136.114 46.6675 135.673 45.9385 135.673 45.0565C135.673 44.1025 136.159 43.3825 136.978 43.3825C137.572 43.3825 138.004 43.7965 138.121 44.2915C138.148 44.3905 138.157 44.5255 138.157 44.6245V45.3805ZM143.858 45.1735C143.876 45.0835 143.885 44.9665 143.885 44.8045C143.885 44.0035 143.516 42.7615 142.085 42.7615C140.816 42.7615 140.042 43.7875 140.042 45.1015C140.042 46.4155 140.843 47.3065 142.184 47.3065C142.877 47.3065 143.363 47.1535 143.642 47.0275L143.498 46.4605C143.21 46.5865 142.859 46.6855 142.292 46.6855C141.491 46.6855 140.816 46.2445 140.798 45.1735H143.858ZM140.807 44.6065C140.87 44.0575 141.212 43.3285 142.022 43.3285C142.913 43.3285 143.129 44.1115 143.12 44.6065H140.807ZM146.98 47.2075H147.763V44.7775C147.943 44.8225 148.159 44.8315 148.393 44.8315C149.158 44.8315 149.824 44.6065 150.247 44.1655C150.553 43.8505 150.715 43.4185 150.715 42.8695C150.715 42.3295 150.508 41.8885 150.184 41.6005C149.824 41.2765 149.257 41.0965 148.483 41.0965C147.853 41.0965 147.358 41.1505 146.98 41.2135V47.2075ZM147.763 41.7805C147.898 41.7445 148.159 41.7175 148.501 41.7175C149.356 41.7175 149.932 42.1045 149.932 42.9145C149.932 43.7335 149.356 44.2015 148.411 44.2015C148.15 44.2015 147.934 44.1835 147.763 44.1385V41.7805ZM155.346 42.8515H154.554V45.5155C154.554 45.6685 154.527 45.8125 154.482 45.9205C154.338 46.2805 153.969 46.6495 153.438 46.6495C152.727 46.6495 152.466 46.0825 152.466 45.2545V42.8515H151.674V45.3985C151.674 46.9195 152.493 47.3065 153.177 47.3065C153.951 47.3065 154.419 46.8475 154.617 46.4965H154.635L154.68 47.2075H155.382C155.355 46.8655 155.346 46.4695 155.346 46.0105V42.8515ZM156.748 46.0825C156.748 46.4695 156.73 46.9105 156.712 47.2075H157.387L157.432 46.4965H157.45C157.783 47.0635 158.287 47.3065 158.917 47.3065C159.889 47.3065 160.879 46.5325 160.879 44.9755C160.879 43.6615 160.123 42.7615 159.034 42.7615C158.332 42.7615 157.828 43.0675 157.549 43.5535H157.531V40.8175H156.748V46.0825ZM157.531 44.6875C157.531 44.5615 157.549 44.4535 157.576 44.3545C157.738 43.7605 158.242 43.3825 158.773 43.3825C159.628 43.3825 160.078 44.1295 160.078 45.0025C160.078 46.0015 159.592 46.6765 158.755 46.6765C158.179 46.6765 157.711 46.2985 157.567 45.7495C157.54 45.6595 157.531 45.5605 157.531 45.4615V44.6875ZM161.963 47.2075H162.755V40.8175H161.963V47.2075ZM164.971 47.2075V42.8515H164.179V47.2075H164.971ZM164.575 41.1325C164.278 41.1325 164.08 41.3575 164.08 41.6275C164.08 41.8975 164.269 42.1135 164.557 42.1135C164.872 42.1135 165.061 41.8975 165.061 41.6275C165.061 41.3485 164.863 41.1325 164.575 41.1325ZM169.349 46.4605C169.124 46.5595 168.827 46.6675 168.377 46.6675C167.513 46.6675 166.865 46.0465 166.865 45.0385C166.865 44.1385 167.405 43.3915 168.404 43.3915C168.836 43.3915 169.133 43.4995 169.322 43.5985L169.502 42.9955C169.286 42.8785 168.872 42.7615 168.404 42.7615C166.982 42.7615 166.064 43.7425 166.064 45.0835C166.064 46.4155 166.919 47.3065 168.233 47.3065C168.818 47.3065 169.277 47.1535 169.484 47.0545L169.349 46.4605ZM173.563 44.5345C173.563 43.6705 173.239 42.7615 171.907 42.7615C171.358 42.7615 170.827 42.9145 170.467 43.1395L170.647 43.6705C170.953 43.4635 171.376 43.3465 171.79 43.3465C172.681 43.3375 172.78 43.9945 172.78 44.3455V44.4355C171.097 44.4265 170.161 45.0025 170.161 46.0555C170.161 46.6855 170.611 47.3065 171.493 47.3065C172.114 47.3065 172.582 47.0005 172.825 46.6585H172.852L172.915 47.2075H173.626C173.581 46.9105 173.563 46.5415 173.563 46.1635V44.5345ZM172.798 45.7405C172.798 45.8125 172.789 45.9025 172.762 45.9925C172.636 46.3615 172.267 46.7215 171.691 46.7215C171.295 46.7215 170.953 46.4875 170.953 45.9655C170.953 45.1195 171.934 44.9665 172.798 44.9845V45.7405ZM177.905 46.4515C177.689 46.5505 177.383 46.6585 176.933 46.6585C176.069 46.6585 175.421 46.0375 175.421 45.0385C175.421 44.1295 175.961 43.3915 176.96 43.3915C177.392 43.3915 177.689 43.4995 177.878 43.5985L178.058 42.9955C177.842 42.8785 177.428 42.7615 176.96 42.7615C175.538 42.7615 174.62 43.7425 174.62 45.0745C174.62 46.2805 175.331 47.1355 176.438 47.2705L176.06 47.9635C176.483 48.0085 176.753 48.1075 176.762 48.3415C176.762 48.5575 176.582 48.6295 176.375 48.6295C176.195 48.6295 176.015 48.5845 175.88 48.5035L175.745 48.9085C175.916 49.0075 176.168 49.0615 176.375 49.0615C176.861 49.0615 177.311 48.8545 177.311 48.3145C177.311 47.9455 177.014 47.7205 176.681 47.6575L176.906 47.2975C177.446 47.2885 177.86 47.1355 178.04 47.0455L177.905 46.4515ZM180.842 42.7615C179.645 42.7615 178.682 43.6165 178.682 45.0655C178.682 46.4425 179.6 47.3065 180.77 47.3065C181.814 47.3065 182.939 46.6045 182.939 44.9935C182.939 43.6705 182.093 42.7615 180.842 42.7615ZM180.824 43.3555C181.76 43.3555 182.129 44.2825 182.129 45.0205C182.129 46.0015 181.562 46.7125 180.806 46.7125C180.032 46.7125 179.492 45.9925 179.492 45.0385C179.492 44.2195 179.897 43.3555 180.824 43.3555ZM180.131 42.1045C180.149 41.8525 180.221 41.6995 180.365 41.6995C180.473 41.6995 180.572 41.7535 180.752 41.8615C180.941 41.9605 181.112 42.0505 181.31 42.0505C181.733 42.0505 181.931 41.7355 181.922 41.1415H181.499C181.481 41.4385 181.391 41.5195 181.256 41.5195C181.139 41.5195 181.022 41.4475 180.878 41.3665C180.662 41.2585 180.509 41.1685 180.311 41.1685C179.924 41.1685 179.681 41.5195 179.699 42.1045H180.131ZM187.528 45.1735C187.546 45.0835 187.555 44.9665 187.555 44.8045C187.555 44.0035 187.186 42.7615 185.755 42.7615C184.486 42.7615 183.712 43.7875 183.712 45.1015C183.712 46.4155 184.513 47.3065 185.854 47.3065C186.547 47.3065 187.033 47.1535 187.312 47.0275L187.168 46.4605C186.88 46.5865 186.529 46.6855 185.962 46.6855C185.161 46.6855 184.486 46.2445 184.468 45.1735H187.528ZM184.477 44.6065C184.54 44.0575 184.882 43.3285 185.692 43.3285C186.583 43.3285 186.799 44.1115 186.79 44.6065H184.477ZM188.329 47.0005C188.635 47.1805 189.076 47.3065 189.553 47.3065C190.57 47.3065 191.173 46.7665 191.173 45.9925C191.173 45.3445 190.777 44.9665 190.03 44.6875C189.463 44.4625 189.211 44.3005 189.211 43.9405C189.211 43.6165 189.463 43.3465 189.931 43.3465C190.336 43.3465 190.651 43.4995 190.822 43.6075L191.011 43.0315C190.777 42.8785 190.39 42.7615 189.949 42.7615C189.022 42.7615 188.446 43.3375 188.446 44.0395C188.446 44.5615 188.815 44.9845 189.607 45.2725C190.183 45.4885 190.408 45.6865 190.408 46.0645C190.408 46.4335 190.138 46.7125 189.571 46.7125C189.175 46.7125 188.761 46.5505 188.518 46.4065L188.329 47.0005Z" fill="#E97222"/>
</svg>
