<svg width="197" height="65" viewBox="0 0 197 65" fill="none" xmlns="http://www.w3.org/2000/svg">
<path d="M42.5847 34.9828C42.5847 35.6498 42.5145 36.2998 42.3811 36.9258C42.1061 38.2272 41.5585 39.4249 40.8029 40.4577V40.459L38.8723 42.4085L38.8703 42.4092C38.8568 42.4202 38.842 42.4307 38.8285 42.4405L38.8336 42.447L37.792 43.4987L37.4738 43.8188L28.1757 53.2064L24.3956 49.4091L34.1755 39.5344L34.2863 39.4223L41.9734 31.6608C42.3689 32.691 42.5847 33.8111 42.5847 34.9828Z" fill="#E97222"/>
<path d="M32.2012 25.764L32.0949 25.8716L27.7331 30.2753L16 17.4111V8L32.2012 25.764Z" fill="#F6F6F6"/>
<path d="M51.6824 15.9702C51.6824 18.3148 50.8173 20.4553 49.3911 22.0821L49.3905 22.0827L28.8385 42.8316L28.7883 42.8825L27.802 43.8788L27.3911 44.2928C27.3299 44.3384 27.2751 44.3926 27.23 44.4558L23.3578 48.3659L17.6053 42.5858L49.6797 10.2031C50.9333 11.7816 51.6824 13.7879 51.6824 15.9702Z" fill="#F6F6F6"/>
<path d="M26.6915 31.3276L22.3465 35.713L16 28.7548V19.6045L26.6915 31.3276Z" fill="#F6F6F6"/>
<path d="M21.3106 36.7601L16.5701 41.5459L16 40.9728V30.9383L21.3106 36.7601Z" fill="#F6F6F6"/>
<path d="M52 36.4126C52 39.2489 47.8644 42.9379 47.8644 42.9379L32.9464 58L29.2128 54.2496L33.3329 50.0898C33.3445 50.0787 33.3568 50.0664 33.3677 50.0546L33.4025 50.0194L38.7492 44.6214C38.7892 44.6429 38.8297 44.6632 38.871 44.6827L38.784 44.5875L51.0138 32.2391C51.6451 33.4916 52 34.9104 52 36.4126Z" fill="#F6F6F6"/>
<path d="M64.108 21.091C63.4407 21.091 62.8427 20.9827 62.314 20.766C61.7853 20.5493 61.3607 20.2287 61.04 19.804C60.728 19.3793 60.5633 18.868 60.546 18.27H62.912C62.9467 18.608 63.0637 18.868 63.263 19.05C63.4623 19.2233 63.7223 19.31 64.043 19.31C64.3723 19.31 64.6323 19.2363 64.823 19.089C65.0137 18.933 65.109 18.7207 65.109 18.452C65.109 18.2267 65.031 18.0403 64.875 17.893C64.7277 17.7457 64.5413 17.6243 64.316 17.529C64.0993 17.4337 63.7873 17.3253 63.38 17.204C62.7907 17.022 62.3097 16.84 61.937 16.658C61.5643 16.476 61.2437 16.2073 60.975 15.852C60.7063 15.4967 60.572 15.033 60.572 14.461C60.572 13.6117 60.8797 12.9487 61.495 12.472C62.1103 11.9867 62.912 11.744 63.9 11.744C64.9053 11.744 65.7157 11.9867 66.331 12.472C66.9463 12.9487 67.2757 13.616 67.319 14.474H64.914C64.8967 14.1793 64.7883 13.9497 64.589 13.785C64.3897 13.6117 64.134 13.525 63.822 13.525C63.5533 13.525 63.3367 13.5987 63.172 13.746C63.0073 13.8847 62.925 14.0883 62.925 14.357C62.925 14.6517 63.0637 14.8813 63.341 15.046C63.6183 15.2107 64.0517 15.3883 64.641 15.579C65.2303 15.7783 65.707 15.969 66.071 16.151C66.4437 16.333 66.7643 16.5973 67.033 16.944C67.3017 17.2907 67.436 17.737 67.436 18.283C67.436 18.803 67.3017 19.2753 67.033 19.7C66.773 20.1247 66.3917 20.4627 65.889 20.714C65.3863 20.9653 64.7927 21.091 64.108 21.091ZM72.392 12.992C72.002 12.992 71.6814 12.8793 71.43 12.654C71.1874 12.42 71.066 12.134 71.066 11.796C71.066 11.4493 71.1874 11.1633 71.43 10.938C71.6814 10.704 72.002 10.587 72.392 10.587C72.7734 10.587 73.0854 10.704 73.328 10.938C73.5794 11.1633 73.705 11.4493 73.705 11.796C73.705 12.134 73.5794 12.42 73.328 12.654C73.0854 12.8793 72.7734 12.992 72.392 12.992ZM73.497 13.746V21H71.274V13.746H73.497ZM80.529 21.104C79.8964 21.104 79.333 20.9957 78.839 20.779C78.345 20.5623 77.955 20.2677 77.669 19.895C77.383 19.5137 77.2227 19.089 77.188 18.621H79.385C79.411 18.8723 79.528 19.076 79.736 19.232C79.944 19.388 80.1997 19.466 80.503 19.466C80.7804 19.466 80.9927 19.414 81.14 19.31C81.296 19.1973 81.374 19.0543 81.374 18.881C81.374 18.673 81.2657 18.5213 81.049 18.426C80.8324 18.322 80.4814 18.2093 79.996 18.088C79.476 17.9667 79.0427 17.841 78.696 17.711C78.3494 17.5723 78.0504 17.36 77.799 17.074C77.5477 16.7793 77.422 16.385 77.422 15.891C77.422 15.475 77.5347 15.098 77.76 14.76C77.994 14.4133 78.332 14.1403 78.774 13.941C79.2247 13.7417 79.7577 13.642 80.373 13.642C81.283 13.642 81.998 13.8673 82.518 14.318C83.0467 14.7687 83.35 15.3667 83.428 16.112H81.374C81.3394 15.8607 81.2267 15.6613 81.036 15.514C80.854 15.3667 80.6114 15.293 80.308 15.293C80.048 15.293 79.8487 15.345 79.71 15.449C79.5714 15.5443 79.502 15.6787 79.502 15.852C79.502 16.06 79.6104 16.216 79.827 16.32C80.0524 16.424 80.399 16.528 80.867 16.632C81.4044 16.7707 81.842 16.9093 82.18 17.048C82.518 17.178 82.8127 17.3947 83.064 17.698C83.324 17.9927 83.4584 18.3913 83.467 18.894C83.467 19.3187 83.3457 19.7 83.103 20.038C82.869 20.3673 82.5267 20.6273 82.076 20.818C81.634 21.0087 81.1184 21.104 80.529 21.104ZM91.3401 19.115V21H90.2091C89.4031 21 88.7747 20.805 88.3241 20.415C87.8734 20.0163 87.6481 19.3707 87.6481 18.478V15.592H86.7641V13.746H87.6481V11.978H89.8711V13.746H91.3271V15.592H89.8711V18.504C89.8711 18.7207 89.9231 18.8767 90.0271 18.972C90.1311 19.0673 90.3044 19.115 90.5471 19.115H91.3401ZM101.886 17.256C101.886 17.464 101.873 17.6807 101.847 17.906H96.8163C96.851 18.3567 96.994 18.7033 97.2453 18.946C97.5053 19.18 97.8216 19.297 98.1943 19.297C98.749 19.297 99.1346 19.063 99.3513 18.595H101.717C101.596 19.0717 101.375 19.5007 101.054 19.882C100.742 20.2633 100.348 20.5623 99.8713 20.779C99.3946 20.9957 98.8616 21.104 98.2723 21.104C97.5616 21.104 96.929 20.9523 96.3743 20.649C95.8196 20.3457 95.3863 19.9123 95.0743 19.349C94.7623 18.7857 94.6063 18.127 94.6063 17.373C94.6063 16.619 94.758 15.9603 95.0613 15.397C95.3733 14.8337 95.8066 14.4003 96.3613 14.097C96.916 13.7937 97.553 13.642 98.2723 13.642C98.9743 13.642 99.5983 13.7893 100.144 14.084C100.69 14.3787 101.115 14.799 101.418 15.345C101.73 15.891 101.886 16.528 101.886 17.256ZM99.6113 16.671C99.6113 16.2897 99.4813 15.9863 99.2213 15.761C98.9613 15.5357 98.6363 15.423 98.2463 15.423C97.8736 15.423 97.5573 15.5313 97.2973 15.748C97.046 15.9647 96.89 16.2723 96.8293 16.671H99.6113ZM114.785 13.668C115.686 13.668 116.401 13.941 116.93 14.487C117.467 15.033 117.736 15.7913 117.736 16.762V21H115.526V17.061C115.526 16.593 115.4 16.2333 115.149 15.982C114.906 15.722 114.568 15.592 114.135 15.592C113.702 15.592 113.359 15.722 113.108 15.982C112.865 16.2333 112.744 16.593 112.744 17.061V21H110.534V17.061C110.534 16.593 110.408 16.2333 110.157 15.982C109.914 15.722 109.576 15.592 109.143 15.592C108.71 15.592 108.367 15.722 108.116 15.982C107.873 16.2333 107.752 16.593 107.752 17.061V21H105.529V13.746H107.752V14.656C107.977 14.3527 108.272 14.1143 108.636 13.941C109 13.759 109.412 13.668 109.871 13.668C110.417 13.668 110.902 13.785 111.327 14.019C111.76 14.253 112.098 14.5867 112.341 15.02C112.592 14.6213 112.935 14.2963 113.368 14.045C113.801 13.7937 114.274 13.668 114.785 13.668ZM121.319 17.36C121.319 16.6147 121.457 15.9603 121.735 15.397C122.021 14.8337 122.406 14.4003 122.892 14.097C123.377 13.7937 123.919 13.642 124.517 13.642C125.028 13.642 125.474 13.746 125.856 13.954C126.246 14.162 126.545 14.435 126.753 14.773V13.746H128.976V21H126.753V19.973C126.536 20.311 126.233 20.584 125.843 20.792C125.461 21 125.015 21.104 124.504 21.104C123.914 21.104 123.377 20.9523 122.892 20.649C122.406 20.337 122.021 19.8993 121.735 19.336C121.457 18.764 121.319 18.1053 121.319 17.36ZM126.753 17.373C126.753 16.8183 126.597 16.3807 126.285 16.06C125.981 15.7393 125.609 15.579 125.167 15.579C124.725 15.579 124.348 15.7393 124.036 16.06C123.732 16.372 123.581 16.8053 123.581 17.36C123.581 17.9147 123.732 18.3567 124.036 18.686C124.348 19.0067 124.725 19.167 125.167 19.167C125.609 19.167 125.981 19.0067 126.285 18.686C126.597 18.3653 126.753 17.9277 126.753 17.373ZM137.837 17.36C137.837 16.6147 137.976 15.9603 138.253 15.397C138.539 14.8337 138.925 14.4003 139.41 14.097C139.895 13.7937 140.437 13.642 141.035 13.642C141.512 13.642 141.945 13.7417 142.335 13.941C142.734 14.1403 143.046 14.409 143.271 14.747V11.38H145.494V21H143.271V19.96C143.063 20.3067 142.764 20.584 142.374 20.792C141.993 21 141.546 21.104 141.035 21.104C140.437 21.104 139.895 20.9523 139.41 20.649C138.925 20.337 138.539 19.8993 138.253 19.336C137.976 18.764 137.837 18.1053 137.837 17.36ZM143.271 17.373C143.271 16.8183 143.115 16.3807 142.803 16.06C142.5 15.7393 142.127 15.579 141.685 15.579C141.243 15.579 140.866 15.7393 140.554 16.06C140.251 16.372 140.099 16.8053 140.099 17.36C140.099 17.9147 140.251 18.3567 140.554 18.686C140.866 19.0067 141.243 19.167 141.685 19.167C142.127 19.167 142.5 19.0067 142.803 18.686C143.115 18.3653 143.271 17.9277 143.271 17.373ZM156.41 17.256C156.41 17.464 156.397 17.6807 156.371 17.906H151.34C151.375 18.3567 151.518 18.7033 151.769 18.946C152.029 19.18 152.345 19.297 152.718 19.297C153.273 19.297 153.658 19.063 153.875 18.595H156.241C156.12 19.0717 155.899 19.5007 155.578 19.882C155.266 20.2633 154.872 20.5623 154.395 20.779C153.918 20.9957 153.385 21.104 152.796 21.104C152.085 21.104 151.453 20.9523 150.898 20.649C150.343 20.3457 149.91 19.9123 149.598 19.349C149.286 18.7857 149.13 18.127 149.13 17.373C149.13 16.619 149.282 15.9603 149.585 15.397C149.897 14.8337 150.33 14.4003 150.885 14.097C151.44 13.7937 152.077 13.642 152.796 13.642C153.498 13.642 154.122 13.7893 154.668 14.084C155.214 14.3787 155.639 14.799 155.942 15.345C156.254 15.891 156.41 16.528 156.41 17.256ZM154.135 16.671C154.135 16.2897 154.005 15.9863 153.745 15.761C153.485 15.5357 153.16 15.423 152.77 15.423C152.397 15.423 152.081 15.5313 151.821 15.748C151.57 15.9647 151.414 16.2723 151.353 16.671H154.135Z" fill="#F6F6F6"/>
<path d="M69.504 29.36C69.276 28.94 68.946 28.622 68.514 28.406C68.094 28.178 67.596 28.064 67.02 28.064C66.024 28.064 65.226 28.394 64.626 29.054C64.026 29.702 63.726 30.572 63.726 31.664C63.726 32.828 64.038 33.74 64.662 34.4C65.298 35.048 66.168 35.372 67.272 35.372C68.028 35.372 68.664 35.18 69.18 34.796C69.708 34.412 70.092 33.86 70.332 33.14H66.426V30.872H73.122V33.734C72.894 34.502 72.504 35.216 71.952 35.876C71.412 36.536 70.722 37.07 69.882 37.478C69.042 37.886 68.094 38.09 67.038 38.09C65.79 38.09 64.674 37.82 63.69 37.28C62.718 36.728 61.956 35.966 61.404 34.994C60.864 34.022 60.594 32.912 60.594 31.664C60.594 30.416 60.864 29.306 61.404 28.334C61.956 27.35 62.718 26.588 63.69 26.048C64.662 25.496 65.772 25.22 67.02 25.22C68.532 25.22 69.804 25.586 70.836 26.318C71.88 27.05 72.57 28.064 72.906 29.36H69.504ZM85.0149 32.816C85.0149 33.104 84.9969 33.404 84.9609 33.716H77.9949C78.0429 34.34 78.2409 34.82 78.5889 35.156C78.9489 35.48 79.3869 35.642 79.9029 35.642C80.6709 35.642 81.2049 35.318 81.5049 34.67H84.7809C84.6129 35.33 84.3069 35.924 83.8629 36.452C83.4309 36.98 82.8849 37.394 82.2249 37.694C81.5649 37.994 80.8269 38.144 80.0109 38.144C79.0269 38.144 78.1509 37.934 77.3829 37.514C76.6149 37.094 76.0149 36.494 75.5829 35.714C75.1509 34.934 74.9349 34.022 74.9349 32.978C74.9349 31.934 75.1449 31.022 75.5649 30.242C75.9969 29.462 76.5969 28.862 77.3649 28.442C78.1329 28.022 79.0149 27.812 80.0109 27.812C80.9829 27.812 81.8469 28.016 82.6029 28.424C83.3589 28.832 83.9469 29.414 84.3669 30.17C84.7989 30.926 85.0149 31.808 85.0149 32.816ZM81.8649 32.006C81.8649 31.478 81.6849 31.058 81.3249 30.746C80.9649 30.434 80.5149 30.278 79.9749 30.278C79.4589 30.278 79.0209 30.428 78.6609 30.728C78.3129 31.028 78.0969 31.454 78.0129 32.006H81.8649ZM91.4447 38.144C90.5687 38.144 89.7887 37.994 89.1047 37.694C88.4207 37.394 87.8807 36.986 87.4847 36.47C87.0887 35.942 86.8667 35.354 86.8187 34.706H89.8607C89.8967 35.054 90.0587 35.336 90.3467 35.552C90.6347 35.768 90.9887 35.876 91.4087 35.876C91.7927 35.876 92.0867 35.804 92.2907 35.66C92.5067 35.504 92.6147 35.306 92.6147 35.066C92.6147 34.778 92.4647 34.568 92.1647 34.436C91.8647 34.292 91.3787 34.136 90.7067 33.968C89.9867 33.8 89.3867 33.626 88.9067 33.446C88.4267 33.254 88.0127 32.96 87.6647 32.564C87.3167 32.156 87.1427 31.61 87.1427 30.926C87.1427 30.35 87.2987 29.828 87.6107 29.36C87.9347 28.88 88.4027 28.502 89.0147 28.226C89.6387 27.95 90.3767 27.812 91.2287 27.812C92.4887 27.812 93.4787 28.124 94.1987 28.748C94.9307 29.372 95.3507 30.2 95.4587 31.232H92.6147C92.5667 30.884 92.4107 30.608 92.1467 30.404C91.8947 30.2 91.5587 30.098 91.1387 30.098C90.7787 30.098 90.5027 30.17 90.3107 30.314C90.1187 30.446 90.0227 30.632 90.0227 30.872C90.0227 31.16 90.1727 31.376 90.4727 31.52C90.7847 31.664 91.2647 31.808 91.9127 31.952C92.6567 32.144 93.2627 32.336 93.7307 32.528C94.1987 32.708 94.6067 33.008 94.9547 33.428C95.3147 33.836 95.5007 34.388 95.5127 35.084C95.5127 35.672 95.3447 36.2 95.0087 36.668C94.6847 37.124 94.2107 37.484 93.5867 37.748C92.9747 38.012 92.2607 38.144 91.4447 38.144ZM103.714 35.39V38H102.148C101.032 38 100.162 37.73 99.5378 37.19C98.9138 36.638 98.6018 35.744 98.6018 34.508V30.512H97.3778V27.956H98.6018V25.508H101.68V27.956H103.696V30.512H101.68V34.544C101.68 34.844 101.752 35.06 101.896 35.192C102.04 35.324 102.28 35.39 102.616 35.39H103.714ZM105.536 32.96C105.536 31.928 105.728 31.022 106.112 30.242C106.508 29.462 107.042 28.862 107.714 28.442C108.386 28.022 109.136 27.812 109.964 27.812C110.672 27.812 111.29 27.956 111.818 28.244C112.358 28.532 112.772 28.91 113.06 29.378V27.956H116.138V38H113.06V36.578C112.76 37.046 112.34 37.424 111.8 37.712C111.272 38 110.654 38.144 109.946 38.144C109.13 38.144 108.386 37.934 107.714 37.514C107.042 37.082 106.508 36.476 106.112 35.696C105.728 34.904 105.536 33.992 105.536 32.96ZM113.06 32.978C113.06 32.21 112.844 31.604 112.412 31.16C111.992 30.716 111.476 30.494 110.864 30.494C110.252 30.494 109.73 30.716 109.298 31.16C108.878 31.592 108.668 32.192 108.668 32.96C108.668 33.728 108.878 34.34 109.298 34.796C109.73 35.24 110.252 35.462 110.864 35.462C111.476 35.462 111.992 35.24 112.412 34.796C112.844 34.352 113.06 33.746 113.06 32.978ZM107.606 27.11C107.894 25.334 108.722 24.446 110.09 24.446C110.354 24.446 110.582 24.488 110.774 24.572C110.978 24.644 111.224 24.758 111.512 24.914C111.728 25.034 111.902 25.124 112.034 25.184C112.166 25.232 112.304 25.256 112.448 25.256C112.892 25.256 113.15 24.986 113.222 24.446H114.806C114.518 26.222 113.69 27.11 112.322 27.11C112.058 27.11 111.824 27.074 111.62 27.002C111.428 26.918 111.188 26.798 110.9 26.642C110.684 26.522 110.51 26.438 110.378 26.39C110.246 26.33 110.108 26.3 109.964 26.3C109.52 26.3 109.256 26.57 109.172 27.11H107.606ZM123.657 38.144C122.673 38.144 121.785 37.934 120.993 37.514C120.213 37.094 119.595 36.494 119.139 35.714C118.695 34.934 118.473 34.022 118.473 32.978C118.473 31.946 118.701 31.04 119.157 30.26C119.613 29.468 120.237 28.862 121.029 28.442C121.821 28.022 122.709 27.812 123.693 27.812C124.677 27.812 125.565 28.022 126.357 28.442C127.149 28.862 127.773 29.468 128.229 30.26C128.685 31.04 128.913 31.946 128.913 32.978C128.913 34.01 128.679 34.922 128.211 35.714C127.755 36.494 127.125 37.094 126.321 37.514C125.529 37.934 124.641 38.144 123.657 38.144ZM123.657 35.48C124.245 35.48 124.743 35.264 125.151 34.832C125.571 34.4 125.781 33.782 125.781 32.978C125.781 32.174 125.577 31.556 125.169 31.124C124.773 30.692 124.281 30.476 123.693 30.476C123.093 30.476 122.595 30.692 122.199 31.124C121.803 31.544 121.605 32.162 121.605 32.978C121.605 33.782 121.797 34.4 122.181 34.832C122.577 35.264 123.069 35.48 123.657 35.48ZM135.189 32.96C135.189 31.928 135.381 31.022 135.765 30.242C136.161 29.462 136.695 28.862 137.367 28.442C138.039 28.022 138.789 27.812 139.617 27.812C140.277 27.812 140.877 27.95 141.417 28.226C141.969 28.502 142.401 28.874 142.713 29.342V24.68H145.791V38H142.713V36.56C142.425 37.04 142.011 37.424 141.471 37.712C140.943 38 140.325 38.144 139.617 38.144C138.789 38.144 138.039 37.934 137.367 37.514C136.695 37.082 136.161 36.476 135.765 35.696C135.381 34.904 135.189 33.992 135.189 32.96ZM142.713 32.978C142.713 32.21 142.497 31.604 142.065 31.16C141.645 30.716 141.129 30.494 140.517 30.494C139.905 30.494 139.383 30.716 138.951 31.16C138.531 31.592 138.321 32.192 138.321 32.96C138.321 33.728 138.531 34.34 138.951 34.796C139.383 35.24 139.905 35.462 140.517 35.462C141.129 35.462 141.645 35.24 142.065 34.796C142.497 34.352 142.713 33.746 142.713 32.978ZM158.205 32.816C158.205 33.104 158.187 33.404 158.151 33.716H151.185C151.233 34.34 151.431 34.82 151.779 35.156C152.139 35.48 152.577 35.642 153.093 35.642C153.861 35.642 154.395 35.318 154.695 34.67H157.971C157.803 35.33 157.497 35.924 157.053 36.452C156.621 36.98 156.075 37.394 155.415 37.694C154.755 37.994 154.017 38.144 153.201 38.144C152.217 38.144 151.341 37.934 150.573 37.514C149.805 37.094 149.205 36.494 148.773 35.714C148.341 34.934 148.125 34.022 148.125 32.978C148.125 31.934 148.335 31.022 148.755 30.242C149.187 29.462 149.787 28.862 150.555 28.442C151.323 28.022 152.205 27.812 153.201 27.812C154.173 27.812 155.037 28.016 155.793 28.424C156.549 28.832 157.137 29.414 157.557 30.17C157.989 30.926 158.205 31.808 158.205 32.816ZM155.055 32.006C155.055 31.478 154.875 31.058 154.515 30.746C154.155 30.434 153.705 30.278 153.165 30.278C152.649 30.278 152.211 30.428 151.851 30.728C151.503 31.028 151.287 31.454 151.203 32.006H155.055ZM70.746 46.432C70.746 47.164 70.578 47.836 70.242 48.448C69.906 49.048 69.39 49.534 68.694 49.906C67.998 50.278 67.134 50.464 66.102 50.464H64.194V55H61.116V42.364H66.102C67.11 42.364 67.962 42.538 68.658 42.886C69.354 43.234 69.876 43.714 70.224 44.326C70.572 44.938 70.746 45.64 70.746 46.432ZM65.868 48.016C66.456 48.016 66.894 47.878 67.182 47.602C67.47 47.326 67.614 46.936 67.614 46.432C67.614 45.928 67.47 45.538 67.182 45.262C66.894 44.986 66.456 44.848 65.868 44.848H64.194V48.016H65.868ZM82.9864 44.956V55H79.9084V53.632C79.5964 54.076 79.1704 54.436 78.6304 54.712C78.1024 54.976 77.5144 55.108 76.8664 55.108C76.0984 55.108 75.4204 54.94 74.8324 54.604C74.2444 54.256 73.7884 53.758 73.4644 53.11C73.1404 52.462 72.9784 51.7 72.9784 50.824V44.956H76.0384V50.41C76.0384 51.082 76.2124 51.604 76.5604 51.976C76.9084 52.348 77.3764 52.534 77.9644 52.534C78.5644 52.534 79.0384 52.348 79.3864 51.976C79.7344 51.604 79.9084 51.082 79.9084 50.41V44.956H82.9864ZM88.9953 46.378C89.2833 45.91 89.6973 45.532 90.2373 45.244C90.7773 44.956 91.3953 44.812 92.0913 44.812C92.9193 44.812 93.6693 45.022 94.3413 45.442C95.0133 45.862 95.5413 46.462 95.9253 47.242C96.3213 48.022 96.5193 48.928 96.5193 49.96C96.5193 50.992 96.3213 51.904 95.9253 52.696C95.5413 53.476 95.0133 54.082 94.3413 54.514C93.6693 54.934 92.9193 55.144 92.0913 55.144C91.3833 55.144 90.7653 55.006 90.2373 54.73C89.7093 54.442 89.2953 54.064 88.9953 53.596V55H85.9173V41.68H88.9953V46.378ZM93.3873 49.96C93.3873 49.192 93.1713 48.592 92.7393 48.16C92.3193 47.716 91.7973 47.494 91.1733 47.494C90.5613 47.494 90.0393 47.716 89.6073 48.16C89.1873 48.604 88.9773 49.21 88.9773 49.978C88.9773 50.746 89.1873 51.352 89.6073 51.796C90.0393 52.24 90.5613 52.462 91.1733 52.462C91.7853 52.462 92.3073 52.24 92.7393 51.796C93.1713 51.34 93.3873 50.728 93.3873 49.96ZM101.932 41.68V55H98.8541V41.68H101.932ZM106.431 43.912C105.891 43.912 105.447 43.756 105.099 43.444C104.763 43.12 104.595 42.724 104.595 42.256C104.595 41.776 104.763 41.38 105.099 41.068C105.447 40.744 105.891 40.582 106.431 40.582C106.959 40.582 107.391 40.744 107.727 41.068C108.075 41.38 108.249 41.776 108.249 42.256C108.249 42.724 108.075 43.12 107.727 43.444C107.391 43.756 106.959 43.912 106.431 43.912ZM107.961 44.956V55H104.883V44.956H107.961ZM110.299 49.978C110.299 48.934 110.509 48.022 110.929 47.242C111.361 46.462 111.955 45.862 112.711 45.442C113.479 45.022 114.355 44.812 115.339 44.812C116.599 44.812 117.649 45.142 118.489 45.802C119.341 46.462 119.899 47.392 120.163 48.592H116.887C116.611 47.824 116.077 47.44 115.285 47.44C114.721 47.44 114.271 47.662 113.935 48.106C113.599 48.538 113.431 49.162 113.431 49.978C113.431 50.794 113.599 51.424 113.935 51.868C114.271 52.3 114.721 52.516 115.285 52.516C116.077 52.516 116.611 52.132 116.887 51.364H120.163C119.899 52.54 119.341 53.464 118.489 54.136C117.637 54.808 116.587 55.144 115.339 55.144C114.355 55.144 113.479 54.934 112.711 54.514C111.955 54.094 111.361 53.494 110.929 52.714C110.509 51.934 110.299 51.022 110.299 49.978ZM121.918 49.96C121.918 48.928 122.11 48.022 122.494 47.242C122.89 46.462 123.424 45.862 124.096 45.442C124.768 45.022 125.518 44.812 126.346 44.812C127.054 44.812 127.672 44.956 128.2 45.244C128.74 45.532 129.154 45.91 129.442 46.378V44.956H132.52V55H129.442V53.578C129.142 54.046 128.722 54.424 128.182 54.712C127.654 55 127.036 55.144 126.328 55.144C125.512 55.144 124.768 54.934 124.096 54.514C123.424 54.082 122.89 53.476 122.494 52.696C122.11 51.904 121.918 50.992 121.918 49.96ZM129.442 49.978C129.442 49.21 129.226 48.604 128.794 48.16C128.374 47.716 127.858 47.494 127.246 47.494C126.634 47.494 126.112 47.716 125.68 48.16C125.26 48.592 125.05 49.192 125.05 49.96C125.05 50.728 125.26 51.34 125.68 51.796C126.112 52.24 126.634 52.462 127.246 52.462C127.858 52.462 128.374 52.24 128.794 51.796C129.226 51.352 129.442 50.746 129.442 49.978ZM139.841 52.516C140.633 52.516 141.167 52.132 141.443 51.364H144.719C144.491 52.384 144.035 53.218 143.351 53.866C142.667 54.514 141.815 54.916 140.795 55.072V55.738C141.419 55.738 141.965 55.906 142.433 56.242C142.901 56.59 143.135 57.106 143.135 57.79C143.135 58.474 142.889 58.99 142.397 59.338C141.905 59.698 141.317 59.878 140.633 59.878H137.861V58.186H140.219C140.459 58.186 140.639 58.15 140.759 58.078C140.879 58.006 140.939 57.886 140.939 57.718C140.939 57.55 140.879 57.43 140.759 57.358C140.639 57.298 140.459 57.268 140.219 57.268H138.941V55.072C137.705 54.88 136.715 54.334 135.971 53.434C135.227 52.522 134.855 51.37 134.855 49.978C134.855 48.934 135.065 48.022 135.485 47.242C135.917 46.462 136.511 45.862 137.267 45.442C138.035 45.022 138.911 44.812 139.895 44.812C141.155 44.812 142.205 45.142 143.045 45.802C143.897 46.462 144.455 47.392 144.719 48.592H141.443C141.167 47.824 140.633 47.44 139.841 47.44C139.277 47.44 138.827 47.662 138.491 48.106C138.155 48.538 137.987 49.162 137.987 49.978C137.987 50.794 138.155 51.424 138.491 51.868C138.827 52.3 139.277 52.516 139.841 52.516ZM151.657 55.144C150.673 55.144 149.785 54.934 148.993 54.514C148.213 54.094 147.595 53.494 147.139 52.714C146.695 51.934 146.473 51.022 146.473 49.978C146.473 48.946 146.701 48.04 147.157 47.26C147.613 46.468 148.237 45.862 149.029 45.442C149.821 45.022 150.709 44.812 151.693 44.812C152.677 44.812 153.565 45.022 154.357 45.442C155.149 45.862 155.773 46.468 156.229 47.26C156.685 48.04 156.913 48.946 156.913 49.978C156.913 51.01 156.679 51.922 156.211 52.714C155.755 53.494 155.125 54.094 154.321 54.514C153.529 54.934 152.641 55.144 151.657 55.144ZM151.657 52.48C152.245 52.48 152.743 52.264 153.151 51.832C153.571 51.4 153.781 50.782 153.781 49.978C153.781 49.174 153.577 48.556 153.169 48.124C152.773 47.692 152.281 47.476 151.693 47.476C151.093 47.476 150.595 47.692 150.199 48.124C149.803 48.544 149.605 49.162 149.605 49.978C149.605 50.782 149.797 51.4 150.181 51.832C150.577 52.264 151.069 52.48 151.657 52.48ZM148.327 44.038C148.615 42.262 149.443 41.374 150.811 41.374C151.075 41.374 151.303 41.416 151.495 41.5C151.699 41.572 151.945 41.686 152.233 41.842C152.449 41.962 152.623 42.052 152.755 42.112C152.887 42.16 153.025 42.184 153.169 42.184C153.613 42.184 153.871 41.914 153.943 41.374H155.527C155.239 43.15 154.411 44.038 153.043 44.038C152.779 44.038 152.545 44.002 152.341 43.93C152.149 43.846 151.909 43.726 151.621 43.57C151.405 43.45 151.231 43.366 151.099 43.318C150.967 43.258 150.829 43.228 150.685 43.228C150.241 43.228 149.977 43.498 149.893 44.038H148.327ZM168.734 49.816C168.734 50.104 168.716 50.404 168.68 50.716H161.714C161.762 51.34 161.96 51.82 162.308 52.156C162.668 52.48 163.106 52.642 163.622 52.642C164.39 52.642 164.924 52.318 165.224 51.67H168.5C168.332 52.33 168.026 52.924 167.582 53.452C167.15 53.98 166.604 54.394 165.944 54.694C165.284 54.994 164.546 55.144 163.73 55.144C162.746 55.144 161.87 54.934 161.102 54.514C160.334 54.094 159.734 53.494 159.302 52.714C158.87 51.934 158.654 51.022 158.654 49.978C158.654 48.934 158.864 48.022 159.284 47.242C159.716 46.462 160.316 45.862 161.084 45.442C161.852 45.022 162.734 44.812 163.73 44.812C164.702 44.812 165.566 45.016 166.322 45.424C167.078 45.832 167.666 46.414 168.086 47.17C168.518 47.926 168.734 48.808 168.734 49.816ZM165.584 49.006C165.584 48.478 165.404 48.058 165.044 47.746C164.684 47.434 164.234 47.278 163.694 47.278C163.178 47.278 162.74 47.428 162.38 47.728C162.032 48.028 161.816 48.454 161.732 49.006H165.584ZM175.164 55.144C174.288 55.144 173.508 54.994 172.824 54.694C172.14 54.394 171.6 53.986 171.204 53.47C170.808 52.942 170.586 52.354 170.538 51.706H173.58C173.616 52.054 173.778 52.336 174.066 52.552C174.354 52.768 174.708 52.876 175.128 52.876C175.512 52.876 175.806 52.804 176.01 52.66C176.226 52.504 176.334 52.306 176.334 52.066C176.334 51.778 176.184 51.568 175.884 51.436C175.584 51.292 175.098 51.136 174.426 50.968C173.706 50.8 173.106 50.626 172.626 50.446C172.146 50.254 171.732 49.96 171.384 49.564C171.036 49.156 170.862 48.61 170.862 47.926C170.862 47.35 171.018 46.828 171.33 46.36C171.654 45.88 172.122 45.502 172.734 45.226C173.358 44.95 174.096 44.812 174.948 44.812C176.208 44.812 177.198 45.124 177.918 45.748C178.65 46.372 179.07 47.2 179.178 48.232H176.334C176.286 47.884 176.13 47.608 175.866 47.404C175.614 47.2 175.278 47.098 174.858 47.098C174.498 47.098 174.222 47.17 174.03 47.314C173.838 47.446 173.742 47.632 173.742 47.872C173.742 48.16 173.892 48.376 174.192 48.52C174.504 48.664 174.984 48.808 175.632 48.952C176.376 49.144 176.982 49.336 177.45 49.528C177.918 49.708 178.326 50.008 178.674 50.428C179.034 50.836 179.22 51.388 179.232 52.084C179.232 52.672 179.064 53.2 178.728 53.668C178.404 54.124 177.93 54.484 177.306 54.748C176.694 55.012 175.98 55.144 175.164 55.144Z" fill="#E97222"/>
</svg>
