<svg width="197" height="65" viewBox="0 0 197 65" fill="none" xmlns="http://www.w3.org/2000/svg">
<path d="M42.5847 34.9828C42.5847 35.6498 42.5145 36.2998 42.3811 36.9258C42.1061 38.2272 41.5585 39.4249 40.8029 40.4577V40.459L38.8723 42.4085L38.8703 42.4092C38.8568 42.4202 38.842 42.4307 38.8285 42.4405L38.8336 42.447L37.792 43.4987L37.4738 43.8188L28.1757 53.2064L24.3956 49.4091L34.1755 39.5344L34.2863 39.4223L41.9734 31.6608C42.3689 32.691 42.5847 33.8111 42.5847 34.9828Z" fill="#E97222"/>
<path d="M32.2012 25.764L32.0949 25.8716L27.7331 30.2753L16 17.4111V8L32.2012 25.764Z" fill="#F6F6F6"/>
<path d="M51.6824 15.9702C51.6824 18.3148 50.8173 20.4553 49.3911 22.0821L49.3905 22.0827L28.8385 42.8316L28.7883 42.8825L27.802 43.8788L27.3911 44.2928C27.3299 44.3384 27.2751 44.3926 27.23 44.4558L23.3578 48.3659L17.6053 42.5858L49.6797 10.2031C50.9333 11.7816 51.6824 13.7879 51.6824 15.9702Z" fill="#F6F6F6"/>
<path d="M26.6915 31.3276L22.3465 35.713L16 28.7548V19.6045L26.6915 31.3276Z" fill="#F6F6F6"/>
<path d="M21.3106 36.7601L16.5701 41.5459L16 40.9728V30.9383L21.3106 36.7601Z" fill="#F6F6F6"/>
<path d="M52 36.4126C52 39.2489 47.8644 42.9379 47.8644 42.9379L32.9464 58L29.2128 54.2496L33.3329 50.0898C33.3445 50.0787 33.3568 50.0664 33.3677 50.0546L33.4025 50.0194L38.7492 44.6214C38.7892 44.6429 38.8297 44.6632 38.871 44.6827L38.784 44.5875L51.0138 32.2391C51.6451 33.4916 52 34.9104 52 36.4126Z" fill="#F6F6F6"/>
<path d="M63.792 20.084C63.176 20.084 62.624 19.984 62.136 19.784C61.648 19.584 61.256 19.288 60.96 18.896C60.672 18.504 60.52 18.032 60.504 17.48H62.688C62.72 17.792 62.828 18.032 63.012 18.2C63.196 18.36 63.436 18.44 63.732 18.44C64.036 18.44 64.276 18.372 64.452 18.236C64.628 18.092 64.716 17.896 64.716 17.648C64.716 17.44 64.644 17.268 64.5 17.132C64.364 16.996 64.192 16.884 63.984 16.796C63.784 16.708 63.496 16.608 63.12 16.496C62.576 16.328 62.132 16.16 61.788 15.992C61.444 15.824 61.148 15.576 60.9 15.248C60.652 14.92 60.528 14.492 60.528 13.964C60.528 13.18 60.812 12.568 61.38 12.128C61.948 11.68 62.688 11.456 63.6 11.456C64.528 11.456 65.276 11.68 65.844 12.128C66.412 12.568 66.716 13.184 66.756 13.976H64.536C64.52 13.704 64.42 13.492 64.236 13.34C64.052 13.18 63.816 13.1 63.528 13.1C63.28 13.1 63.08 13.168 62.928 13.304C62.776 13.432 62.7 13.62 62.7 13.868C62.7 14.14 62.828 14.352 63.084 14.504C63.34 14.656 63.74 14.82 64.284 14.996C64.828 15.18 65.268 15.356 65.604 15.524C65.948 15.692 66.244 15.936 66.492 16.256C66.74 16.576 66.864 16.988 66.864 17.492C66.864 17.972 66.74 18.408 66.492 18.8C66.252 19.192 65.9 19.504 65.436 19.736C64.972 19.968 64.424 20.084 63.792 20.084ZM69.6388 12.608C69.2788 12.608 68.9828 12.504 68.7508 12.296C68.5268 12.08 68.4148 11.816 68.4148 11.504C68.4148 11.184 68.5268 10.92 68.7508 10.712C68.9828 10.496 69.2788 10.388 69.6388 10.388C69.9908 10.388 70.2788 10.496 70.5028 10.712C70.7348 10.92 70.8508 11.184 70.8508 11.504C70.8508 11.816 70.7348 12.08 70.5028 12.296C70.2788 12.504 69.9908 12.608 69.6388 12.608ZM70.6588 13.304V20H68.6068V13.304H70.6588ZM75.3499 20.096C74.7659 20.096 74.2459 19.996 73.7899 19.796C73.3339 19.596 72.9739 19.324 72.7099 18.98C72.4459 18.628 72.2979 18.236 72.2659 17.804H74.2939C74.3179 18.036 74.4259 18.224 74.6179 18.368C74.8099 18.512 75.0459 18.584 75.3259 18.584C75.5819 18.584 75.7779 18.536 75.9139 18.44C76.0579 18.336 76.1299 18.204 76.1299 18.044C76.1299 17.852 76.0299 17.712 75.8299 17.624C75.6299 17.528 75.3059 17.424 74.8579 17.312C74.3779 17.2 73.9779 17.084 73.6579 16.964C73.3379 16.836 73.0619 16.64 72.8299 16.376C72.5979 16.104 72.4819 15.74 72.4819 15.284C72.4819 14.9 72.5859 14.552 72.7939 14.24C73.0099 13.92 73.3219 13.668 73.7299 13.484C74.1459 13.3 74.6379 13.208 75.2059 13.208C76.0459 13.208 76.7059 13.416 77.1859 13.832C77.6739 14.248 77.9539 14.8 78.0259 15.488H76.1299C76.0979 15.256 75.9939 15.072 75.8179 14.936C75.6499 14.8 75.4259 14.732 75.1459 14.732C74.9059 14.732 74.7219 14.78 74.5939 14.876C74.4659 14.964 74.4019 15.088 74.4019 15.248C74.4019 15.44 74.5019 15.584 74.7019 15.68C74.9099 15.776 75.2299 15.872 75.6619 15.968C76.1579 16.096 76.5619 16.224 76.8739 16.352C77.1859 16.472 77.4579 16.672 77.6899 16.952C77.9299 17.224 78.0539 17.592 78.0619 18.056C78.0619 18.448 77.9499 18.8 77.7259 19.112C77.5099 19.416 77.1939 19.656 76.7779 19.832C76.3699 20.008 75.8939 20.096 75.3499 20.096ZM83.5293 18.26V20H82.4853C81.7413 20 81.1613 19.82 80.7453 19.46C80.3293 19.092 80.1213 18.496 80.1213 17.672V15.008H79.3053V13.304H80.1213V11.672H82.1733V13.304H83.5173V15.008H82.1733V17.696C82.1733 17.896 82.2213 18.04 82.3173 18.128C82.4133 18.216 82.5733 18.26 82.7973 18.26H83.5293ZM91.4643 16.544C91.4643 16.736 91.4523 16.936 91.4283 17.144H86.7843C86.8163 17.56 86.9483 17.88 87.1803 18.104C87.4203 18.32 87.7123 18.428 88.0563 18.428C88.5683 18.428 88.9243 18.212 89.1243 17.78H91.3083C91.1963 18.22 90.9923 18.616 90.6963 18.968C90.4083 19.32 90.0443 19.596 89.6043 19.796C89.1643 19.996 88.6723 20.096 88.1283 20.096C87.4723 20.096 86.8883 19.956 86.3763 19.676C85.8643 19.396 85.4643 18.996 85.1763 18.476C84.8883 17.956 84.7443 17.348 84.7443 16.652C84.7443 15.956 84.8843 15.348 85.1643 14.828C85.4523 14.308 85.8523 13.908 86.3643 13.628C86.8763 13.348 87.4643 13.208 88.1283 13.208C88.7763 13.208 89.3523 13.344 89.8563 13.616C90.3603 13.888 90.7523 14.276 91.0323 14.78C91.3203 15.284 91.4643 15.872 91.4643 16.544ZM89.3643 16.004C89.3643 15.652 89.2443 15.372 89.0043 15.164C88.7643 14.956 88.4643 14.852 88.1043 14.852C87.7603 14.852 87.4683 14.952 87.2283 15.152C86.9963 15.352 86.8523 15.636 86.7963 16.004H89.3643ZM101.571 13.232C102.403 13.232 103.063 13.484 103.551 13.988C104.047 14.492 104.295 15.192 104.295 16.088V20H102.255V16.364C102.255 15.932 102.139 15.6 101.907 15.368C101.683 15.128 101.371 15.008 100.971 15.008C100.571 15.008 100.255 15.128 100.023 15.368C99.7988 15.6 99.6868 15.932 99.6868 16.364V20H97.6468V16.364C97.6468 15.932 97.5308 15.6 97.2988 15.368C97.0748 15.128 96.7628 15.008 96.3628 15.008C95.9628 15.008 95.6468 15.128 95.4148 15.368C95.1908 15.6 95.0788 15.932 95.0788 16.364V20H93.0268V13.304H95.0788V14.144C95.2868 13.864 95.5588 13.644 95.8948 13.484C96.2308 13.316 96.6108 13.232 97.0348 13.232C97.5388 13.232 97.9868 13.34 98.3788 13.556C98.7788 13.772 99.0908 14.08 99.3148 14.48C99.5468 14.112 99.8628 13.812 100.263 13.58C100.663 13.348 101.099 13.232 101.571 13.232ZM105.802 16.64C105.802 15.952 105.93 15.348 106.186 14.828C106.45 14.308 106.806 13.908 107.254 13.628C107.702 13.348 108.202 13.208 108.754 13.208C109.226 13.208 109.638 13.304 109.99 13.496C110.35 13.688 110.626 13.94 110.818 14.252V13.304H112.87V20H110.818V19.052C110.618 19.364 110.338 19.616 109.978 19.808C109.626 20 109.214 20.096 108.742 20.096C108.198 20.096 107.702 19.956 107.254 19.676C106.806 19.388 106.45 18.984 106.186 18.464C105.93 17.936 105.802 17.328 105.802 16.64ZM110.818 16.652C110.818 16.14 110.674 15.736 110.386 15.44C110.106 15.144 109.762 14.996 109.354 14.996C108.946 14.996 108.598 15.144 108.31 15.44C108.03 15.728 107.89 16.128 107.89 16.64C107.89 17.152 108.03 17.56 108.31 17.864C108.598 18.16 108.946 18.308 109.354 18.308C109.762 18.308 110.106 18.16 110.386 17.864C110.674 17.568 110.818 17.164 110.818 16.652ZM117.449 16.64C117.449 15.952 117.577 15.348 117.833 14.828C118.097 14.308 118.453 13.908 118.901 13.628C119.349 13.348 119.849 13.208 120.401 13.208C120.841 13.208 121.241 13.3 121.601 13.484C121.969 13.668 122.257 13.916 122.465 14.228V11.12H124.517V20H122.465V19.04C122.273 19.36 121.997 19.616 121.637 19.808C121.285 20 120.873 20.096 120.401 20.096C119.849 20.096 119.349 19.956 118.901 19.676C118.453 19.388 118.097 18.984 117.833 18.464C117.577 17.936 117.449 17.328 117.449 16.64ZM122.465 16.652C122.465 16.14 122.321 15.736 122.033 15.44C121.753 15.144 121.409 14.996 121.001 14.996C120.593 14.996 120.245 15.144 119.957 15.44C119.677 15.728 119.537 16.128 119.537 16.64C119.537 17.152 119.677 17.56 119.957 17.864C120.245 18.16 120.593 18.308 121.001 18.308C121.409 18.308 121.753 18.16 122.033 17.864C122.321 17.568 122.465 17.164 122.465 16.652ZM132.794 16.544C132.794 16.736 132.782 16.936 132.758 17.144H128.114C128.146 17.56 128.278 17.88 128.51 18.104C128.75 18.32 129.042 18.428 129.386 18.428C129.898 18.428 130.254 18.212 130.454 17.78H132.638C132.526 18.22 132.322 18.616 132.026 18.968C131.738 19.32 131.374 19.596 130.934 19.796C130.494 19.996 130.002 20.096 129.458 20.096C128.802 20.096 128.218 19.956 127.706 19.676C127.194 19.396 126.794 18.996 126.506 18.476C126.218 17.956 126.074 17.348 126.074 16.652C126.074 15.956 126.214 15.348 126.494 14.828C126.782 14.308 127.182 13.908 127.694 13.628C128.206 13.348 128.794 13.208 129.458 13.208C130.106 13.208 130.682 13.344 131.186 13.616C131.69 13.888 132.082 14.276 132.362 14.78C132.65 15.284 132.794 15.872 132.794 16.544ZM130.694 16.004C130.694 15.652 130.574 15.372 130.334 15.164C130.094 14.956 129.794 14.852 129.434 14.852C129.09 14.852 128.798 14.952 128.558 15.152C128.326 15.352 128.182 15.636 128.126 16.004H130.694Z" fill="#F6F6F6"/>
<path d="M69.504 28.36C69.276 27.94 68.946 27.622 68.514 27.406C68.094 27.178 67.596 27.064 67.02 27.064C66.024 27.064 65.226 27.394 64.626 28.054C64.026 28.702 63.726 29.572 63.726 30.664C63.726 31.828 64.038 32.74 64.662 33.4C65.298 34.048 66.168 34.372 67.272 34.372C68.028 34.372 68.664 34.18 69.18 33.796C69.708 33.412 70.092 32.86 70.332 32.14H66.426V29.872H73.122V32.734C72.894 33.502 72.504 34.216 71.952 34.876C71.412 35.536 70.722 36.07 69.882 36.478C69.042 36.886 68.094 37.09 67.038 37.09C65.79 37.09 64.674 36.82 63.69 36.28C62.718 35.728 61.956 34.966 61.404 33.994C60.864 33.022 60.594 31.912 60.594 30.664C60.594 29.416 60.864 28.306 61.404 27.334C61.956 26.35 62.718 25.588 63.69 25.048C64.662 24.496 65.772 24.22 67.02 24.22C68.532 24.22 69.804 24.586 70.836 25.318C71.88 26.05 72.57 27.064 72.906 28.36H69.504ZM85.0149 31.816C85.0149 32.104 84.9969 32.404 84.9609 32.716H77.9949C78.0429 33.34 78.2409 33.82 78.5889 34.156C78.9489 34.48 79.3869 34.642 79.9029 34.642C80.6709 34.642 81.2049 34.318 81.5049 33.67H84.7809C84.6129 34.33 84.3069 34.924 83.8629 35.452C83.4309 35.98 82.8849 36.394 82.2249 36.694C81.5649 36.994 80.8269 37.144 80.0109 37.144C79.0269 37.144 78.1509 36.934 77.3829 36.514C76.6149 36.094 76.0149 35.494 75.5829 34.714C75.1509 33.934 74.9349 33.022 74.9349 31.978C74.9349 30.934 75.1449 30.022 75.5649 29.242C75.9969 28.462 76.5969 27.862 77.3649 27.442C78.1329 27.022 79.0149 26.812 80.0109 26.812C80.9829 26.812 81.8469 27.016 82.6029 27.424C83.3589 27.832 83.9469 28.414 84.3669 29.17C84.7989 29.926 85.0149 30.808 85.0149 31.816ZM81.8649 31.006C81.8649 30.478 81.6849 30.058 81.3249 29.746C80.9649 29.434 80.5149 29.278 79.9749 29.278C79.4589 29.278 79.0209 29.428 78.6609 29.728C78.3129 30.028 78.0969 30.454 78.0129 31.006H81.8649ZM91.4447 37.144C90.5687 37.144 89.7887 36.994 89.1047 36.694C88.4207 36.394 87.8807 35.986 87.4847 35.47C87.0887 34.942 86.8667 34.354 86.8187 33.706H89.8607C89.8967 34.054 90.0587 34.336 90.3467 34.552C90.6347 34.768 90.9887 34.876 91.4087 34.876C91.7927 34.876 92.0867 34.804 92.2907 34.66C92.5067 34.504 92.6147 34.306 92.6147 34.066C92.6147 33.778 92.4647 33.568 92.1647 33.436C91.8647 33.292 91.3787 33.136 90.7067 32.968C89.9867 32.8 89.3867 32.626 88.9067 32.446C88.4267 32.254 88.0127 31.96 87.6647 31.564C87.3167 31.156 87.1427 30.61 87.1427 29.926C87.1427 29.35 87.2987 28.828 87.6107 28.36C87.9347 27.88 88.4027 27.502 89.0147 27.226C89.6387 26.95 90.3767 26.812 91.2287 26.812C92.4887 26.812 93.4787 27.124 94.1987 27.748C94.9307 28.372 95.3507 29.2 95.4587 30.232H92.6147C92.5667 29.884 92.4107 29.608 92.1467 29.404C91.8947 29.2 91.5587 29.098 91.1387 29.098C90.7787 29.098 90.5027 29.17 90.3107 29.314C90.1187 29.446 90.0227 29.632 90.0227 29.872C90.0227 30.16 90.1727 30.376 90.4727 30.52C90.7847 30.664 91.2647 30.808 91.9127 30.952C92.6567 31.144 93.2627 31.336 93.7307 31.528C94.1987 31.708 94.6067 32.008 94.9547 32.428C95.3147 32.836 95.5007 33.388 95.5127 34.084C95.5127 34.672 95.3447 35.2 95.0087 35.668C94.6847 36.124 94.2107 36.484 93.5867 36.748C92.9747 37.012 92.2607 37.144 91.4447 37.144ZM103.714 34.39V37H102.148C101.032 37 100.162 36.73 99.5378 36.19C98.9138 35.638 98.6018 34.744 98.6018 33.508V29.512H97.3778V26.956H98.6018V24.508H101.68V26.956H103.696V29.512H101.68V33.544C101.68 33.844 101.752 34.06 101.896 34.192C102.04 34.324 102.28 34.39 102.616 34.39H103.714ZM105.536 31.96C105.536 30.928 105.728 30.022 106.112 29.242C106.508 28.462 107.042 27.862 107.714 27.442C108.386 27.022 109.136 26.812 109.964 26.812C110.672 26.812 111.29 26.956 111.818 27.244C112.358 27.532 112.772 27.91 113.06 28.378V26.956H116.138V37H113.06V35.578C112.76 36.046 112.34 36.424 111.8 36.712C111.272 37 110.654 37.144 109.946 37.144C109.13 37.144 108.386 36.934 107.714 36.514C107.042 36.082 106.508 35.476 106.112 34.696C105.728 33.904 105.536 32.992 105.536 31.96ZM113.06 31.978C113.06 31.21 112.844 30.604 112.412 30.16C111.992 29.716 111.476 29.494 110.864 29.494C110.252 29.494 109.73 29.716 109.298 30.16C108.878 30.592 108.668 31.192 108.668 31.96C108.668 32.728 108.878 33.34 109.298 33.796C109.73 34.24 110.252 34.462 110.864 34.462C111.476 34.462 111.992 34.24 112.412 33.796C112.844 33.352 113.06 32.746 113.06 31.978ZM107.606 26.11C107.894 24.334 108.722 23.446 110.09 23.446C110.354 23.446 110.582 23.488 110.774 23.572C110.978 23.644 111.224 23.758 111.512 23.914C111.728 24.034 111.902 24.124 112.034 24.184C112.166 24.232 112.304 24.256 112.448 24.256C112.892 24.256 113.15 23.986 113.222 23.446H114.806C114.518 25.222 113.69 26.11 112.322 26.11C112.058 26.11 111.824 26.074 111.62 26.002C111.428 25.918 111.188 25.798 110.9 25.642C110.684 25.522 110.51 25.438 110.378 25.39C110.246 25.33 110.108 25.3 109.964 25.3C109.52 25.3 109.256 25.57 109.172 26.11H107.606ZM123.657 37.144C122.673 37.144 121.785 36.934 120.993 36.514C120.213 36.094 119.595 35.494 119.139 34.714C118.695 33.934 118.473 33.022 118.473 31.978C118.473 30.946 118.701 30.04 119.157 29.26C119.613 28.468 120.237 27.862 121.029 27.442C121.821 27.022 122.709 26.812 123.693 26.812C124.677 26.812 125.565 27.022 126.357 27.442C127.149 27.862 127.773 28.468 128.229 29.26C128.685 30.04 128.913 30.946 128.913 31.978C128.913 33.01 128.679 33.922 128.211 34.714C127.755 35.494 127.125 36.094 126.321 36.514C125.529 36.934 124.641 37.144 123.657 37.144ZM123.657 34.48C124.245 34.48 124.743 34.264 125.151 33.832C125.571 33.4 125.781 32.782 125.781 31.978C125.781 31.174 125.577 30.556 125.169 30.124C124.773 29.692 124.281 29.476 123.693 29.476C123.093 29.476 122.595 29.692 122.199 30.124C121.803 30.544 121.605 31.162 121.605 31.978C121.605 32.782 121.797 33.4 122.181 33.832C122.577 34.264 123.069 34.48 123.657 34.48ZM135.189 31.96C135.189 30.928 135.381 30.022 135.765 29.242C136.161 28.462 136.695 27.862 137.367 27.442C138.039 27.022 138.789 26.812 139.617 26.812C140.277 26.812 140.877 26.95 141.417 27.226C141.969 27.502 142.401 27.874 142.713 28.342V23.68H145.791V37H142.713V35.56C142.425 36.04 142.011 36.424 141.471 36.712C140.943 37 140.325 37.144 139.617 37.144C138.789 37.144 138.039 36.934 137.367 36.514C136.695 36.082 136.161 35.476 135.765 34.696C135.381 33.904 135.189 32.992 135.189 31.96ZM142.713 31.978C142.713 31.21 142.497 30.604 142.065 30.16C141.645 29.716 141.129 29.494 140.517 29.494C139.905 29.494 139.383 29.716 138.951 30.16C138.531 30.592 138.321 31.192 138.321 31.96C138.321 32.728 138.531 33.34 138.951 33.796C139.383 34.24 139.905 34.462 140.517 34.462C141.129 34.462 141.645 34.24 142.065 33.796C142.497 33.352 142.713 32.746 142.713 31.978ZM158.205 31.816C158.205 32.104 158.187 32.404 158.151 32.716H151.185C151.233 33.34 151.431 33.82 151.779 34.156C152.139 34.48 152.577 34.642 153.093 34.642C153.861 34.642 154.395 34.318 154.695 33.67H157.971C157.803 34.33 157.497 34.924 157.053 35.452C156.621 35.98 156.075 36.394 155.415 36.694C154.755 36.994 154.017 37.144 153.201 37.144C152.217 37.144 151.341 36.934 150.573 36.514C149.805 36.094 149.205 35.494 148.773 34.714C148.341 33.934 148.125 33.022 148.125 31.978C148.125 30.934 148.335 30.022 148.755 29.242C149.187 28.462 149.787 27.862 150.555 27.442C151.323 27.022 152.205 26.812 153.201 26.812C154.173 26.812 155.037 27.016 155.793 27.424C156.549 27.832 157.137 28.414 157.557 29.17C157.989 29.926 158.205 30.808 158.205 31.816ZM155.055 31.006C155.055 30.478 154.875 30.058 154.515 29.746C154.155 29.434 153.705 29.278 153.165 29.278C152.649 29.278 152.211 29.428 151.851 29.728C151.503 30.028 151.287 30.454 151.203 31.006H155.055ZM70.746 45.432C70.746 46.164 70.578 46.836 70.242 47.448C69.906 48.048 69.39 48.534 68.694 48.906C67.998 49.278 67.134 49.464 66.102 49.464H64.194V54H61.116V41.364H66.102C67.11 41.364 67.962 41.538 68.658 41.886C69.354 42.234 69.876 42.714 70.224 43.326C70.572 43.938 70.746 44.64 70.746 45.432ZM65.868 47.016C66.456 47.016 66.894 46.878 67.182 46.602C67.47 46.326 67.614 45.936 67.614 45.432C67.614 44.928 67.47 44.538 67.182 44.262C66.894 43.986 66.456 43.848 65.868 43.848H64.194V47.016H65.868ZM82.9864 43.956V54H79.9084V52.632C79.5964 53.076 79.1704 53.436 78.6304 53.712C78.1024 53.976 77.5144 54.108 76.8664 54.108C76.0984 54.108 75.4204 53.94 74.8324 53.604C74.2444 53.256 73.7884 52.758 73.4644 52.11C73.1404 51.462 72.9784 50.7 72.9784 49.824V43.956H76.0384V49.41C76.0384 50.082 76.2124 50.604 76.5604 50.976C76.9084 51.348 77.3764 51.534 77.9644 51.534C78.5644 51.534 79.0384 51.348 79.3864 50.976C79.7344 50.604 79.9084 50.082 79.9084 49.41V43.956H82.9864ZM88.9953 45.378C89.2833 44.91 89.6973 44.532 90.2373 44.244C90.7773 43.956 91.3953 43.812 92.0913 43.812C92.9193 43.812 93.6693 44.022 94.3413 44.442C95.0133 44.862 95.5413 45.462 95.9253 46.242C96.3213 47.022 96.5193 47.928 96.5193 48.96C96.5193 49.992 96.3213 50.904 95.9253 51.696C95.5413 52.476 95.0133 53.082 94.3413 53.514C93.6693 53.934 92.9193 54.144 92.0913 54.144C91.3833 54.144 90.7653 54.006 90.2373 53.73C89.7093 53.442 89.2953 53.064 88.9953 52.596V54H85.9173V40.68H88.9953V45.378ZM93.3873 48.96C93.3873 48.192 93.1713 47.592 92.7393 47.16C92.3193 46.716 91.7973 46.494 91.1733 46.494C90.5613 46.494 90.0393 46.716 89.6073 47.16C89.1873 47.604 88.9773 48.21 88.9773 48.978C88.9773 49.746 89.1873 50.352 89.6073 50.796C90.0393 51.24 90.5613 51.462 91.1733 51.462C91.7853 51.462 92.3073 51.24 92.7393 50.796C93.1713 50.34 93.3873 49.728 93.3873 48.96ZM101.932 40.68V54H98.8541V40.68H101.932ZM106.431 42.912C105.891 42.912 105.447 42.756 105.099 42.444C104.763 42.12 104.595 41.724 104.595 41.256C104.595 40.776 104.763 40.38 105.099 40.068C105.447 39.744 105.891 39.582 106.431 39.582C106.959 39.582 107.391 39.744 107.727 40.068C108.075 40.38 108.249 40.776 108.249 41.256C108.249 41.724 108.075 42.12 107.727 42.444C107.391 42.756 106.959 42.912 106.431 42.912ZM107.961 43.956V54H104.883V43.956H107.961ZM110.299 48.978C110.299 47.934 110.509 47.022 110.929 46.242C111.361 45.462 111.955 44.862 112.711 44.442C113.479 44.022 114.355 43.812 115.339 43.812C116.599 43.812 117.649 44.142 118.489 44.802C119.341 45.462 119.899 46.392 120.163 47.592H116.887C116.611 46.824 116.077 46.44 115.285 46.44C114.721 46.44 114.271 46.662 113.935 47.106C113.599 47.538 113.431 48.162 113.431 48.978C113.431 49.794 113.599 50.424 113.935 50.868C114.271 51.3 114.721 51.516 115.285 51.516C116.077 51.516 116.611 51.132 116.887 50.364H120.163C119.899 51.54 119.341 52.464 118.489 53.136C117.637 53.808 116.587 54.144 115.339 54.144C114.355 54.144 113.479 53.934 112.711 53.514C111.955 53.094 111.361 52.494 110.929 51.714C110.509 50.934 110.299 50.022 110.299 48.978ZM121.918 48.96C121.918 47.928 122.11 47.022 122.494 46.242C122.89 45.462 123.424 44.862 124.096 44.442C124.768 44.022 125.518 43.812 126.346 43.812C127.054 43.812 127.672 43.956 128.2 44.244C128.74 44.532 129.154 44.91 129.442 45.378V43.956H132.52V54H129.442V52.578C129.142 53.046 128.722 53.424 128.182 53.712C127.654 54 127.036 54.144 126.328 54.144C125.512 54.144 124.768 53.934 124.096 53.514C123.424 53.082 122.89 52.476 122.494 51.696C122.11 50.904 121.918 49.992 121.918 48.96ZM129.442 48.978C129.442 48.21 129.226 47.604 128.794 47.16C128.374 46.716 127.858 46.494 127.246 46.494C126.634 46.494 126.112 46.716 125.68 47.16C125.26 47.592 125.05 48.192 125.05 48.96C125.05 49.728 125.26 50.34 125.68 50.796C126.112 51.24 126.634 51.462 127.246 51.462C127.858 51.462 128.374 51.24 128.794 50.796C129.226 50.352 129.442 49.746 129.442 48.978ZM139.841 51.516C140.633 51.516 141.167 51.132 141.443 50.364H144.719C144.491 51.384 144.035 52.218 143.351 52.866C142.667 53.514 141.815 53.916 140.795 54.072V54.738C141.419 54.738 141.965 54.906 142.433 55.242C142.901 55.59 143.135 56.106 143.135 56.79C143.135 57.474 142.889 57.99 142.397 58.338C141.905 58.698 141.317 58.878 140.633 58.878H137.861V57.186H140.219C140.459 57.186 140.639 57.15 140.759 57.078C140.879 57.006 140.939 56.886 140.939 56.718C140.939 56.55 140.879 56.43 140.759 56.358C140.639 56.298 140.459 56.268 140.219 56.268H138.941V54.072C137.705 53.88 136.715 53.334 135.971 52.434C135.227 51.522 134.855 50.37 134.855 48.978C134.855 47.934 135.065 47.022 135.485 46.242C135.917 45.462 136.511 44.862 137.267 44.442C138.035 44.022 138.911 43.812 139.895 43.812C141.155 43.812 142.205 44.142 143.045 44.802C143.897 45.462 144.455 46.392 144.719 47.592H141.443C141.167 46.824 140.633 46.44 139.841 46.44C139.277 46.44 138.827 46.662 138.491 47.106C138.155 47.538 137.987 48.162 137.987 48.978C137.987 49.794 138.155 50.424 138.491 50.868C138.827 51.3 139.277 51.516 139.841 51.516ZM151.657 54.144C150.673 54.144 149.785 53.934 148.993 53.514C148.213 53.094 147.595 52.494 147.139 51.714C146.695 50.934 146.473 50.022 146.473 48.978C146.473 47.946 146.701 47.04 147.157 46.26C147.613 45.468 148.237 44.862 149.029 44.442C149.821 44.022 150.709 43.812 151.693 43.812C152.677 43.812 153.565 44.022 154.357 44.442C155.149 44.862 155.773 45.468 156.229 46.26C156.685 47.04 156.913 47.946 156.913 48.978C156.913 50.01 156.679 50.922 156.211 51.714C155.755 52.494 155.125 53.094 154.321 53.514C153.529 53.934 152.641 54.144 151.657 54.144ZM151.657 51.48C152.245 51.48 152.743 51.264 153.151 50.832C153.571 50.4 153.781 49.782 153.781 48.978C153.781 48.174 153.577 47.556 153.169 47.124C152.773 46.692 152.281 46.476 151.693 46.476C151.093 46.476 150.595 46.692 150.199 47.124C149.803 47.544 149.605 48.162 149.605 48.978C149.605 49.782 149.797 50.4 150.181 50.832C150.577 51.264 151.069 51.48 151.657 51.48ZM148.327 43.038C148.615 41.262 149.443 40.374 150.811 40.374C151.075 40.374 151.303 40.416 151.495 40.5C151.699 40.572 151.945 40.686 152.233 40.842C152.449 40.962 152.623 41.052 152.755 41.112C152.887 41.16 153.025 41.184 153.169 41.184C153.613 41.184 153.871 40.914 153.943 40.374H155.527C155.239 42.15 154.411 43.038 153.043 43.038C152.779 43.038 152.545 43.002 152.341 42.93C152.149 42.846 151.909 42.726 151.621 42.57C151.405 42.45 151.231 42.366 151.099 42.318C150.967 42.258 150.829 42.228 150.685 42.228C150.241 42.228 149.977 42.498 149.893 43.038H148.327ZM168.734 48.816C168.734 49.104 168.716 49.404 168.68 49.716H161.714C161.762 50.34 161.96 50.82 162.308 51.156C162.668 51.48 163.106 51.642 163.622 51.642C164.39 51.642 164.924 51.318 165.224 50.67H168.5C168.332 51.33 168.026 51.924 167.582 52.452C167.15 52.98 166.604 53.394 165.944 53.694C165.284 53.994 164.546 54.144 163.73 54.144C162.746 54.144 161.87 53.934 161.102 53.514C160.334 53.094 159.734 52.494 159.302 51.714C158.87 50.934 158.654 50.022 158.654 48.978C158.654 47.934 158.864 47.022 159.284 46.242C159.716 45.462 160.316 44.862 161.084 44.442C161.852 44.022 162.734 43.812 163.73 43.812C164.702 43.812 165.566 44.016 166.322 44.424C167.078 44.832 167.666 45.414 168.086 46.17C168.518 46.926 168.734 47.808 168.734 48.816ZM165.584 48.006C165.584 47.478 165.404 47.058 165.044 46.746C164.684 46.434 164.234 46.278 163.694 46.278C163.178 46.278 162.74 46.428 162.38 46.728C162.032 47.028 161.816 47.454 161.732 48.006H165.584ZM175.164 54.144C174.288 54.144 173.508 53.994 172.824 53.694C172.14 53.394 171.6 52.986 171.204 52.47C170.808 51.942 170.586 51.354 170.538 50.706H173.58C173.616 51.054 173.778 51.336 174.066 51.552C174.354 51.768 174.708 51.876 175.128 51.876C175.512 51.876 175.806 51.804 176.01 51.66C176.226 51.504 176.334 51.306 176.334 51.066C176.334 50.778 176.184 50.568 175.884 50.436C175.584 50.292 175.098 50.136 174.426 49.968C173.706 49.8 173.106 49.626 172.626 49.446C172.146 49.254 171.732 48.96 171.384 48.564C171.036 48.156 170.862 47.61 170.862 46.926C170.862 46.35 171.018 45.828 171.33 45.36C171.654 44.88 172.122 44.502 172.734 44.226C173.358 43.95 174.096 43.812 174.948 43.812C176.208 43.812 177.198 44.124 177.918 44.748C178.65 45.372 179.07 46.2 179.178 47.232H176.334C176.286 46.884 176.13 46.608 175.866 46.404C175.614 46.2 175.278 46.098 174.858 46.098C174.498 46.098 174.222 46.17 174.03 46.314C173.838 46.446 173.742 46.632 173.742 46.872C173.742 47.16 173.892 47.376 174.192 47.52C174.504 47.664 174.984 47.808 175.632 47.952C176.376 48.144 176.982 48.336 177.45 48.528C177.918 48.708 178.326 49.008 178.674 49.428C179.034 49.836 179.22 50.388 179.232 51.084C179.232 51.672 179.064 52.2 178.728 52.668C178.404 53.124 177.93 53.484 177.306 53.748C176.694 54.012 175.98 54.144 175.164 54.144Z" fill="#E97222"/>
</svg>
