<svg width="581" height="646" viewBox="0 0 581 646" fill="none" xmlns="http://www.w3.org/2000/svg">
<path d="M383.353 254.162C383.353 260.272 382.679 266.226 381.398 271.96C378.756 283.881 373.496 294.852 366.238 304.312V304.324L347.694 322.182L347.676 322.188C347.546 322.289 347.404 322.385 347.274 322.475L347.323 322.534L337.318 332.168L334.261 335.1L244.951 421.091L208.642 386.308L302.581 295.856L303.645 294.828L377.481 223.733C381.28 233.169 383.353 243.43 383.353 254.162Z" fill="#003333"/>
<path d="M283.617 169.718L282.596 170.704L240.7 211.041L128 93.2057V7L283.617 169.718Z" fill="#F6F6F6"/>
<path d="M470.74 80.0066C470.74 101.483 462.43 121.091 448.731 135.992L448.725 135.998L251.318 326.058L250.835 326.524L241.362 335.65L237.414 339.442C236.826 339.86 236.3 340.356 235.867 340.935L198.674 376.752L143.419 323.806L451.503 27.1807C463.544 41.6399 470.74 60.017 470.74 80.0066Z" fill="#F6F6F6"/>
<path d="M230.694 220.681L188.96 260.851L128 197.114V113.297L230.694 220.681Z" fill="#F6F6F6"/>
<path d="M179.01 270.443L133.476 314.28L128 309.031V217.115L179.01 270.443Z" fill="#F6F6F6"/>
<path d="M473.79 267.26C473.79 293.24 434.066 327.031 434.066 327.031L290.775 465L254.912 430.647L294.488 392.543C294.599 392.441 294.717 392.328 294.822 392.22L295.156 391.898L346.513 342.452C346.896 342.649 347.286 342.834 347.682 343.014L346.847 342.142L464.317 229.03C470.381 240.503 473.79 253.499 473.79 267.26Z" fill="#F6F6F6"/>
<path d="M122.285 511.272C120.289 511.272 118.501 510.948 116.92 510.3C115.339 509.652 114.069 508.693 113.11 507.423C112.177 506.153 111.685 504.624 111.633 502.836H118.708C118.812 503.847 119.162 504.624 119.758 505.168C120.354 505.687 121.132 505.946 122.091 505.946C123.076 505.946 123.853 505.726 124.423 505.285C124.994 504.819 125.279 504.184 125.279 503.38C125.279 502.706 125.045 502.149 124.579 501.708C124.138 501.268 123.581 500.905 122.907 500.62C122.259 500.335 121.326 500.011 120.108 499.648C118.346 499.104 116.907 498.559 115.793 498.015C114.678 497.471 113.719 496.667 112.916 495.605C112.112 494.542 111.711 493.155 111.711 491.445C111.711 488.905 112.631 486.922 114.471 485.497C116.311 484.045 118.708 483.32 121.663 483.32C124.67 483.32 127.093 484.045 128.933 485.497C130.773 486.922 131.758 488.918 131.888 491.484H124.695C124.644 490.603 124.32 489.916 123.724 489.423C123.127 488.905 122.363 488.646 121.43 488.646C120.626 488.646 119.978 488.866 119.486 489.307C118.994 489.721 118.747 490.33 118.747 491.134C118.747 492.015 119.162 492.702 119.991 493.194C120.821 493.687 122.117 494.218 123.879 494.788C125.641 495.384 127.067 495.955 128.156 496.499C129.27 497.043 130.229 497.834 131.032 498.87C131.836 499.907 132.238 501.242 132.238 502.875C132.238 504.43 131.836 505.842 131.032 507.112C130.255 508.382 129.115 509.393 127.611 510.145C126.108 510.896 124.333 511.272 122.285 511.272ZM154.834 487.052C153.668 487.052 152.709 486.715 151.957 486.041C151.232 485.341 150.869 484.486 150.869 483.475C150.869 482.438 151.232 481.583 151.957 480.909C152.709 480.209 153.668 479.86 154.834 479.86C155.975 479.86 156.908 480.209 157.633 480.909C158.385 481.583 158.761 482.438 158.761 483.475C158.761 484.486 158.385 485.341 157.633 486.041C156.908 486.715 155.975 487.052 154.834 487.052ZM158.139 489.307V511H151.491V489.307H158.139ZM186.944 511.311C185.052 511.311 183.367 510.987 181.89 510.339C180.412 509.691 179.246 508.81 178.391 507.695C177.535 506.555 177.056 505.285 176.952 503.886H183.522C183.6 504.637 183.95 505.246 184.572 505.713C185.194 506.179 185.959 506.413 186.866 506.413C187.695 506.413 188.33 506.257 188.771 505.946C189.237 505.609 189.471 505.181 189.471 504.663C189.471 504.041 189.147 503.587 188.499 503.302C187.851 502.991 186.801 502.654 185.35 502.292C183.795 501.929 182.499 501.553 181.462 501.164C180.425 500.749 179.531 500.114 178.779 499.259C178.028 498.378 177.652 497.199 177.652 495.721C177.652 494.477 177.989 493.35 178.663 492.339C179.363 491.302 180.373 490.486 181.695 489.89C183.043 489.294 184.637 488.996 186.477 488.996C189.198 488.996 191.337 489.67 192.892 491.017C194.473 492.365 195.38 494.153 195.613 496.382H189.471C189.367 495.631 189.03 495.035 188.46 494.594C187.916 494.153 187.19 493.933 186.283 493.933C185.505 493.933 184.909 494.089 184.494 494.4C184.08 494.685 183.872 495.086 183.872 495.605C183.872 496.227 184.196 496.693 184.844 497.004C185.518 497.315 186.555 497.626 187.954 497.937C189.561 498.352 190.87 498.767 191.881 499.181C192.892 499.57 193.773 500.218 194.525 501.125C195.302 502.006 195.704 503.199 195.73 504.702C195.73 505.972 195.367 507.112 194.641 508.123C193.941 509.108 192.918 509.886 191.57 510.456C190.248 511.026 188.706 511.311 186.944 511.311ZM227.05 505.363V511H223.667C221.257 511 219.378 510.417 218.03 509.251C216.683 508.058 216.009 506.127 216.009 503.458V494.827H213.365V489.307H216.009V484.019H222.657V489.307H227.011V494.827H222.657V503.536C222.657 504.184 222.812 504.65 223.123 504.935C223.434 505.22 223.953 505.363 224.678 505.363H227.05ZM266.364 499.803C266.364 500.425 266.325 501.073 266.247 501.747H251.202C251.306 503.095 251.733 504.132 252.485 504.857C253.263 505.557 254.209 505.907 255.323 505.907C256.982 505.907 258.135 505.207 258.783 503.808H265.859C265.496 505.233 264.835 506.516 263.876 507.657C262.943 508.797 261.764 509.691 260.338 510.339C258.913 510.987 257.319 511.311 255.556 511.311C253.431 511.311 251.539 510.857 249.88 509.95C248.221 509.043 246.926 507.747 245.993 506.063C245.059 504.378 244.593 502.408 244.593 500.153C244.593 497.898 245.047 495.929 245.954 494.244C246.887 492.559 248.183 491.263 249.841 490.356C251.5 489.449 253.405 488.996 255.556 488.996C257.656 488.996 259.522 489.436 261.155 490.317C262.787 491.199 264.057 492.456 264.964 494.089C265.898 495.721 266.364 497.626 266.364 499.803ZM259.561 498.054C259.561 496.914 259.172 496.006 258.394 495.333C257.617 494.659 256.645 494.322 255.479 494.322C254.364 494.322 253.418 494.646 252.64 495.294C251.889 495.942 251.422 496.862 251.241 498.054H259.561ZM312.714 489.073C315.409 489.073 317.547 489.89 319.128 491.523C320.735 493.155 321.539 495.423 321.539 498.326V511H314.93V499.22C314.93 497.821 314.554 496.745 313.802 495.993C313.076 495.216 312.066 494.827 310.77 494.827C309.474 494.827 308.45 495.216 307.698 495.993C306.973 496.745 306.61 497.821 306.61 499.22V511H300.001V499.22C300.001 497.821 299.625 496.745 298.873 495.993C298.148 495.216 297.137 494.827 295.841 494.827C294.545 494.827 293.521 495.216 292.77 495.993C292.044 496.745 291.681 497.821 291.681 499.22V511H285.033V489.307H291.681V492.028C292.355 491.121 293.236 490.408 294.325 489.89C295.413 489.346 296.644 489.073 298.018 489.073C299.651 489.073 301.102 489.423 302.372 490.123C303.668 490.823 304.679 491.821 305.405 493.117C306.156 491.924 307.18 490.952 308.476 490.201C309.772 489.449 311.184 489.073 312.714 489.073ZM340.028 500.114C340.028 497.886 340.443 495.929 341.272 494.244C342.128 492.559 343.281 491.263 344.732 490.356C346.184 489.449 347.804 488.996 349.592 488.996C351.121 488.996 352.456 489.307 353.596 489.929C354.763 490.551 355.657 491.367 356.279 492.378V489.307H362.927V511H356.279V507.929C355.631 508.94 354.724 509.756 353.557 510.378C352.417 511 351.082 511.311 349.553 511.311C347.791 511.311 346.184 510.857 344.732 509.95C343.281 509.017 342.128 507.708 341.272 506.024C340.443 504.313 340.028 502.343 340.028 500.114ZM356.279 500.153C356.279 498.495 355.812 497.186 354.879 496.227C353.972 495.268 352.858 494.788 351.536 494.788C350.214 494.788 349.087 495.268 348.154 496.227C347.246 497.16 346.793 498.456 346.793 500.114C346.793 501.773 347.246 503.095 348.154 504.08C349.087 505.039 350.214 505.518 351.536 505.518C352.858 505.518 353.972 505.039 354.879 504.08C355.812 503.121 356.279 501.812 356.279 500.153ZM404.977 500.114C404.977 497.886 405.392 495.929 406.221 494.244C407.076 492.559 408.23 491.263 409.681 490.356C411.133 489.449 412.753 488.996 414.541 488.996C415.966 488.996 417.262 489.294 418.429 489.89C419.621 490.486 420.554 491.289 421.228 492.3V482.231H427.876V511H421.228V507.89C420.606 508.927 419.712 509.756 418.545 510.378C417.405 511 416.07 511.311 414.541 511.311C412.753 511.311 411.133 510.857 409.681 509.95C408.23 509.017 407.076 507.708 406.221 506.024C405.392 504.313 404.977 502.343 404.977 500.114ZM421.228 500.153C421.228 498.495 420.761 497.186 419.828 496.227C418.921 495.268 417.807 494.788 416.485 494.788C415.163 494.788 414.035 495.268 413.102 496.227C412.195 497.16 411.742 498.456 411.742 500.114C411.742 501.773 412.195 503.095 413.102 504.08C414.035 505.039 415.163 505.518 416.485 505.518C417.807 505.518 418.921 505.039 419.828 504.08C420.761 503.121 421.228 501.812 421.228 500.153ZM468.296 499.803C468.296 500.425 468.258 501.073 468.18 501.747H453.134C453.238 503.095 453.666 504.132 454.417 504.857C455.195 505.557 456.141 505.907 457.255 505.907C458.914 505.907 460.068 505.207 460.715 503.808H467.791C467.428 505.233 466.767 506.516 465.808 507.657C464.875 508.797 463.696 509.691 462.271 510.339C460.845 510.987 459.251 511.311 457.489 511.311C455.363 511.311 453.471 510.857 451.813 509.95C450.154 509.043 448.858 507.747 447.925 506.063C446.992 504.378 446.525 502.408 446.525 500.153C446.525 497.898 446.979 495.929 447.886 494.244C448.819 492.559 450.115 491.263 451.774 490.356C453.433 489.449 455.337 488.996 457.489 488.996C459.588 488.996 461.454 489.436 463.087 490.317C464.72 491.199 465.99 492.456 466.897 494.089C467.83 495.721 468.296 497.626 468.296 499.803ZM461.493 498.054C461.493 496.914 461.104 496.006 460.327 495.333C459.549 494.659 458.577 494.322 457.411 494.322C456.296 494.322 455.35 494.646 454.573 495.294C453.821 495.942 453.355 496.862 453.173 498.054H461.493Z" fill="#F6F6F6"/>
<path d="M138.422 544.162C137.74 542.906 136.753 541.955 135.461 541.309C134.205 540.627 132.716 540.286 130.994 540.286C128.015 540.286 125.629 541.273 123.834 543.247C122.04 545.185 121.143 547.786 121.143 551.052C121.143 554.533 122.076 557.26 123.942 559.234C125.844 561.172 128.446 562.141 131.747 562.141C134.008 562.141 135.91 561.567 137.453 560.418C139.032 559.27 140.18 557.619 140.898 555.466H129.217V548.683H149.242V557.242C148.56 559.539 147.394 561.674 145.743 563.648C144.128 565.622 142.065 567.219 139.552 568.439C137.04 569.659 134.205 570.269 131.047 570.269C127.315 570.269 123.978 569.462 121.035 567.847C118.128 566.196 115.849 563.917 114.199 561.01C112.584 558.104 111.776 554.784 111.776 551.052C111.776 547.32 112.584 544 114.199 541.093C115.849 538.151 118.128 535.872 121.035 534.257C123.942 532.606 127.261 531.781 130.994 531.781C135.515 531.781 139.319 532.875 142.405 535.065C145.528 537.254 147.591 540.286 148.596 544.162H138.422ZM192.882 554.497C192.882 555.358 192.829 556.256 192.721 557.189H171.889C172.032 559.055 172.625 560.49 173.665 561.495C174.742 562.464 176.052 562.948 177.595 562.948C179.892 562.948 181.489 561.979 182.386 560.042H192.183C191.68 562.015 190.765 563.792 189.437 565.371C188.145 566.95 186.513 568.188 184.539 569.085C182.565 569.982 180.358 570.431 177.918 570.431C174.975 570.431 172.355 569.803 170.059 568.547C167.762 567.291 165.968 565.496 164.676 563.164C163.384 560.831 162.738 558.104 162.738 554.982C162.738 551.859 163.366 549.132 164.622 546.799C165.914 544.467 167.708 542.672 170.005 541.416C172.302 540.16 174.939 539.532 177.918 539.532C180.825 539.532 183.408 540.142 185.669 541.363C187.93 542.583 189.689 544.323 190.945 546.584C192.237 548.845 192.882 551.483 192.882 554.497ZM183.462 552.075C183.462 550.496 182.924 549.24 181.847 548.307C180.771 547.374 179.425 546.907 177.81 546.907C176.267 546.907 174.957 547.356 173.881 548.253C172.84 549.15 172.194 550.424 171.943 552.075H183.462ZM220.185 570.431C217.566 570.431 215.233 569.982 213.188 569.085C211.142 568.188 209.527 566.968 208.343 565.424C207.159 563.845 206.495 562.087 206.351 560.149H215.448C215.556 561.19 216.041 562.033 216.902 562.679C217.763 563.325 218.822 563.648 220.078 563.648C221.226 563.648 222.105 563.433 222.715 563.002C223.361 562.536 223.684 561.943 223.684 561.226C223.684 560.364 223.236 559.736 222.339 559.342C221.441 558.911 219.988 558.445 217.978 557.942C215.825 557.44 214.031 556.919 212.595 556.381C211.16 555.807 209.922 554.928 208.881 553.743C207.841 552.523 207.32 550.89 207.32 548.845C207.32 547.122 207.787 545.561 208.72 544.162C209.689 542.726 211.088 541.596 212.918 540.771C214.785 539.945 216.992 539.532 219.54 539.532C223.308 539.532 226.268 540.465 228.421 542.332C230.61 544.198 231.867 546.674 232.189 549.76H223.684C223.541 548.719 223.074 547.894 222.285 547.284C221.531 546.674 220.526 546.369 219.27 546.369C218.194 546.369 217.368 546.584 216.794 547.015C216.22 547.409 215.933 547.966 215.933 548.683C215.933 549.545 216.382 550.191 217.279 550.621C218.212 551.052 219.647 551.483 221.585 551.913C223.81 552.487 225.622 553.062 227.022 553.636C228.421 554.174 229.642 555.071 230.682 556.327C231.759 557.547 232.315 559.198 232.351 561.28C232.351 563.038 231.849 564.617 230.844 566.017C229.875 567.38 228.457 568.457 226.591 569.246C224.761 570.036 222.626 570.431 220.185 570.431ZM264.951 562.195V570H260.268C256.931 570 254.329 569.193 252.463 567.578C250.597 565.927 249.664 563.253 249.664 559.557V547.607H246.003V539.963H249.664V532.642H258.868V539.963H264.897V547.607H258.868V559.665C258.868 560.562 259.084 561.208 259.514 561.603C259.945 561.997 260.663 562.195 261.668 562.195H264.951ZM278.476 554.928C278.476 551.841 279.05 549.132 280.198 546.799C281.383 544.467 282.98 542.672 284.989 541.416C286.999 540.16 289.242 539.532 291.718 539.532C293.835 539.532 295.683 539.963 297.262 540.824C298.877 541.686 300.115 542.816 300.977 544.216V539.963H310.181V570H300.977V565.747C300.079 567.147 298.823 568.277 297.209 569.139C295.63 570 293.781 570.431 291.664 570.431C289.224 570.431 286.999 569.803 284.989 568.547C282.98 567.255 281.383 565.442 280.198 563.11C279.05 560.741 278.476 558.014 278.476 554.928ZM300.977 554.982C300.977 552.685 300.331 550.873 299.039 549.545C297.783 548.217 296.24 547.553 294.409 547.553C292.579 547.553 291.018 548.217 289.726 549.545C288.47 550.837 287.842 552.631 287.842 554.928C287.842 557.224 288.47 559.055 289.726 560.418C291.018 561.746 292.579 562.41 294.409 562.41C296.24 562.41 297.783 561.746 299.039 560.418C300.331 559.091 300.977 557.278 300.977 554.982ZM284.666 537.433C285.527 532.122 288.004 529.466 292.095 529.466C292.884 529.466 293.566 529.592 294.14 529.843C294.75 530.058 295.486 530.399 296.347 530.866C296.993 531.225 297.514 531.494 297.908 531.673C298.303 531.817 298.716 531.889 299.146 531.889C300.474 531.889 301.246 531.081 301.461 529.466H306.198C305.337 534.777 302.861 537.433 298.77 537.433C297.98 537.433 297.28 537.325 296.67 537.11C296.096 536.859 295.378 536.5 294.517 536.034C293.871 535.675 293.351 535.423 292.956 535.28C292.561 535.1 292.149 535.011 291.718 535.011C290.39 535.011 289.601 535.818 289.349 537.433H284.666ZM340.741 570.431C337.798 570.431 335.143 569.803 332.774 568.547C330.442 567.291 328.594 565.496 327.23 563.164C325.902 560.831 325.238 558.104 325.238 554.982C325.238 551.895 325.92 549.186 327.284 546.853C328.647 544.485 330.514 542.672 332.882 541.416C335.251 540.16 337.906 539.532 340.849 539.532C343.791 539.532 346.447 540.16 348.816 541.416C351.184 542.672 353.05 544.485 354.414 546.853C355.778 549.186 356.459 551.895 356.459 554.982C356.459 558.068 355.76 560.795 354.36 563.164C352.996 565.496 351.112 567.291 348.708 568.547C346.339 569.803 343.684 570.431 340.741 570.431ZM340.741 562.464C342.5 562.464 343.989 561.818 345.209 560.526C346.465 559.234 347.093 557.386 347.093 554.982C347.093 552.577 346.483 550.729 345.263 549.437C344.079 548.145 342.607 547.499 340.849 547.499C339.054 547.499 337.565 548.145 336.381 549.437C335.197 550.693 334.605 552.541 334.605 554.982C334.605 557.386 335.179 559.234 336.327 560.526C337.511 561.818 338.983 562.464 340.741 562.464ZM391.375 554.928C391.375 551.841 391.949 549.132 393.098 546.799C394.282 544.467 395.879 542.672 397.888 541.416C399.898 540.16 402.141 539.532 404.617 539.532C406.591 539.532 408.385 539.945 410 540.771C411.651 541.596 412.943 542.708 413.876 544.108V530.166H423.081V570H413.876V565.694C413.015 567.129 411.776 568.277 410.162 569.139C408.583 570 406.734 570.431 404.617 570.431C402.141 570.431 399.898 569.803 397.888 568.547C395.879 567.255 394.282 565.442 393.098 563.11C391.949 560.741 391.375 558.014 391.375 554.928ZM413.876 554.982C413.876 552.685 413.23 550.873 411.938 549.545C410.682 548.217 409.139 547.553 407.309 547.553C405.478 547.553 403.917 548.217 402.625 549.545C401.369 550.837 400.741 552.631 400.741 554.928C400.741 557.224 401.369 559.055 402.625 560.418C403.917 561.746 405.478 562.41 407.309 562.41C409.139 562.41 410.682 561.746 411.938 560.418C413.23 559.091 413.876 557.278 413.876 554.982ZM468.282 554.497C468.282 555.358 468.228 556.256 468.121 557.189H447.288C447.432 559.055 448.024 560.49 449.065 561.495C450.141 562.464 451.451 562.948 452.994 562.948C455.291 562.948 456.888 561.979 457.785 560.042H467.582C467.08 562.015 466.165 563.792 464.837 565.371C463.545 566.95 461.912 568.188 459.938 569.085C457.965 569.982 455.758 570.431 453.317 570.431C450.375 570.431 447.755 569.803 445.458 568.547C443.162 567.291 441.367 565.496 440.075 563.164C438.783 560.831 438.137 558.104 438.137 554.982C438.137 551.859 438.765 549.132 440.021 546.799C441.313 544.467 443.108 542.672 445.404 541.416C447.701 540.16 450.339 539.532 453.317 539.532C456.224 539.532 458.808 540.142 461.069 541.363C463.33 542.583 465.088 544.323 466.344 546.584C467.636 548.845 468.282 551.483 468.282 554.497ZM458.862 552.075C458.862 550.496 458.324 549.24 457.247 548.307C456.17 547.374 454.825 546.907 453.21 546.907C451.667 546.907 450.357 547.356 449.28 548.253C448.239 549.15 447.594 550.424 447.342 552.075H458.862ZM142.136 603.377C142.136 605.566 141.634 607.576 140.629 609.406C139.624 611.2 138.081 612.654 136 613.766C133.918 614.879 131.334 615.435 128.248 615.435H122.542V629H113.337V591.212H128.248C131.263 591.212 133.811 591.732 135.892 592.773C137.973 593.813 139.535 595.249 140.575 597.079C141.616 598.909 142.136 601.009 142.136 603.377ZM127.548 608.114C129.307 608.114 130.617 607.701 131.478 606.876C132.339 606.051 132.77 604.884 132.77 603.377C132.77 601.87 132.339 600.704 131.478 599.878C130.617 599.053 129.307 598.64 127.548 598.64H122.542V608.114H127.548ZM178.742 598.963V629H169.537V624.909C168.604 626.237 167.33 627.313 165.715 628.139C164.136 628.928 162.377 629.323 160.44 629.323C158.143 629.323 156.115 628.821 154.357 627.816C152.598 626.775 151.235 625.286 150.266 623.348C149.297 621.41 148.812 619.131 148.812 616.512V598.963H157.963V615.273C157.963 617.283 158.484 618.844 159.525 619.957C160.565 621.069 161.965 621.625 163.723 621.625C165.518 621.625 166.935 621.069 167.976 619.957C169.016 618.844 169.537 617.283 169.537 615.273V598.963H178.742ZM196.712 603.216C197.573 601.816 198.811 600.686 200.426 599.824C202.041 598.963 203.889 598.532 205.97 598.532C208.446 598.532 210.689 599.16 212.699 600.416C214.709 601.672 216.288 603.467 217.436 605.799C218.62 608.132 219.212 610.841 219.212 613.928C219.212 617.014 218.62 619.741 217.436 622.11C216.288 624.442 214.709 626.255 212.699 627.547C210.689 628.803 208.446 629.431 205.97 629.431C203.853 629.431 202.005 629.018 200.426 628.193C198.847 627.331 197.609 626.201 196.712 624.801V629H187.507V589.166H196.712V603.216ZM209.846 613.928C209.846 611.631 209.2 609.837 207.908 608.545C206.652 607.217 205.091 606.553 203.225 606.553C201.395 606.553 199.834 607.217 198.542 608.545C197.286 609.873 196.658 611.685 196.658 613.982C196.658 616.278 197.286 618.091 198.542 619.418C199.834 620.746 201.395 621.41 203.225 621.41C205.055 621.41 206.616 620.746 207.908 619.418C209.2 618.055 209.846 616.224 209.846 613.928ZM235.399 589.166V629H226.195V589.166H235.399ZM248.853 595.841C247.238 595.841 245.91 595.374 244.869 594.441C243.864 593.472 243.362 592.288 243.362 590.889C243.362 589.453 243.864 588.269 244.869 587.336C245.91 586.367 247.238 585.882 248.853 585.882C250.432 585.882 251.724 586.367 252.728 587.336C253.769 588.269 254.289 589.453 254.289 590.889C254.289 592.288 253.769 593.472 252.728 594.441C251.724 595.374 250.432 595.841 248.853 595.841ZM253.428 598.963V629H244.223V598.963H253.428ZM260.422 613.982C260.422 610.859 261.05 608.132 262.306 605.799C263.598 603.467 265.374 601.672 267.635 600.416C269.932 599.16 272.551 598.532 275.494 598.532C279.262 598.532 282.402 599.519 284.914 601.493C287.462 603.467 289.131 606.248 289.92 609.837H280.124C279.298 607.54 277.701 606.392 275.333 606.392C273.646 606.392 272.3 607.055 271.295 608.383C270.291 609.675 269.788 611.541 269.788 613.982C269.788 616.422 270.291 618.306 271.295 619.634C272.3 620.926 273.646 621.572 275.333 621.572C277.701 621.572 279.298 620.423 280.124 618.126H289.92C289.131 621.643 287.462 624.407 284.914 626.416C282.366 628.426 279.226 629.431 275.494 629.431C272.551 629.431 269.932 628.803 267.635 627.547C265.374 626.291 263.598 624.496 262.306 622.164C261.05 619.831 260.422 617.104 260.422 613.982ZM295.167 613.928C295.167 610.841 295.741 608.132 296.89 605.799C298.074 603.467 299.671 601.672 301.681 600.416C303.69 599.16 305.933 598.532 308.409 598.532C310.527 598.532 312.375 598.963 313.954 599.824C315.569 600.686 316.807 601.816 317.668 603.216V598.963H326.873V629H317.668V624.747C316.771 626.147 315.515 627.277 313.9 628.139C312.321 629 310.473 629.431 308.355 629.431C305.915 629.431 303.69 628.803 301.681 627.547C299.671 626.255 298.074 624.442 296.89 622.11C295.741 619.741 295.167 617.014 295.167 613.928ZM317.668 613.982C317.668 611.685 317.022 609.873 315.73 608.545C314.474 607.217 312.931 606.553 311.101 606.553C309.271 606.553 307.71 607.217 306.418 608.545C305.162 609.837 304.534 611.631 304.534 613.928C304.534 616.224 305.162 618.055 306.418 619.418C307.71 620.746 309.271 621.41 311.101 621.41C312.931 621.41 314.474 620.746 315.73 619.418C317.022 618.091 317.668 616.278 317.668 613.982ZM348.766 621.572C351.134 621.572 352.731 620.423 353.557 618.126H363.354C362.672 621.177 361.308 623.671 359.263 625.609C357.217 627.547 354.669 628.749 351.619 629.215V631.207C353.485 631.207 355.118 631.709 356.517 632.714C357.917 633.755 358.617 635.298 358.617 637.344C358.617 639.389 357.881 640.932 356.41 641.973C354.938 643.05 353.18 643.588 351.134 643.588H342.845V638.528H349.896C350.614 638.528 351.152 638.42 351.511 638.205C351.87 637.99 352.05 637.631 352.05 637.128C352.05 636.626 351.87 636.267 351.511 636.052C351.152 635.872 350.614 635.783 349.896 635.783H346.074V629.215C342.378 628.641 339.418 627.008 337.193 624.317C334.968 621.589 333.855 618.144 333.855 613.982C333.855 610.859 334.483 608.132 335.739 605.799C337.031 603.467 338.807 601.672 341.068 600.416C343.365 599.16 345.985 598.532 348.927 598.532C352.696 598.532 355.836 599.519 358.348 601.493C360.896 603.467 362.564 606.248 363.354 609.837H353.557C352.731 607.54 351.134 606.392 348.766 606.392C347.079 606.392 345.734 607.055 344.729 608.383C343.724 609.675 343.222 611.541 343.222 613.982C343.222 616.422 343.724 618.306 344.729 619.634C345.734 620.926 347.079 621.572 348.766 621.572ZM384.103 629.431C381.161 629.431 378.505 628.803 376.137 627.547C373.804 626.291 371.956 624.496 370.592 622.164C369.264 619.831 368.6 617.104 368.6 613.982C368.6 610.895 369.282 608.186 370.646 605.853C372.01 603.485 373.876 601.672 376.244 600.416C378.613 599.16 381.268 598.532 384.211 598.532C387.154 598.532 389.809 599.16 392.178 600.416C394.546 601.672 396.412 603.485 397.776 605.853C399.14 608.186 399.822 610.895 399.822 613.982C399.822 617.068 399.122 619.795 397.722 622.164C396.359 624.496 394.475 626.291 392.07 627.547C389.702 628.803 387.046 629.431 384.103 629.431ZM384.103 621.464C385.862 621.464 387.351 620.818 388.571 619.526C389.827 618.234 390.455 616.386 390.455 613.982C390.455 611.577 389.845 609.729 388.625 608.437C387.441 607.145 385.97 606.499 384.211 606.499C382.417 606.499 380.927 607.145 379.743 608.437C378.559 609.693 377.967 611.541 377.967 613.982C377.967 616.386 378.541 618.234 379.689 619.526C380.874 620.818 382.345 621.464 384.103 621.464ZM374.145 596.218C375.006 590.907 377.482 588.251 381.573 588.251C382.363 588.251 383.045 588.377 383.619 588.628C384.229 588.843 384.965 589.184 385.826 589.651C386.472 590.009 386.992 590.279 387.387 590.458C387.782 590.602 388.194 590.673 388.625 590.673C389.953 590.673 390.724 589.866 390.94 588.251H395.677C394.816 593.562 392.339 596.218 388.248 596.218C387.459 596.218 386.759 596.11 386.149 595.895C385.575 595.644 384.857 595.285 383.996 594.818C383.35 594.459 382.829 594.208 382.435 594.065C382.04 593.885 381.627 593.795 381.197 593.795C379.869 593.795 379.079 594.603 378.828 596.218H374.145ZM435.173 613.497C435.173 614.358 435.119 615.256 435.011 616.189H414.179C414.323 618.055 414.915 619.49 415.955 620.495C417.032 621.464 418.342 621.948 419.885 621.948C422.182 621.948 423.779 620.979 424.676 619.042H434.473C433.97 621.015 433.055 622.792 431.728 624.371C430.436 625.95 428.803 627.188 426.829 628.085C424.855 628.982 422.648 629.431 420.208 629.431C417.265 629.431 414.646 628.803 412.349 627.547C410.052 626.291 408.258 624.496 406.966 622.164C405.674 619.831 405.028 617.104 405.028 613.982C405.028 610.859 405.656 608.132 406.912 605.799C408.204 603.467 409.998 601.672 412.295 600.416C414.592 599.16 417.229 598.532 420.208 598.532C423.115 598.532 425.699 599.142 427.959 600.363C430.22 601.583 431.979 603.323 433.235 605.584C434.527 607.845 435.173 610.483 435.173 613.497ZM425.752 611.075C425.752 609.496 425.214 608.24 424.138 607.307C423.061 606.374 421.715 605.907 420.1 605.907C418.557 605.907 417.247 606.356 416.171 607.253C415.13 608.15 414.484 609.424 414.233 611.075H425.752ZM454.401 629.431C451.781 629.431 449.449 628.982 447.403 628.085C445.358 627.188 443.743 625.968 442.559 624.424C441.374 622.845 440.71 621.087 440.567 619.149H449.664C449.772 620.19 450.256 621.033 451.118 621.679C451.979 622.325 453.037 622.648 454.293 622.648C455.442 622.648 456.321 622.433 456.931 622.002C457.577 621.536 457.9 620.943 457.9 620.226C457.9 619.364 457.452 618.736 456.554 618.342C455.657 617.911 454.204 617.445 452.194 616.942C450.041 616.44 448.247 615.919 446.811 615.381C445.376 614.807 444.138 613.928 443.097 612.743C442.056 611.523 441.536 609.89 441.536 607.845C441.536 606.122 442.002 604.561 442.935 603.162C443.904 601.726 445.304 600.596 447.134 599.771C449 598.945 451.207 598.532 453.755 598.532C457.523 598.532 460.484 599.465 462.637 601.332C464.826 603.198 466.082 605.674 466.405 608.76H457.9C457.757 607.719 457.29 606.894 456.501 606.284C455.747 605.674 454.742 605.369 453.486 605.369C452.409 605.369 451.584 605.584 451.01 606.015C450.436 606.409 450.149 606.966 450.149 607.683C450.149 608.545 450.597 609.191 451.494 609.621C452.427 610.052 453.863 610.483 455.801 610.913C458.026 611.487 459.838 612.062 461.238 612.636C462.637 613.174 463.857 614.071 464.898 615.327C465.975 616.547 466.531 618.198 466.567 620.28C466.567 622.038 466.064 623.617 465.059 625.017C464.09 626.38 462.673 627.457 460.807 628.246C458.977 629.036 456.841 629.431 454.401 629.431Z" fill="#003333"/>
</svg>
